<svg viewBox="0 0 32 32" fill="none" xmlns="http://www.w3.org/2000/svg">
  <path fill-rule="evenodd" clip-rule="evenodd" d="M18.2503 8.27434C18.2503 8.67563 18.5859 9.00047 19.0006 9.00047C19.4153 9.00047 19.751 8.67563 19.751 8.27434C19.751 7.87306 19.4153 7.54968 19.0006 7.54968C18.5859 7.54968 18.2503 7.87306 18.2503 8.27434ZM12.2501 8.27434C12.2501 8.67563 12.5858 9.00047 13.0005 9.00047C13.4151 9.00047 13.7508 8.67563 13.7508 8.27434C13.7508 7.87306 13.4151 7.54968 13.0005 7.54968C12.5858 7.54968 12.2501 7.87306 12.2501 8.27434ZM19.7235 5.68437L19.444 6.093C21.5644 7.04991 22.9998 8.8623 22.9998 10.9363H9.00141C9.00141 8.8623 10.4368 7.04991 12.5587 6.093L12.2777 5.68437L11.9982 5.28161L11.3755 4.37615C11.2995 4.26444 11.3314 4.11451 11.4454 4.04101C11.5608 3.96752 11.7157 3.99691 11.7932 4.10863L12.4615 5.07876L12.7425 5.48593L13.0265 5.90044C13.9303 5.56089 14.9389 5.37128 16.0006 5.37128C17.0638 5.37128 18.0709 5.56089 18.9746 5.90044L19.2602 5.48593L20.211 4.10863C20.2855 3.99691 20.4419 3.96605 20.5558 4.04101C20.6713 4.11451 20.7032 4.26444 20.6257 4.37615L20.0029 5.28161L19.7235 5.68437ZM9.00141 11.9035H9.10926H22.9998V22.5486C22.9998 23.3938 22.2919 24.0817 21.417 24.0817H20.2733C20.3128 24.2096 20.3356 24.3433 20.3356 24.4844V27.5492C20.3356 28.3503 19.6627 29 18.8334 29C18.0056 29 17.3342 28.3503 17.3342 27.5492V24.4844C17.3342 24.3433 17.3555 24.2096 17.3934 24.0817H14.6077C14.6457 24.2096 14.6685 24.3433 14.6685 24.4844V27.5492C14.6685 28.3503 13.9956 29 13.1678 29C12.34 29 11.6671 28.3503 11.6671 27.5492V24.4844C11.6671 24.3433 11.6884 24.2096 11.7279 24.0817H10.5856C9.71075 24.0817 9.00141 23.3938 9.00141 22.5486V11.9035ZM6.50069 11.9035C5.67136 11.9035 5 12.5532 5 13.3543V19.5647C5 20.3658 5.67136 21.0155 6.50069 21.0155C7.3285 21.0155 7.99986 20.3658 7.99986 19.5647V13.3543C7.99986 12.5532 7.3285 11.9035 6.50069 11.9035ZM23.9999 13.3543C23.9999 12.5532 24.6713 11.9035 25.5006 11.9035C26.3284 11.9035 26.9998 12.5532 26.9998 13.3543V19.5647C26.9998 20.3658 26.3284 21.0155 25.5006 21.0155C24.6713 21.0155 23.9999 20.3658 23.9999 19.5647V13.3543Z" />
</svg>
