<svg viewBox="0 0 32 32" xmlns="http://www.w3.org/2000/svg">
<g id="icon/archive">
<path id="Union" fill-rule="evenodd" clip-rule="evenodd" d="M8.05006 6.01396L8.03888 6L8.01167 6.02179C7.7484 6.08169 7.53028 6.26032 7.41659 6.49837L3.83105 9.3699L3.93531 9.50008H3.83125V11.2501H3.83155V25.2499H3.83125V26.9999H26.5813V26.9999H28.3312V26.9998H28.3314V9.74445L28.3312 9.74436V9.50008H28.331H28.279L28.383 9.37021L24.7087 6.42781C24.6014 6.24761 24.4311 6.10924 24.2282 6.04302L24.1751 6.00045L24.1569 6.02307C24.0926 6.00798 24.0255 6 23.9565 6H23.929H8.23386H8.2066C8.15317 6 8.10085 6.00479 8.05006 6.01396ZM5.58154 25.2499V11.2501H26.5813V25.2499H5.58154ZM8.65326 7.74999L6.46801 9.50008H25.7456L23.5602 7.74999H8.65326ZM16.0815 22.5412L20.5986 17.7931H18.0912V13.8942H14.0526V17.7931H11.5643L16.0815 22.5412Z"/>
</g>
</svg>
