<svg viewBox="0 0 32 32" xmlns="http://www.w3.org/2000/svg">
  <path fill-rule="evenodd" clip-rule="evenodd" d="M27.5601 14.6789L20.0602 5.53622C19.4738 4.82126 18.5258 4.82126 17.9393 5.53622C17.3528 6.25117 17.3528 7.40681 17.9393 8.12176L22.8787 14.1431H5.49998C4.67049 14.1431 4 14.9623 4 15.9717C4 16.981 4.67049 17.8002 5.49998 17.8002H22.8787L17.9393 23.8216C17.3528 24.5365 17.3528 25.6921 17.9393 26.4071C18.2318 26.7637 18.6158 26.9429 18.9998 26.9429C19.3838 26.9429 19.7678 26.7637 20.0602 26.4071L27.5601 17.2644C28.1466 16.5495 28.1466 15.3938 27.5601 14.6789Z" />
</svg>
