<svg viewBox="0 0 32 32" xmlns="http://www.w3.org/2000/svg">
  <path d="M4 5H17.6431V6.47344H4V5ZM19.3392 10.6027V12.0761H29V10.6027H19.3392ZM4 7.3575H17.6431V28H14.177V22.3973H7.46608V28H4V7.3575ZM11.7434 11.7814H13.587V10.308H11.7434V11.7814ZM11.7434 14.7319H13.587V13.2584H11.7434V14.7319ZM11.7434 17.9734H13.587V16.5H11.7434V17.9734ZM11.7434 20.9239H13.587V19.4505H11.7434V20.9239ZM8.05605 11.7814H9.8997V10.308H8.05605V11.7814ZM8.05605 14.7319H9.8997V13.2584H8.05605V14.7319ZM8.05605 17.9734H9.8997V16.5H8.05605V17.9734ZM8.05605 20.9239H9.8997V19.4505H8.05605V20.9239ZM9.30973 28H12.3333V23.8708H9.30973V28ZM29 12.9602C29 19.49 29 21.0102 29 28C25.5855 28 22.6468 28 19.3392 28V12.9602C22.6468 12.9602 25.5855 12.9602 29 12.9602ZM26.0391 22.692H22.2891V24.1655H26.0391V22.692ZM26.0391 19.6266H22.2891V21.1H26.0391V19.6266ZM26.0391 16.5575H22.2891V18.0309H26.0391V16.5575Z" />
</svg>
