<svg viewBox="0 0 32 32" fill="none" xmlns="http://www.w3.org/2000/svg">
  <path d="M16 13.7864L6.67199 4.45844C6.06074 3.84719 5.0697 3.84719 4.45844 4.45844C3.84719 5.0697 3.84719 6.06074 4.45844 6.67199L13.7864 16L4.45844 25.328C3.84719 25.9393 3.84719 26.9303 4.45844 27.5416C5.0697 28.1528 6.06074 28.1528 6.67199 27.5416L16 18.2136L25.328 27.5416C25.9393 28.1528 26.9303 28.1528 27.5416 27.5416C28.1528 26.9303 28.1528 25.9393 27.5416 25.328L18.2136 16L27.5416 6.67199C28.1528 6.06074 28.1528 5.0697 27.5416 4.45844C26.9303 3.84719 25.9393 3.84719 25.328 4.45844L16 13.7864Z" />
</svg>
