<svg viewBox="0 0 32 32" fill="none" xmlns="http://www.w3.org/2000/svg">
<path fill-rule="evenodd" clip-rule="evenodd" d="M22.875 23.7748C21.0341 23.7748 18.726 23.7748 18.726 23.7748L16 26.9003L13.274 23.7748H9.125C7.28396 23.7748 6 22.5944 6 20.7661V10.2102C6 8.3819 7.49233 6.89978 9.33338 6.89978H22.6666C24.5075 6.89978 26 8.3819 26 10.2102V20.7661C26 22.5944 24.7159 23.7748 22.875 23.7748ZM22.875 22.5248C23.7954 22.5248 24.75 21.5638 24.75 20.6497V10.0247C24.75 9.11063 23.7954 8.14977 22.875 8.14977H9.12504C8.20465 8.14977 7.2501 9.11063 7.2501 10.0247V20.6497C7.2501 21.5638 8.20465 22.5248 9.12504 22.5248L14.125 22.5247L16 25.0246L17.875 22.5247L22.875 22.5248Z" />
<path d="M18.726 23.7748V23.2748H18.4986L18.3492 23.4461L18.726 23.7748ZM16 26.9003L15.6232 27.2289L16 27.661L16.3768 27.2289L16 26.9003ZM13.274 23.7748L13.6508 23.4461L13.5014 23.2748H13.274V23.7748ZM22.875 22.5248L22.875 23.0248H22.875V22.5248ZM9.12504 22.5248V23.0248H9.12506L9.12504 22.5248ZM14.125 22.5247L14.525 22.2247L14.375 22.0247L14.125 22.0247L14.125 22.5247ZM16 25.0246L15.6001 25.3247L16.0001 25.858L16.4 25.3246L16 25.0246ZM17.875 22.5247L17.875 22.0247L17.625 22.0247L17.475 22.2247L17.875 22.5247ZM22.875 23.2748C22.8714 23.2748 22.8678 23.2748 22.8642 23.2748C22.8606 23.2748 22.857 23.2748 22.8534 23.2748C22.8498 23.2748 22.8462 23.2748 22.8426 23.2748C22.839 23.2748 22.8354 23.2748 22.8318 23.2748C22.8282 23.2748 22.8245 23.2748 22.8209 23.2748C22.8173 23.2748 22.8137 23.2748 22.8101 23.2748C22.8065 23.2748 22.8029 23.2748 22.7992 23.2748C22.7956 23.2748 22.792 23.2748 22.7884 23.2748C22.7848 23.2748 22.7811 23.2748 22.7775 23.2748C22.7739 23.2748 22.7703 23.2748 22.7666 23.2748C22.763 23.2748 22.7594 23.2748 22.7557 23.2748C22.7521 23.2748 22.7485 23.2748 22.7448 23.2748C22.7412 23.2748 22.7376 23.2748 22.7339 23.2748C22.7303 23.2748 22.7266 23.2748 22.723 23.2748C22.7194 23.2748 22.7157 23.2748 22.7121 23.2748C22.7084 23.2748 22.7048 23.2748 22.7011 23.2748C22.6975 23.2748 22.6938 23.2748 22.6902 23.2748C22.6865 23.2748 22.6829 23.2748 22.6792 23.2748C22.6756 23.2748 22.6719 23.2748 22.6683 23.2748C22.6646 23.2748 22.661 23.2748 22.6573 23.2748C22.6536 23.2748 22.65 23.2748 22.6463 23.2748C22.6427 23.2748 22.639 23.2748 22.6353 23.2748C22.6317 23.2748 22.628 23.2748 22.6243 23.2748C22.6207 23.2748 22.617 23.2748 22.6133 23.2748C22.6097 23.2748 22.606 23.2748 22.6023 23.2748C22.5986 23.2748 22.595 23.2748 22.5913 23.2748C22.5876 23.2748 22.5839 23.2748 22.5803 23.2748C22.5766 23.2748 22.5729 23.2748 22.5692 23.2748C22.5656 23.2748 22.5619 23.2748 22.5582 23.2748C22.5545 23.2748 22.5508 23.2748 22.5471 23.2748C22.5435 23.2748 22.5398 23.2748 22.5361 23.2748C22.5324 23.2748 22.5287 23.2748 22.525 23.2748C22.5213 23.2748 22.5177 23.2748 22.514 23.2748C22.5103 23.2748 22.5066 23.2748 22.5029 23.2748C22.4992 23.2748 22.4955 23.2748 22.4918 23.2748C22.4881 23.2748 22.4844 23.2748 22.4807 23.2748C22.477 23.2748 22.4733 23.2748 22.4696 23.2748C22.4659 23.2748 22.4622 23.2748 22.4585 23.2748C22.4548 23.2748 22.4511 23.2748 22.4474 23.2748C22.4437 23.2748 22.44 23.2748 22.4363 23.2748C22.4326 23.2748 22.4289 23.2748 22.4252 23.2748C22.4215 23.2748 22.4178 23.2748 22.4141 23.2748C22.4104 23.2748 22.4066 23.2748 22.4029 23.2748C22.3992 23.2748 22.3955 23.2748 22.3918 23.2748C22.3881 23.2748 22.3844 23.2748 22.3807 23.2748C22.3769 23.2748 22.3732 23.2748 22.3695 23.2748C22.3658 23.2748 22.3621 23.2748 22.3584 23.2748C22.3547 23.2748 22.3509 23.2748 22.3472 23.2748C22.3435 23.2748 22.3398 23.2748 22.3361 23.2748C22.3323 23.2748 22.3286 23.2748 22.3249 23.2748C22.3212 23.2748 22.3174 23.2748 22.3137 23.2748C22.31 23.2748 22.3063 23.2748 22.3025 23.2748C22.2988 23.2748 22.2951 23.2748 22.2914 23.2748C22.2876 23.2748 22.2839 23.2748 22.2802 23.2748C22.2765 23.2748 22.2727 23.2748 22.269 23.2748C22.2653 23.2748 22.2615 23.2748 22.2578 23.2748C22.2541 23.2748 22.2504 23.2748 22.2466 23.2748C22.2429 23.2748 22.2392 23.2748 22.2354 23.2748C22.2317 23.2748 22.228 23.2748 22.2242 23.2748C22.2205 23.2748 22.2168 23.2748 22.213 23.2748C22.2093 23.2748 22.2056 23.2748 22.2018 23.2748C22.1981 23.2748 22.1943 23.2748 22.1906 23.2748C22.1869 23.2748 22.1831 23.2748 22.1794 23.2748C22.1757 23.2748 22.1719 23.2748 22.1682 23.2748C22.1644 23.2748 22.1607 23.2748 22.157 23.2748C22.1532 23.2748 22.1495 23.2748 22.1457 23.2748C22.142 23.2748 22.1383 23.2748 22.1345 23.2748C22.1308 23.2748 22.127 23.2748 22.1233 23.2748C22.1196 23.2748 22.1158 23.2748 22.1121 23.2748C22.1083 23.2748 22.1046 23.2748 22.1008 23.2748C22.0971 23.2748 22.0933 23.2748 22.0896 23.2748C22.0859 23.2748 22.0821 23.2748 22.0784 23.2748C22.0746 23.2748 22.0709 23.2748 22.0671 23.2748C22.0634 23.2748 22.0596 23.2748 22.0559 23.2748C22.0521 23.2748 22.0484 23.2748 22.0447 23.2748C22.0409 23.2748 22.0372 23.2748 22.0334 23.2748C22.0297 23.2748 22.0259 23.2748 22.0222 23.2748C22.0184 23.2748 22.0147 23.2748 22.0109 23.2748C22.0072 23.2748 22.0034 23.2748 21.9997 23.2748C21.9959 23.2748 21.9922 23.2748 21.9884 23.2748C21.9847 23.2748 21.9809 23.2748 21.9772 23.2748C21.9734 23.2748 21.9697 23.2748 21.966 23.2748C21.9622 23.2748 21.9585 23.2748 21.9547 23.2748C21.951 23.2748 21.9472 23.2748 21.9435 23.2748C21.9397 23.2748 21.936 23.2748 21.9322 23.2748C21.9285 23.2748 21.9247 23.2748 21.921 23.2748C21.9172 23.2748 21.9135 23.2748 21.9097 23.2748C21.906 23.2748 21.9022 23.2748 21.8985 23.2748C21.8947 23.2748 21.891 23.2748 21.8872 23.2748C21.8835 23.2748 21.8797 23.2748 21.876 23.2748C21.8722 23.2748 21.8685 23.2748 21.8647 23.2748C21.861 23.2748 21.8572 23.2748 21.8535 23.2748C21.8497 23.2748 21.846 23.2748 21.8422 23.2748C21.8385 23.2748 21.8347 23.2748 21.831 23.2748C21.8272 23.2748 21.8235 23.2748 21.8198 23.2748C21.816 23.2748 21.8123 23.2748 21.8085 23.2748C21.8048 23.2748 21.801 23.2748 21.7973 23.2748C21.7935 23.2748 21.7898 23.2748 21.786 23.2748C21.7823 23.2748 21.7785 23.2748 21.7748 23.2748C21.771 23.2748 21.7673 23.2748 21.7636 23.2748C21.7598 23.2748 21.7561 23.2748 21.7523 23.2748C21.7486 23.2748 21.7448 23.2748 21.7411 23.2748C21.7373 23.2748 21.7336 23.2748 21.7299 23.2748C21.7261 23.2748 21.7224 23.2748 21.7186 23.2748C21.7149 23.2748 21.7111 23.2748 21.7074 23.2748C21.7037 23.2748 21.6999 23.2748 21.6962 23.2748C21.6924 23.2748 21.6887 23.2748 21.685 23.2748C21.6812 23.2748 21.6775 23.2748 21.6737 23.2748C21.67 23.2748 21.6663 23.2748 21.6625 23.2748C21.6588 23.2748 21.655 23.2748 21.6513 23.2748C21.6476 23.2748 21.6438 23.2748 21.6401 23.2748C21.6364 23.2748 21.6326 23.2748 21.6289 23.2748C21.6252 23.2748 21.6214 23.2748 21.6177 23.2748C21.6139 23.2748 21.6102 23.2748 21.6065 23.2748C21.6027 23.2748 21.599 23.2748 21.5953 23.2748C21.5916 23.2748 21.5878 23.2748 21.5841 23.2748C21.5804 23.2748 21.5766 23.2748 21.5729 23.2748C21.5692 23.2748 21.5654 23.2748 21.5617 23.2748C21.558 23.2748 21.5543 23.2748 21.5505 23.2748C21.5468 23.2748 21.5431 23.2748 21.5394 23.2748C21.5356 23.2748 21.5319 23.2748 21.5282 23.2748C21.5245 23.2748 21.5207 23.2748 21.517 23.2748C21.5133 23.2748 21.5096 23.2748 21.5058 23.2748C21.5021 23.2748 21.4984 23.2748 21.4947 23.2748C21.491 23.2748 21.4872 23.2748 21.4835 23.2748C21.4798 23.2748 21.4761 23.2748 21.4724 23.2748C21.4687 23.2748 21.4649 23.2748 21.4612 23.2748C21.4575 23.2748 21.4538 23.2748 21.4501 23.2748C21.4464 23.2748 21.4427 23.2748 21.4389 23.2748C21.4352 23.2748 21.4315 23.2748 21.4278 23.2748C21.4241 23.2748 21.4204 23.2748 21.4167 23.2748C21.413 23.2748 21.4093 23.2748 21.4056 23.2748C21.4019 23.2748 21.3982 23.2748 21.3945 23.2748C21.3908 23.2748 21.3871 23.2748 21.3833 23.2748C21.3796 23.2748 21.3759 23.2748 21.3722 23.2748C21.3685 23.2748 21.3648 23.2748 21.3611 23.2748C21.3575 23.2748 21.3538 23.2748 21.3501 23.2748C21.3464 23.2748 21.3427 23.2748 21.339 23.2748C21.3353 23.2748 21.3316 23.2748 21.3279 23.2748C21.3242 23.2748 21.3205 23.2748 21.3168 23.2748C21.3131 23.2748 21.3094 23.2748 21.3058 23.2748C21.3021 23.2748 21.2984 23.2748 21.2947 23.2748C21.291 23.2748 21.2873 23.2748 21.2837 23.2748C21.28 23.2748 21.2763 23.2748 21.2726 23.2748C21.2689 23.2748 21.2653 23.2748 21.2616 23.2748C21.2579 23.2748 21.2542 23.2748 21.2505 23.2748C21.2469 23.2748 21.2432 23.2748 21.2395 23.2748C21.2359 23.2748 21.2322 23.2748 21.2285 23.2748C21.2248 23.2748 21.2212 23.2748 21.2175 23.2748C21.2138 23.2748 21.2102 23.2748 21.2065 23.2748C21.2028 23.2748 21.1992 23.2748 21.1955 23.2748C21.1919 23.2748 21.1882 23.2748 21.1845 23.2748C21.1809 23.2748 21.1772 23.2748 21.1736 23.2748C21.1699 23.2748 21.1662 23.2748 21.1626 23.2748C21.1589 23.2748 21.1553 23.2748 21.1516 23.2748C21.148 23.2748 21.1443 23.2748 21.1407 23.2748C21.137 23.2748 21.1334 23.2748 21.1297 23.2748C21.1261 23.2748 21.1225 23.2748 21.1188 23.2748C21.1152 23.2748 21.1115 23.2748 21.1079 23.2748C21.1042 23.2748 21.1006 23.2748 21.097 23.2748C21.0933 23.2748 21.0897 23.2748 21.0861 23.2748C21.0824 23.2748 21.0788 23.2748 21.0752 23.2748C21.0715 23.2748 21.0679 23.2748 21.0643 23.2748C21.0607 23.2748 21.057 23.2748 21.0534 23.2748C21.0498 23.2748 21.0462 23.2748 21.0425 23.2748C21.0389 23.2748 21.0353 23.2748 21.0317 23.2748C21.0281 23.2748 21.0245 23.2748 21.0208 23.2748C21.0172 23.2748 21.0136 23.2748 21.01 23.2748C21.0064 23.2748 21.0028 23.2748 20.9992 23.2748C20.9956 23.2748 20.992 23.2748 20.9884 23.2748C20.9848 23.2748 20.9812 23.2748 20.9775 23.2748C20.9739 23.2748 20.9704 23.2748 20.9668 23.2748C20.9632 23.2748 20.9596 23.2748 20.956 23.2748C20.9524 23.2748 20.9488 23.2748 20.9452 23.2748C20.9416 23.2748 20.938 23.2748 20.9344 23.2748C20.9308 23.2748 20.9273 23.2748 20.9237 23.2748C20.9201 23.2748 20.9165 23.2748 20.9129 23.2748C20.9094 23.2748 20.9058 23.2748 20.9022 23.2748C20.8986 23.2748 20.8951 23.2748 20.8915 23.2748C20.8879 23.2748 20.8843 23.2748 20.8808 23.2748C20.8772 23.2748 20.8736 23.2748 20.8701 23.2748C20.8665 23.2748 20.863 23.2748 20.8594 23.2748C20.8558 23.2748 20.8523 23.2748 20.8487 23.2748C20.8452 23.2748 20.8416 23.2748 20.8381 23.2748C20.8345 23.2748 20.831 23.2748 20.8274 23.2748C20.8239 23.2748 20.8203 23.2748 20.8168 23.2748C20.8132 23.2748 20.8097 23.2748 20.8062 23.2748C20.8026 23.2748 20.7991 23.2748 20.7956 23.2748C20.792 23.2748 20.7885 23.2748 20.785 23.2748C20.7814 23.2748 20.7779 23.2748 20.7744 23.2748C20.7708 23.2748 20.7673 23.2748 20.7638 23.2748C20.7603 23.2748 20.7568 23.2748 20.7532 23.2748C20.7497 23.2748 20.7462 23.2748 20.7427 23.2748C20.7392 23.2748 20.7357 23.2748 20.7322 23.2748C20.7286 23.2748 20.7251 23.2748 20.7216 23.2748C20.7181 23.2748 20.7146 23.2748 20.7111 23.2748C20.7076 23.2748 20.7041 23.2748 20.7006 23.2748C20.6971 23.2748 20.6937 23.2748 20.6902 23.2748C20.6867 23.2748 20.6832 23.2748 20.6797 23.2748C20.6762 23.2748 20.6727 23.2748 20.6692 23.2748C20.6658 23.2748 20.6623 23.2748 20.6588 23.2748C20.6553 23.2748 20.6519 23.2748 20.6484 23.2748C20.6449 23.2748 20.6414 23.2748 20.638 23.2748C20.6345 23.2748 20.631 23.2748 20.6276 23.2748C20.6241 23.2748 20.6207 23.2748 20.6172 23.2748C20.6137 23.2748 20.6103 23.2748 20.6068 23.2748C20.6034 23.2748 20.5999 23.2748 20.5965 23.2748C20.593 23.2748 20.5896 23.2748 20.5862 23.2748C20.5827 23.2748 20.5793 23.2748 20.5758 23.2748C20.5724 23.2748 20.569 23.2748 20.5655 23.2748C20.5621 23.2748 20.5587 23.2748 20.5552 23.2748C20.5518 23.2748 20.5484 23.2748 20.545 23.2748C20.5415 23.2748 20.5381 23.2748 20.5347 23.2748C20.5313 23.2748 20.5279 23.2748 20.5245 23.2748C20.5211 23.2748 20.5177 23.2748 20.5142 23.2748C20.5108 23.2748 20.5074 23.2748 20.504 23.2748C20.5006 23.2748 20.4972 23.2748 20.4938 23.2748C20.4904 23.2748 20.4871 23.2748 20.4837 23.2748C20.4803 23.2748 20.4769 23.2748 20.4735 23.2748C20.4701 23.2748 20.4667 23.2748 20.4634 23.2748C20.46 23.2748 20.4566 23.2748 20.4532 23.2748C20.4499 23.2748 20.4465 23.2748 20.4431 23.2748C20.4397 23.2748 20.4364 23.2748 20.433 23.2748C20.4297 23.2748 20.4263 23.2748 20.4229 23.2748C20.4196 23.2748 20.4162 23.2748 20.4129 23.2748C20.4095 23.2748 20.4062 23.2748 20.4028 23.2748C20.3995 23.2748 20.3962 23.2748 20.3928 23.2748C20.3895 23.2748 20.3861 23.2748 20.3828 23.2748C20.3795 23.2748 20.3761 23.2748 20.3728 23.2748C20.3695 23.2748 20.3662 23.2748 20.3628 23.2748C20.3595 23.2748 20.3562 23.2748 20.3529 23.2748C20.3496 23.2748 20.3463 23.2748 20.3429 23.2748C20.3396 23.2748 20.3363 23.2748 20.333 23.2748C20.3297 23.2748 20.3264 23.2748 20.3231 23.2748C20.3198 23.2748 20.3165 23.2748 20.3132 23.2748C20.31 23.2748 20.3067 23.2748 20.3034 23.2748C20.3001 23.2748 20.2968 23.2748 20.2935 23.2748C20.2903 23.2748 20.287 23.2748 20.2837 23.2748C20.2804 23.2748 20.2772 23.2748 20.2739 23.2748C20.2706 23.2748 20.2674 23.2748 20.2641 23.2748C20.2608 23.2748 20.2576 23.2748 20.2543 23.2748C20.2511 23.2748 20.2478 23.2748 20.2446 23.2748C20.2413 23.2748 20.2381 23.2748 20.2349 23.2748C20.2316 23.2748 20.2284 23.2748 20.2251 23.2748C20.2219 23.2748 20.2187 23.2748 20.2155 23.2748C20.2122 23.2748 20.209 23.2748 20.2058 23.2748C20.2026 23.2748 20.1993 23.2748 20.1961 23.2748C20.1929 23.2748 20.1897 23.2748 20.1865 23.2748C20.1833 23.2748 20.1801 23.2748 20.1769 23.2748C20.1737 23.2748 20.1705 23.2748 20.1673 23.2748C20.1641 23.2748 20.1609 23.2748 20.1577 23.2748C20.1545 23.2748 20.1513 23.2748 20.1482 23.2748C20.145 23.2748 20.1418 23.2748 20.1386 23.2748C20.1355 23.2748 20.1323 23.2748 20.1291 23.2748C20.126 23.2748 20.1228 23.2748 20.1196 23.2748C20.1165 23.2748 20.1133 23.2748 20.1102 23.2748C20.107 23.2748 20.1039 23.2748 20.1007 23.2748C20.0976 23.2748 20.0944 23.2748 20.0913 23.2748C20.0881 23.2748 20.085 23.2748 20.0819 23.2748C20.0787 23.2748 20.0756 23.2748 20.0725 23.2748C20.0694 23.2748 20.0662 23.2748 20.0631 23.2748C20.06 23.2748 20.0569 23.2748 20.0538 23.2748C20.0507 23.2748 20.0476 23.2748 20.0445 23.2748C20.0414 23.2748 20.0383 23.2748 20.0352 23.2748C20.0321 23.2748 20.029 23.2748 20.0259 23.2748C20.0228 23.2748 20.0197 23.2748 20.0166 23.2748C20.0136 23.2748 20.0105 23.2748 20.0074 23.2748C20.0043 23.2748 20.0013 23.2748 19.9982 23.2748C19.9951 23.2748 19.9921 23.2748 19.989 23.2748C19.986 23.2748 19.9829 23.2748 19.9799 23.2748C19.9768 23.2748 19.9738 23.2748 19.9707 23.2748C19.9677 23.2748 19.9646 23.2748 19.9616 23.2748C19.9586 23.2748 19.9555 23.2748 19.9525 23.2748C19.9495 23.2748 19.9465 23.2748 19.9434 23.2748C19.9404 23.2748 19.9374 23.2748 19.9344 23.2748C19.9314 23.2748 19.9284 23.2748 19.9254 23.2748C19.9224 23.2748 19.9194 23.2748 19.9164 23.2748C19.9134 23.2748 19.9104 23.2748 19.9074 23.2748C19.9044 23.2748 19.9014 23.2748 19.8984 23.2748C19.8955 23.2748 19.8925 23.2748 19.8895 23.2748C19.8865 23.2748 19.8836 23.2748 19.8806 23.2748C19.8776 23.2748 19.8747 23.2748 19.8717 23.2748C19.8688 23.2748 19.8658 23.2748 19.8629 23.2748C19.8599 23.2748 19.857 23.2748 19.854 23.2748C19.8511 23.2748 19.8482 23.2748 19.8452 23.2748C19.8423 23.2748 19.8394 23.2748 19.8364 23.2748C19.8335 23.2748 19.8306 23.2748 19.8277 23.2748C19.8248 23.2748 19.8219 23.2748 19.8189 23.2748C19.816 23.2748 19.8131 23.2748 19.8102 23.2748C19.8073 23.2748 19.8044 23.2748 19.8016 23.2748C19.7987 23.2748 19.7958 23.2748 19.7929 23.2748C19.79 23.2748 19.7871 23.2748 19.7843 23.2748C19.7814 23.2748 19.7785 23.2748 19.7757 23.2748C19.7728 23.2748 19.7699 23.2748 19.7671 23.2748C19.7642 23.2748 19.7614 23.2748 19.7585 23.2748C19.7557 23.2748 19.7528 23.2748 19.75 23.2748C19.7472 23.2748 19.7443 23.2748 19.7415 23.2748C19.7387 23.2748 19.7358 23.2748 19.733 23.2748C19.7302 23.2748 19.7274 23.2748 19.7246 23.2748C19.7217 23.2748 19.7189 23.2748 19.7161 23.2748C19.7133 23.2748 19.7105 23.2748 19.7077 23.2748C19.7049 23.2748 19.7022 23.2748 19.6994 23.2748C19.6966 23.2748 19.6938 23.2748 19.691 23.2748C19.6882 23.2748 19.6855 23.2748 19.6827 23.2748C19.6799 23.2748 19.6772 23.2748 19.6744 23.2748C19.6717 23.2748 19.6689 23.2748 19.6661 23.2748C19.6634 23.2748 19.6607 23.2748 19.6579 23.2748C19.6552 23.2748 19.6524 23.2748 19.6497 23.2748C19.647 23.2748 19.6442 23.2748 19.6415 23.2748C19.6388 23.2748 19.6361 23.2748 19.6334 23.2748C19.6307 23.2748 19.6279 23.2748 19.6252 23.2748C19.6225 23.2748 19.6198 23.2748 19.6171 23.2748C19.6144 23.2748 19.6118 23.2748 19.6091 23.2748C19.6064 23.2748 19.6037 23.2748 19.601 23.2748C19.5984 23.2748 19.5957 23.2748 19.593 23.2748C19.5903 23.2748 19.5877 23.2748 19.585 23.2748C19.5824 23.2748 19.5797 23.2748 19.5771 23.2748C19.5744 23.2748 19.5718 23.2748 19.5691 23.2748C19.5665 23.2748 19.5639 23.2748 19.5612 23.2748C19.5586 23.2748 19.556 23.2748 19.5534 23.2748C19.5508 23.2748 19.5481 23.2748 19.5455 23.2748C19.5429 23.2748 19.5403 23.2748 19.5377 23.2748C19.5351 23.2748 19.5325 23.2748 19.5299 23.2748C19.5273 23.2748 19.5248 23.2748 19.5222 23.2748C19.5196 23.2748 19.517 23.2748 19.5145 23.2748C19.5119 23.2748 19.5093 23.2748 19.5068 23.2748C19.5042 23.2748 19.5016 23.2748 19.4991 23.2748C19.4965 23.2748 19.494 23.2748 19.4915 23.2748C19.4889 23.2748 19.4864 23.2748 19.4839 23.2748C19.4813 23.2748 19.4788 23.2748 19.4763 23.2748C19.4738 23.2748 19.4712 23.2748 19.4687 23.2748C19.4662 23.2748 19.4637 23.2748 19.4612 23.2748C19.4587 23.2748 19.4562 23.2748 19.4537 23.2748C19.4513 23.2748 19.4488 23.2748 19.4463 23.2748C19.4438 23.2748 19.4413 23.2748 19.4389 23.2748C19.4364 23.2748 19.4339 23.2748 19.4315 23.2748C19.429 23.2748 19.4266 23.2748 19.4241 23.2748C19.4217 23.2748 19.4192 23.2748 19.4168 23.2748C19.4143 23.2748 19.4119 23.2748 19.4095 23.2748C19.4071 23.2748 19.4046 23.2748 19.4022 23.2748C19.3998 23.2748 19.3974 23.2748 19.395 23.2748C19.3926 23.2748 19.3902 23.2748 19.3878 23.2748C19.3854 23.2748 19.383 23.2748 19.3806 23.2748C19.3782 23.2748 19.3758 23.2748 19.3735 23.2748C19.3711 23.2748 19.3687 23.2748 19.3664 23.2748C19.364 23.2748 19.3616 23.2748 19.3593 23.2748C19.3569 23.2748 19.3546 23.2748 19.3522 23.2748C19.3499 23.2748 19.3476 23.2748 19.3452 23.2748C19.3429 23.2748 19.3406 23.2748 19.3382 23.2748C19.3359 23.2748 19.3336 23.2748 19.3313 23.2748C19.329 23.2748 19.3267 23.2748 19.3244 23.2748C19.3221 23.2748 19.3198 23.2748 19.3175 23.2748C19.3152 23.2748 19.3129 23.2748 19.3107 23.2748C19.3084 23.2748 19.3061 23.2748 19.3038 23.2748C19.3016 23.2748 19.2993 23.2748 19.2971 23.2748C19.2948 23.2748 19.2926 23.2748 19.2903 23.2748C19.2881 23.2748 19.2858 23.2748 19.2836 23.2748C19.2814 23.2748 19.2791 23.2748 19.2769 23.2748C19.2747 23.2748 19.2725 23.2748 19.2703 23.2748C19.2681 23.2748 19.2659 23.2748 19.2637 23.2748C19.2615 23.2748 19.2593 23.2748 19.2571 23.2748C19.2549 23.2748 19.2527 23.2748 19.2505 23.2748C19.2484 23.2748 19.2462 23.2748 19.244 23.2748C19.2419 23.2748 19.2397 23.2748 19.2375 23.2748C19.2354 23.2748 19.2332 23.2748 19.2311 23.2748C19.229 23.2748 19.2268 23.2748 19.2247 23.2748C19.2226 23.2748 19.2204 23.2748 19.2183 23.2748C19.2162 23.2748 19.2141 23.2748 19.212 23.2748C19.2099 23.2748 19.2078 23.2748 19.2057 23.2748C19.2036 23.2748 19.2015 23.2748 19.1994 23.2748C19.1973 23.2748 19.1952 23.2748 19.1932 23.2748C19.1911 23.2748 19.189 23.2748 19.187 23.2748C19.1849 23.2748 19.1829 23.2748 19.1808 23.2748C19.1788 23.2748 19.1767 23.2748 19.1747 23.2748C19.1727 23.2748 19.1706 23.2748 19.1686 23.2748C19.1666 23.2748 19.1646 23.2748 19.1625 23.2748C19.1605 23.2748 19.1585 23.2748 19.1565 23.2748C19.1545 23.2748 19.1525 23.2748 19.1505 23.2748C19.1486 23.2748 19.1466 23.2748 19.1446 23.2748C19.1426 23.2748 19.1406 23.2748 19.1387 23.2748C19.1367 23.2748 19.1348 23.2748 19.1328 23.2748C19.1309 23.2748 19.1289 23.2748 19.127 23.2748C19.125 23.2748 19.1231 23.2748 19.1212 23.2748C19.1192 23.2748 19.1173 23.2748 19.1154 23.2748C19.1135 23.2748 19.1116 23.2748 19.1097 23.2748C19.1078 23.2748 19.1059 23.2748 19.104 23.2748C19.1021 23.2748 19.1002 23.2748 19.0983 23.2748C19.0965 23.2748 19.0946 23.2748 19.0927 23.2748C19.0909 23.2748 19.089 23.2748 19.0871 23.2748C19.0853 23.2748 19.0834 23.2748 19.0816 23.2748C19.0798 23.2748 19.0779 23.2748 19.0761 23.2748C19.0743 23.2748 19.0724 23.2748 19.0706 23.2748C19.0688 23.2748 19.067 23.2748 19.0652 23.2748C19.0634 23.2748 19.0616 23.2748 19.0598 23.2748C19.058 23.2748 19.0562 23.2748 19.0545 23.2748C19.0527 23.2748 19.0509 23.2748 19.0492 23.2748C19.0474 23.2748 19.0456 23.2748 19.0439 23.2748C19.0421 23.2748 19.0404 23.2748 19.0386 23.2748C19.0369 23.2748 19.0352 23.2748 19.0334 23.2748C19.0317 23.2748 19.03 23.2748 19.0283 23.2748C19.0266 23.2748 19.0249 23.2748 19.0232 23.2748C19.0215 23.2748 19.0198 23.2748 19.0181 23.2748C19.0164 23.2748 19.0147 23.2748 19.013 23.2748C19.0114 23.2748 19.0097 23.2748 19.008 23.2748C19.0064 23.2748 19.0047 23.2748 19.0031 23.2748C19.0014 23.2748 18.9998 23.2748 18.9982 23.2748C18.9965 23.2748 18.9949 23.2748 18.9933 23.2748C18.9917 23.2748 18.99 23.2748 18.9884 23.2748C18.9868 23.2748 18.9852 23.2748 18.9836 23.2748C18.982 23.2748 18.9805 23.2748 18.9789 23.2748C18.9773 23.2748 18.9757 23.2748 18.9741 23.2748C18.9726 23.2748 18.971 23.2748 18.9695 23.2748C18.9679 23.2748 18.9664 23.2748 18.9648 23.2748C18.9633 23.2748 18.9617 23.2748 18.9602 23.2748C18.9587 23.2748 18.9572 23.2748 18.9557 23.2748C18.9541 23.2748 18.9526 23.2748 18.9511 23.2748C18.9496 23.2748 18.9481 23.2748 18.9467 23.2748C18.9452 23.2748 18.9437 23.2748 18.9422 23.2748C18.9407 23.2748 18.9393 23.2748 18.9378 23.2748C18.9364 23.2748 18.9349 23.2748 18.9335 23.2748C18.932 23.2748 18.9306 23.2748 18.9292 23.2748C18.9277 23.2748 18.9263 23.2748 18.9249 23.2748C18.9235 23.2748 18.9221 23.2748 18.9207 23.2748C18.9192 23.2748 18.9179 23.2748 18.9165 23.2748C18.9151 23.2748 18.9137 23.2748 18.9123 23.2748C18.9109 23.2748 18.9096 23.2748 18.9082 23.2748C18.9068 23.2748 18.9055 23.2748 18.9041 23.2748C18.9028 23.2748 18.9015 23.2748 18.9001 23.2748C18.8988 23.2748 18.8975 23.2748 18.8961 23.2748C18.8948 23.2748 18.8935 23.2748 18.8922 23.2748C18.8909 23.2748 18.8896 23.2748 18.8883 23.2748C18.887 23.2748 18.8857 23.2748 18.8845 23.2748C18.8832 23.2748 18.8819 23.2748 18.8807 23.2748C18.8794 23.2748 18.8781 23.2748 18.8769 23.2748C18.8756 23.2748 18.8744 23.2748 18.8732 23.2748C18.8719 23.2748 18.8707 23.2748 18.8695 23.2748C18.8683 23.2748 18.8671 23.2748 18.8659 23.2748C18.8647 23.2748 18.8635 23.2748 18.8623 23.2748C18.8611 23.2748 18.8599 23.2748 18.8587 23.2748C18.8575 23.2748 18.8564 23.2748 18.8552 23.2748C18.8541 23.2748 18.8529 23.2748 18.8518 23.2748C18.8506 23.2748 18.8495 23.2748 18.8483 23.2748C18.8472 23.2748 18.8461 23.2748 18.845 23.2748C18.8439 23.2748 18.8427 23.2748 18.8416 23.2748C18.8405 23.2748 18.8394 23.2748 18.8384 23.2748C18.8373 23.2748 18.8362 23.2748 18.8351 23.2748C18.834 23.2748 18.833 23.2748 18.8319 23.2748C18.8309 23.2748 18.8298 23.2748 18.8288 23.2748C18.8277 23.2748 18.8267 23.2748 18.8257 23.2748C18.8246 23.2748 18.8236 23.2748 18.8226 23.2748C18.8216 23.2748 18.8206 23.2748 18.8196 23.2748C18.8186 23.2748 18.8176 23.2748 18.8166 23.2748C18.8156 23.2748 18.8147 23.2748 18.8137 23.2748C18.8127 23.2748 18.8118 23.2748 18.8108 23.2748C18.8099 23.2748 18.8089 23.2748 18.808 23.2748C18.8071 23.2748 18.8061 23.2748 18.8052 23.2748C18.8043 23.2748 18.8034 23.2748 18.8025 23.2748C18.8016 23.2748 18.8007 23.2748 18.7998 23.2748C18.7989 23.2748 18.798 23.2748 18.7971 23.2748C18.7962 23.2748 18.7954 23.2748 18.7945 23.2748C18.7937 23.2748 18.7928 23.2748 18.792 23.2748C18.7911 23.2748 18.7903 23.2748 18.7895 23.2748C18.7886 23.2748 18.7878 23.2748 18.787 23.2748C18.7862 23.2748 18.7854 23.2748 18.7846 23.2748C18.7838 23.2748 18.783 23.2748 18.7822 23.2748C18.7814 23.2748 18.7806 23.2748 18.7799 23.2748C18.7791 23.2748 18.7784 23.2748 18.7776 23.2748C18.7769 23.2748 18.7761 23.2748 18.7754 23.2748C18.7746 23.2748 18.7739 23.2748 18.7732 23.2748C18.7725 23.2748 18.7718 23.2748 18.7711 23.2748C18.7704 23.2748 18.7697 23.2748 18.769 23.2748C18.7683 23.2748 18.7676 23.2748 18.7669 23.2748C18.7663 23.2748 18.7656 23.2748 18.765 23.2748C18.7643 23.2748 18.7636 23.2748 18.763 23.2748C18.7624 23.2748 18.7617 23.2748 18.7611 23.2748C18.7605 23.2748 18.7599 23.2748 18.7593 23.2748C18.7587 23.2748 18.7581 23.2748 18.7575 23.2748C18.7569 23.2748 18.7563 23.2748 18.7557 23.2748C18.7551 23.2748 18.7546 23.2748 18.754 23.2748C18.7535 23.2748 18.7529 23.2748 18.7524 23.2748C18.7518 23.2748 18.7513 23.2748 18.7508 23.2748C18.7502 23.2748 18.7497 23.2748 18.7492 23.2748C18.7487 23.2748 18.7482 23.2748 18.7477 23.2748C18.7472 23.2748 18.7467 23.2748 18.7463 23.2748C18.7458 23.2748 18.7453 23.2748 18.7449 23.2748C18.7444 23.2748 18.7439 23.2748 18.7435 23.2748C18.7431 23.2748 18.7426 23.2748 18.7422 23.2748C18.7418 23.2748 18.7413 23.2748 18.7409 23.2748C18.7405 23.2748 18.7401 23.2748 18.7397 23.2748C18.7393 23.2748 18.7389 23.2748 18.7386 23.2748C18.7382 23.2748 18.7378 23.2748 18.7375 23.2748C18.7371 23.2748 18.7367 23.2748 18.7364 23.2748C18.7361 23.2748 18.7357 23.2748 18.7354 23.2748C18.7351 23.2748 18.7347 23.2748 18.7344 23.2748C18.7341 23.2748 18.7338 23.2748 18.7335 23.2748C18.7332 23.2748 18.733 23.2748 18.7327 23.2748C18.7324 23.2748 18.7321 23.2748 18.7319 23.2748C18.7316 23.2748 18.7314 23.2748 18.7311 23.2748C18.7309 23.2748 18.7306 23.2748 18.7304 23.2748C18.7302 23.2748 18.73 23.2748 18.7298 23.2748C18.7296 23.2748 18.7294 23.2748 18.7292 23.2748C18.729 23.2748 18.7288 23.2748 18.7286 23.2748C18.7284 23.2748 18.7283 23.2748 18.7281 23.2748C18.728 23.2748 18.7278 23.2748 18.7277 23.2748C18.7275 23.2748 18.7274 23.2748 18.7273 23.2748C18.7272 23.2748 18.7271 23.2748 18.7269 23.2748C18.7268 23.2748 18.7267 23.2748 18.7267 23.2748C18.7266 23.2748 18.7265 23.2748 18.7264 23.2748C18.7264 23.2748 18.7263 23.2748 18.7262 23.2748C18.7262 23.2748 18.7261 23.2748 18.7261 23.2748C18.7261 23.2748 18.726 23.2748 18.726 23.2748C18.726 23.2748 18.726 23.2748 18.726 23.7748C18.726 24.2748 18.726 24.2748 18.726 24.2748C18.726 24.2748 18.7261 24.2748 18.7261 24.2748C18.7261 24.2748 18.7262 24.2748 18.7262 24.2748C18.7263 24.2748 18.7264 24.2748 18.7264 24.2748C18.7265 24.2748 18.7266 24.2748 18.7267 24.2748C18.7267 24.2748 18.7268 24.2748 18.7269 24.2748C18.7271 24.2748 18.7272 24.2748 18.7273 24.2748C18.7274 24.2748 18.7275 24.2748 18.7277 24.2748C18.7278 24.2748 18.728 24.2748 18.7281 24.2748C18.7283 24.2748 18.7284 24.2748 18.7286 24.2748C18.7288 24.2748 18.729 24.2748 18.7292 24.2748C18.7294 24.2748 18.7296 24.2748 18.7298 24.2748C18.73 24.2748 18.7302 24.2748 18.7304 24.2748C18.7306 24.2748 18.7309 24.2748 18.7311 24.2748C18.7314 24.2748 18.7316 24.2748 18.7319 24.2748C18.7321 24.2748 18.7324 24.2748 18.7327 24.2748C18.733 24.2748 18.7332 24.2748 18.7335 24.2748C18.7338 24.2748 18.7341 24.2748 18.7344 24.2748C18.7347 24.2748 18.7351 24.2748 18.7354 24.2748C18.7357 24.2748 18.7361 24.2748 18.7364 24.2748C18.7367 24.2748 18.7371 24.2748 18.7375 24.2748C18.7378 24.2748 18.7382 24.2748 18.7386 24.2748C18.7389 24.2748 18.7393 24.2748 18.7397 24.2748C18.7401 24.2748 18.7405 24.2748 18.7409 24.2748C18.7413 24.2748 18.7418 24.2748 18.7422 24.2748C18.7426 24.2748 18.7431 24.2748 18.7435 24.2748C18.7439 24.2748 18.7444 24.2748 18.7449 24.2748C18.7453 24.2748 18.7458 24.2748 18.7463 24.2748C18.7467 24.2748 18.7472 24.2748 18.7477 24.2748C18.7482 24.2748 18.7487 24.2748 18.7492 24.2748C18.7497 24.2748 18.7502 24.2748 18.7508 24.2748C18.7513 24.2748 18.7518 24.2748 18.7524 24.2748C18.7529 24.2748 18.7535 24.2748 18.754 24.2748C18.7546 24.2748 18.7551 24.2748 18.7557 24.2748C18.7563 24.2748 18.7569 24.2748 18.7575 24.2748C18.7581 24.2748 18.7587 24.2748 18.7593 24.2748C18.7599 24.2748 18.7605 24.2748 18.7611 24.2748C18.7617 24.2748 18.7624 24.2748 18.763 24.2748C18.7636 24.2748 18.7643 24.2748 18.765 24.2748C18.7656 24.2748 18.7663 24.2748 18.7669 24.2748C18.7676 24.2748 18.7683 24.2748 18.769 24.2748C18.7697 24.2748 18.7704 24.2748 18.7711 24.2748C18.7718 24.2748 18.7725 24.2748 18.7732 24.2748C18.7739 24.2748 18.7746 24.2748 18.7754 24.2748C18.7761 24.2748 18.7769 24.2748 18.7776 24.2748C18.7784 24.2748 18.7791 24.2748 18.7799 24.2748C18.7806 24.2748 18.7814 24.2748 18.7822 24.2748C18.783 24.2748 18.7838 24.2748 18.7846 24.2748C18.7854 24.2748 18.7862 24.2748 18.787 24.2748C18.7878 24.2748 18.7886 24.2748 18.7895 24.2748C18.7903 24.2748 18.7911 24.2748 18.792 24.2748C18.7928 24.2748 18.7937 24.2748 18.7945 24.2748C18.7954 24.2748 18.7962 24.2748 18.7971 24.2748C18.798 24.2748 18.7989 24.2748 18.7998 24.2748C18.8007 24.2748 18.8016 24.2748 18.8025 24.2748C18.8034 24.2748 18.8043 24.2748 18.8052 24.2748C18.8061 24.2748 18.8071 24.2748 18.808 24.2748C18.8089 24.2748 18.8099 24.2748 18.8108 24.2748C18.8118 24.2748 18.8127 24.2748 18.8137 24.2748C18.8147 24.2748 18.8156 24.2748 18.8166 24.2748C18.8176 24.2748 18.8186 24.2748 18.8196 24.2748C18.8206 24.2748 18.8216 24.2748 18.8226 24.2748C18.8236 24.2748 18.8246 24.2748 18.8257 24.2748C18.8267 24.2748 18.8277 24.2748 18.8288 24.2748C18.8298 24.2748 18.8309 24.2748 18.8319 24.2748C18.833 24.2748 18.834 24.2748 18.8351 24.2748C18.8362 24.2748 18.8373 24.2748 18.8384 24.2748C18.8394 24.2748 18.8405 24.2748 18.8416 24.2748C18.8427 24.2748 18.8439 24.2748 18.845 24.2748C18.8461 24.2748 18.8472 24.2748 18.8483 24.2748C18.8495 24.2748 18.8506 24.2748 18.8518 24.2748C18.8529 24.2748 18.8541 24.2748 18.8552 24.2748C18.8564 24.2748 18.8575 24.2748 18.8587 24.2748C18.8599 24.2748 18.8611 24.2748 18.8623 24.2748C18.8635 24.2748 18.8647 24.2748 18.8659 24.2748C18.8671 24.2748 18.8683 24.2748 18.8695 24.2748C18.8707 24.2748 18.8719 24.2748 18.8732 24.2748C18.8744 24.2748 18.8756 24.2748 18.8769 24.2748C18.8781 24.2748 18.8794 24.2748 18.8807 24.2748C18.8819 24.2748 18.8832 24.2748 18.8845 24.2748C18.8857 24.2748 18.887 24.2748 18.8883 24.2748C18.8896 24.2748 18.8909 24.2748 18.8922 24.2748C18.8935 24.2748 18.8948 24.2748 18.8961 24.2748C18.8975 24.2748 18.8988 24.2748 18.9001 24.2748C18.9015 24.2748 18.9028 24.2748 18.9041 24.2748C18.9055 24.2748 18.9068 24.2748 18.9082 24.2748C18.9096 24.2748 18.9109 24.2748 18.9123 24.2748C18.9137 24.2748 18.9151 24.2748 18.9165 24.2748C18.9179 24.2748 18.9192 24.2748 18.9207 24.2748C18.9221 24.2748 18.9235 24.2748 18.9249 24.2748C18.9263 24.2748 18.9277 24.2748 18.9292 24.2748C18.9306 24.2748 18.932 24.2748 18.9335 24.2748C18.9349 24.2748 18.9364 24.2748 18.9378 24.2748C18.9393 24.2748 18.9407 24.2748 18.9422 24.2748C18.9437 24.2748 18.9452 24.2748 18.9467 24.2748C18.9481 24.2748 18.9496 24.2748 18.9511 24.2748C18.9526 24.2748 18.9541 24.2748 18.9557 24.2748C18.9572 24.2748 18.9587 24.2748 18.9602 24.2748C18.9617 24.2748 18.9633 24.2748 18.9648 24.2748C18.9664 24.2748 18.9679 24.2748 18.9695 24.2748C18.971 24.2748 18.9726 24.2748 18.9741 24.2748C18.9757 24.2748 18.9773 24.2748 18.9789 24.2748C18.9805 24.2748 18.982 24.2748 18.9836 24.2748C18.9852 24.2748 18.9868 24.2748 18.9884 24.2748C18.99 24.2748 18.9917 24.2748 18.9933 24.2748C18.9949 24.2748 18.9965 24.2748 18.9982 24.2748C18.9998 24.2748 19.0014 24.2748 19.0031 24.2748C19.0047 24.2748 19.0064 24.2748 19.008 24.2748C19.0097 24.2748 19.0114 24.2748 19.013 24.2748C19.0147 24.2748 19.0164 24.2748 19.0181 24.2748C19.0198 24.2748 19.0215 24.2748 19.0232 24.2748C19.0249 24.2748 19.0266 24.2748 19.0283 24.2748C19.03 24.2748 19.0317 24.2748 19.0334 24.2748C19.0352 24.2748 19.0369 24.2748 19.0386 24.2748C19.0404 24.2748 19.0421 24.2748 19.0439 24.2748C19.0456 24.2748 19.0474 24.2748 19.0492 24.2748C19.0509 24.2748 19.0527 24.2748 19.0545 24.2748C19.0562 24.2748 19.058 24.2748 19.0598 24.2748C19.0616 24.2748 19.0634 24.2748 19.0652 24.2748C19.067 24.2748 19.0688 24.2748 19.0706 24.2748C19.0724 24.2748 19.0743 24.2748 19.0761 24.2748C19.0779 24.2748 19.0798 24.2748 19.0816 24.2748C19.0834 24.2748 19.0853 24.2748 19.0871 24.2748C19.089 24.2748 19.0909 24.2748 19.0927 24.2748C19.0946 24.2748 19.0965 24.2748 19.0983 24.2748C19.1002 24.2748 19.1021 24.2748 19.104 24.2748C19.1059 24.2748 19.1078 24.2748 19.1097 24.2748C19.1116 24.2748 19.1135 24.2748 19.1154 24.2748C19.1173 24.2748 19.1192 24.2748 19.1212 24.2748C19.1231 24.2748 19.125 24.2748 19.127 24.2748C19.1289 24.2748 19.1309 24.2748 19.1328 24.2748C19.1348 24.2748 19.1367 24.2748 19.1387 24.2748C19.1406 24.2748 19.1426 24.2748 19.1446 24.2748C19.1466 24.2748 19.1486 24.2748 19.1505 24.2748C19.1525 24.2748 19.1545 24.2748 19.1565 24.2748C19.1585 24.2748 19.1605 24.2748 19.1625 24.2748C19.1646 24.2748 19.1666 24.2748 19.1686 24.2748C19.1706 24.2748 19.1727 24.2748 19.1747 24.2748C19.1767 24.2748 19.1788 24.2748 19.1808 24.2748C19.1829 24.2748 19.1849 24.2748 19.187 24.2748C19.189 24.2748 19.1911 24.2748 19.1932 24.2748C19.1952 24.2748 19.1973 24.2748 19.1994 24.2748C19.2015 24.2748 19.2036 24.2748 19.2057 24.2748C19.2078 24.2748 19.2099 24.2748 19.212 24.2748C19.2141 24.2748 19.2162 24.2748 19.2183 24.2748C19.2204 24.2748 19.2226 24.2748 19.2247 24.2748C19.2268 24.2748 19.229 24.2748 19.2311 24.2748C19.2332 24.2748 19.2354 24.2748 19.2375 24.2748C19.2397 24.2748 19.2419 24.2748 19.244 24.2748C19.2462 24.2748 19.2484 24.2748 19.2505 24.2748C19.2527 24.2748 19.2549 24.2748 19.2571 24.2748C19.2593 24.2748 19.2615 24.2748 19.2637 24.2748C19.2659 24.2748 19.2681 24.2748 19.2703 24.2748C19.2725 24.2748 19.2747 24.2748 19.2769 24.2748C19.2791 24.2748 19.2814 24.2748 19.2836 24.2748C19.2858 24.2748 19.2881 24.2748 19.2903 24.2748C19.2926 24.2748 19.2948 24.2748 19.2971 24.2748C19.2993 24.2748 19.3016 24.2748 19.3038 24.2748C19.3061 24.2748 19.3084 24.2748 19.3107 24.2748C19.3129 24.2748 19.3152 24.2748 19.3175 24.2748C19.3198 24.2748 19.3221 24.2748 19.3244 24.2748C19.3267 24.2748 19.329 24.2748 19.3313 24.2748C19.3336 24.2748 19.3359 24.2748 19.3382 24.2748C19.3406 24.2748 19.3429 24.2748 19.3452 24.2748C19.3476 24.2748 19.3499 24.2748 19.3522 24.2748C19.3546 24.2748 19.3569 24.2748 19.3593 24.2748C19.3616 24.2748 19.364 24.2748 19.3664 24.2748C19.3687 24.2748 19.3711 24.2748 19.3735 24.2748C19.3758 24.2748 19.3782 24.2748 19.3806 24.2748C19.383 24.2748 19.3854 24.2748 19.3878 24.2748C19.3902 24.2748 19.3926 24.2748 19.395 24.2748C19.3974 24.2748 19.3998 24.2748 19.4022 24.2748C19.4046 24.2748 19.4071 24.2748 19.4095 24.2748C19.4119 24.2748 19.4143 24.2748 19.4168 24.2748C19.4192 24.2748 19.4217 24.2748 19.4241 24.2748C19.4266 24.2748 19.429 24.2748 19.4315 24.2748C19.4339 24.2748 19.4364 24.2748 19.4389 24.2748C19.4413 24.2748 19.4438 24.2748 19.4463 24.2748C19.4488 24.2748 19.4513 24.2748 19.4537 24.2748C19.4562 24.2748 19.4587 24.2748 19.4612 24.2748C19.4637 24.2748 19.4662 24.2748 19.4687 24.2748C19.4712 24.2748 19.4738 24.2748 19.4763 24.2748C19.4788 24.2748 19.4813 24.2748 19.4839 24.2748C19.4864 24.2748 19.4889 24.2748 19.4915 24.2748C19.494 24.2748 19.4965 24.2748 19.4991 24.2748C19.5016 24.2748 19.5042 24.2748 19.5068 24.2748C19.5093 24.2748 19.5119 24.2748 19.5145 24.2748C19.517 24.2748 19.5196 24.2748 19.5222 24.2748C19.5248 24.2748 19.5273 24.2748 19.5299 24.2748C19.5325 24.2748 19.5351 24.2748 19.5377 24.2748C19.5403 24.2748 19.5429 24.2748 19.5455 24.2748C19.5481 24.2748 19.5508 24.2748 19.5534 24.2748C19.556 24.2748 19.5586 24.2748 19.5612 24.2748C19.5639 24.2748 19.5665 24.2748 19.5691 24.2748C19.5718 24.2748 19.5744 24.2748 19.5771 24.2748C19.5797 24.2748 19.5824 24.2748 19.585 24.2748C19.5877 24.2748 19.5903 24.2748 19.593 24.2748C19.5957 24.2748 19.5984 24.2748 19.601 24.2748C19.6037 24.2748 19.6064 24.2748 19.6091 24.2748C19.6118 24.2748 19.6144 24.2748 19.6171 24.2748C19.6198 24.2748 19.6225 24.2748 19.6252 24.2748C19.6279 24.2748 19.6307 24.2748 19.6334 24.2748C19.6361 24.2748 19.6388 24.2748 19.6415 24.2748C19.6442 24.2748 19.647 24.2748 19.6497 24.2748C19.6524 24.2748 19.6552 24.2748 19.6579 24.2748C19.6607 24.2748 19.6634 24.2748 19.6661 24.2748C19.6689 24.2748 19.6717 24.2748 19.6744 24.2748C19.6772 24.2748 19.6799 24.2748 19.6827 24.2748C19.6855 24.2748 19.6882 24.2748 19.691 24.2748C19.6938 24.2748 19.6966 24.2748 19.6994 24.2748C19.7022 24.2748 19.7049 24.2748 19.7077 24.2748C19.7105 24.2748 19.7133 24.2748 19.7161 24.2748C19.7189 24.2748 19.7217 24.2748 19.7246 24.2748C19.7274 24.2748 19.7302 24.2748 19.733 24.2748C19.7358 24.2748 19.7387 24.2748 19.7415 24.2748C19.7443 24.2748 19.7472 24.2748 19.75 24.2748C19.7528 24.2748 19.7557 24.2748 19.7585 24.2748C19.7614 24.2748 19.7642 24.2748 19.7671 24.2748C19.7699 24.2748 19.7728 24.2748 19.7757 24.2748C19.7785 24.2748 19.7814 24.2748 19.7843 24.2748C19.7871 24.2748 19.79 24.2748 19.7929 24.2748C19.7958 24.2748 19.7987 24.2748 19.8016 24.2748C19.8044 24.2748 19.8073 24.2748 19.8102 24.2748C19.8131 24.2748 19.816 24.2748 19.8189 24.2748C19.8219 24.2748 19.8248 24.2748 19.8277 24.2748C19.8306 24.2748 19.8335 24.2748 19.8364 24.2748C19.8394 24.2748 19.8423 24.2748 19.8452 24.2748C19.8482 24.2748 19.8511 24.2748 19.854 24.2748C19.857 24.2748 19.8599 24.2748 19.8629 24.2748C19.8658 24.2748 19.8688 24.2748 19.8717 24.2748C19.8747 24.2748 19.8776 24.2748 19.8806 24.2748C19.8836 24.2748 19.8865 24.2748 19.8895 24.2748C19.8925 24.2748 19.8955 24.2748 19.8984 24.2748C19.9014 24.2748 19.9044 24.2748 19.9074 24.2748C19.9104 24.2748 19.9134 24.2748 19.9164 24.2748C19.9194 24.2748 19.9224 24.2748 19.9254 24.2748C19.9284 24.2748 19.9314 24.2748 19.9344 24.2748C19.9374 24.2748 19.9404 24.2748 19.9434 24.2748C19.9465 24.2748 19.9495 24.2748 19.9525 24.2748C19.9555 24.2748 19.9586 24.2748 19.9616 24.2748C19.9646 24.2748 19.9677 24.2748 19.9707 24.2748C19.9738 24.2748 19.9768 24.2748 19.9799 24.2748C19.9829 24.2748 19.986 24.2748 19.989 24.2748C19.9921 24.2748 19.9951 24.2748 19.9982 24.2748C20.0013 24.2748 20.0043 24.2748 20.0074 24.2748C20.0105 24.2748 20.0136 24.2748 20.0166 24.2748C20.0197 24.2748 20.0228 24.2748 20.0259 24.2748C20.029 24.2748 20.0321 24.2748 20.0352 24.2748C20.0383 24.2748 20.0414 24.2748 20.0445 24.2748C20.0476 24.2748 20.0507 24.2748 20.0538 24.2748C20.0569 24.2748 20.06 24.2748 20.0631 24.2748C20.0662 24.2748 20.0694 24.2748 20.0725 24.2748C20.0756 24.2748 20.0787 24.2748 20.0819 24.2748C20.085 24.2748 20.0881 24.2748 20.0913 24.2748C20.0944 24.2748 20.0976 24.2748 20.1007 24.2748C20.1039 24.2748 20.107 24.2748 20.1102 24.2748C20.1133 24.2748 20.1165 24.2748 20.1196 24.2748C20.1228 24.2748 20.126 24.2748 20.1291 24.2748C20.1323 24.2748 20.1355 24.2748 20.1386 24.2748C20.1418 24.2748 20.145 24.2748 20.1482 24.2748C20.1513 24.2748 20.1545 24.2748 20.1577 24.2748C20.1609 24.2748 20.1641 24.2748 20.1673 24.2748C20.1705 24.2748 20.1737 24.2748 20.1769 24.2748C20.1801 24.2748 20.1833 24.2748 20.1865 24.2748C20.1897 24.2748 20.1929 24.2748 20.1961 24.2748C20.1993 24.2748 20.2026 24.2748 20.2058 24.2748C20.209 24.2748 20.2122 24.2748 20.2155 24.2748C20.2187 24.2748 20.2219 24.2748 20.2251 24.2748C20.2284 24.2748 20.2316 24.2748 20.2349 24.2748C20.2381 24.2748 20.2413 24.2748 20.2446 24.2748C20.2478 24.2748 20.2511 24.2748 20.2543 24.2748C20.2576 24.2748 20.2608 24.2748 20.2641 24.2748C20.2674 24.2748 20.2706 24.2748 20.2739 24.2748C20.2772 24.2748 20.2804 24.2748 20.2837 24.2748C20.287 24.2748 20.2903 24.2748 20.2935 24.2748C20.2968 24.2748 20.3001 24.2748 20.3034 24.2748C20.3067 24.2748 20.31 24.2748 20.3132 24.2748C20.3165 24.2748 20.3198 24.2748 20.3231 24.2748C20.3264 24.2748 20.3297 24.2748 20.333 24.2748C20.3363 24.2748 20.3396 24.2748 20.3429 24.2748C20.3463 24.2748 20.3496 24.2748 20.3529 24.2748C20.3562 24.2748 20.3595 24.2748 20.3628 24.2748C20.3662 24.2748 20.3695 24.2748 20.3728 24.2748C20.3761 24.2748 20.3795 24.2748 20.3828 24.2748C20.3861 24.2748 20.3895 24.2748 20.3928 24.2748C20.3962 24.2748 20.3995 24.2748 20.4028 24.2748C20.4062 24.2748 20.4095 24.2748 20.4129 24.2748C20.4162 24.2748 20.4196 24.2748 20.4229 24.2748C20.4263 24.2748 20.4297 24.2748 20.433 24.2748C20.4364 24.2748 20.4397 24.2748 20.4431 24.2748C20.4465 24.2748 20.4499 24.2748 20.4532 24.2748C20.4566 24.2748 20.46 24.2748 20.4634 24.2748C20.4667 24.2748 20.4701 24.2748 20.4735 24.2748C20.4769 24.2748 20.4803 24.2748 20.4837 24.2748C20.4871 24.2748 20.4904 24.2748 20.4938 24.2748C20.4972 24.2748 20.5006 24.2748 20.504 24.2748C20.5074 24.2748 20.5108 24.2748 20.5142 24.2748C20.5177 24.2748 20.5211 24.2748 20.5245 24.2748C20.5279 24.2748 20.5313 24.2748 20.5347 24.2748C20.5381 24.2748 20.5415 24.2748 20.545 24.2748C20.5484 24.2748 20.5518 24.2748 20.5552 24.2748C20.5587 24.2748 20.5621 24.2748 20.5655 24.2748C20.569 24.2748 20.5724 24.2748 20.5758 24.2748C20.5793 24.2748 20.5827 24.2748 20.5862 24.2748C20.5896 24.2748 20.593 24.2748 20.5965 24.2748C20.5999 24.2748 20.6034 24.2748 20.6068 24.2748C20.6103 24.2748 20.6137 24.2748 20.6172 24.2748C20.6207 24.2748 20.6241 24.2748 20.6276 24.2748C20.631 24.2748 20.6345 24.2748 20.638 24.2748C20.6414 24.2748 20.6449 24.2748 20.6484 24.2748C20.6519 24.2748 20.6553 24.2748 20.6588 24.2748C20.6623 24.2748 20.6658 24.2748 20.6692 24.2748C20.6727 24.2748 20.6762 24.2748 20.6797 24.2748C20.6832 24.2748 20.6867 24.2748 20.6902 24.2748C20.6937 24.2748 20.6971 24.2748 20.7006 24.2748C20.7041 24.2748 20.7076 24.2748 20.7111 24.2748C20.7146 24.2748 20.7181 24.2748 20.7216 24.2748C20.7251 24.2748 20.7286 24.2748 20.7322 24.2748C20.7357 24.2748 20.7392 24.2748 20.7427 24.2748C20.7462 24.2748 20.7497 24.2748 20.7532 24.2748C20.7568 24.2748 20.7603 24.2748 20.7638 24.2748C20.7673 24.2748 20.7708 24.2748 20.7744 24.2748C20.7779 24.2748 20.7814 24.2748 20.785 24.2748C20.7885 24.2748 20.792 24.2748 20.7956 24.2748C20.7991 24.2748 20.8026 24.2748 20.8062 24.2748C20.8097 24.2748 20.8132 24.2748 20.8168 24.2748C20.8203 24.2748 20.8239 24.2748 20.8274 24.2748C20.831 24.2748 20.8345 24.2748 20.8381 24.2748C20.8416 24.2748 20.8452 24.2748 20.8487 24.2748C20.8523 24.2748 20.8558 24.2748 20.8594 24.2748C20.863 24.2748 20.8665 24.2748 20.8701 24.2748C20.8736 24.2748 20.8772 24.2748 20.8808 24.2748C20.8843 24.2748 20.8879 24.2748 20.8915 24.2748C20.8951 24.2748 20.8986 24.2748 20.9022 24.2748C20.9058 24.2748 20.9094 24.2748 20.9129 24.2748C20.9165 24.2748 20.9201 24.2748 20.9237 24.2748C20.9273 24.2748 20.9308 24.2748 20.9344 24.2748C20.938 24.2748 20.9416 24.2748 20.9452 24.2748C20.9488 24.2748 20.9524 24.2748 20.956 24.2748C20.9596 24.2748 20.9632 24.2748 20.9668 24.2748C20.9704 24.2748 20.9739 24.2748 20.9775 24.2748C20.9812 24.2748 20.9848 24.2748 20.9884 24.2748C20.992 24.2748 20.9956 24.2748 20.9992 24.2748C21.0028 24.2748 21.0064 24.2748 21.01 24.2748C21.0136 24.2748 21.0172 24.2748 21.0208 24.2748C21.0245 24.2748 21.0281 24.2748 21.0317 24.2748C21.0353 24.2748 21.0389 24.2748 21.0425 24.2748C21.0462 24.2748 21.0498 24.2748 21.0534 24.2748C21.057 24.2748 21.0607 24.2748 21.0643 24.2748C21.0679 24.2748 21.0715 24.2748 21.0752 24.2748C21.0788 24.2748 21.0824 24.2748 21.0861 24.2748C21.0897 24.2748 21.0933 24.2748 21.097 24.2748C21.1006 24.2748 21.1042 24.2748 21.1079 24.2748C21.1115 24.2748 21.1152 24.2748 21.1188 24.2748C21.1225 24.2748 21.1261 24.2748 21.1297 24.2748C21.1334 24.2748 21.137 24.2748 21.1407 24.2748C21.1443 24.2748 21.148 24.2748 21.1516 24.2748C21.1553 24.2748 21.1589 24.2748 21.1626 24.2748C21.1662 24.2748 21.1699 24.2748 21.1736 24.2748C21.1772 24.2748 21.1809 24.2748 21.1845 24.2748C21.1882 24.2748 21.1919 24.2748 21.1955 24.2748C21.1992 24.2748 21.2028 24.2748 21.2065 24.2748C21.2102 24.2748 21.2138 24.2748 21.2175 24.2748C21.2212 24.2748 21.2248 24.2748 21.2285 24.2748C21.2322 24.2748 21.2359 24.2748 21.2395 24.2748C21.2432 24.2748 21.2469 24.2748 21.2505 24.2748C21.2542 24.2748 21.2579 24.2748 21.2616 24.2748C21.2653 24.2748 21.2689 24.2748 21.2726 24.2748C21.2763 24.2748 21.28 24.2748 21.2837 24.2748C21.2873 24.2748 21.291 24.2748 21.2947 24.2748C21.2984 24.2748 21.3021 24.2748 21.3058 24.2748C21.3094 24.2748 21.3131 24.2748 21.3168 24.2748C21.3205 24.2748 21.3242 24.2748 21.3279 24.2748C21.3316 24.2748 21.3353 24.2748 21.339 24.2748C21.3427 24.2748 21.3464 24.2748 21.3501 24.2748C21.3538 24.2748 21.3575 24.2748 21.3611 24.2748C21.3648 24.2748 21.3685 24.2748 21.3722 24.2748C21.3759 24.2748 21.3796 24.2748 21.3833 24.2748C21.3871 24.2748 21.3908 24.2748 21.3945 24.2748C21.3982 24.2748 21.4019 24.2748 21.4056 24.2748C21.4093 24.2748 21.413 24.2748 21.4167 24.2748C21.4204 24.2748 21.4241 24.2748 21.4278 24.2748C21.4315 24.2748 21.4352 24.2748 21.4389 24.2748C21.4427 24.2748 21.4464 24.2748 21.4501 24.2748C21.4538 24.2748 21.4575 24.2748 21.4612 24.2748C21.4649 24.2748 21.4687 24.2748 21.4724 24.2748C21.4761 24.2748 21.4798 24.2748 21.4835 24.2748C21.4872 24.2748 21.491 24.2748 21.4947 24.2748C21.4984 24.2748 21.5021 24.2748 21.5058 24.2748C21.5096 24.2748 21.5133 24.2748 21.517 24.2748C21.5207 24.2748 21.5245 24.2748 21.5282 24.2748C21.5319 24.2748 21.5356 24.2748 21.5394 24.2748C21.5431 24.2748 21.5468 24.2748 21.5505 24.2748C21.5543 24.2748 21.558 24.2748 21.5617 24.2748C21.5654 24.2748 21.5692 24.2748 21.5729 24.2748C21.5766 24.2748 21.5804 24.2748 21.5841 24.2748C21.5878 24.2748 21.5916 24.2748 21.5953 24.2748C21.599 24.2748 21.6027 24.2748 21.6065 24.2748C21.6102 24.2748 21.6139 24.2748 21.6177 24.2748C21.6214 24.2748 21.6252 24.2748 21.6289 24.2748C21.6326 24.2748 21.6364 24.2748 21.6401 24.2748C21.6438 24.2748 21.6476 24.2748 21.6513 24.2748C21.655 24.2748 21.6588 24.2748 21.6625 24.2748C21.6663 24.2748 21.67 24.2748 21.6737 24.2748C21.6775 24.2748 21.6812 24.2748 21.685 24.2748C21.6887 24.2748 21.6924 24.2748 21.6962 24.2748C21.6999 24.2748 21.7037 24.2748 21.7074 24.2748C21.7111 24.2748 21.7149 24.2748 21.7186 24.2748C21.7224 24.2748 21.7261 24.2748 21.7299 24.2748C21.7336 24.2748 21.7373 24.2748 21.7411 24.2748C21.7448 24.2748 21.7486 24.2748 21.7523 24.2748C21.7561 24.2748 21.7598 24.2748 21.7636 24.2748C21.7673 24.2748 21.771 24.2748 21.7748 24.2748C21.7785 24.2748 21.7823 24.2748 21.786 24.2748C21.7898 24.2748 21.7935 24.2748 21.7973 24.2748C21.801 24.2748 21.8048 24.2748 21.8085 24.2748C21.8123 24.2748 21.816 24.2748 21.8198 24.2748C21.8235 24.2748 21.8272 24.2748 21.831 24.2748C21.8347 24.2748 21.8385 24.2748 21.8422 24.2748C21.846 24.2748 21.8497 24.2748 21.8535 24.2748C21.8572 24.2748 21.861 24.2748 21.8647 24.2748C21.8685 24.2748 21.8722 24.2748 21.876 24.2748C21.8797 24.2748 21.8835 24.2748 21.8872 24.2748C21.891 24.2748 21.8947 24.2748 21.8985 24.2748C21.9022 24.2748 21.906 24.2748 21.9097 24.2748C21.9135 24.2748 21.9172 24.2748 21.921 24.2748C21.9247 24.2748 21.9285 24.2748 21.9322 24.2748C21.936 24.2748 21.9397 24.2748 21.9435 24.2748C21.9472 24.2748 21.951 24.2748 21.9547 24.2748C21.9585 24.2748 21.9622 24.2748 21.966 24.2748C21.9697 24.2748 21.9734 24.2748 21.9772 24.2748C21.9809 24.2748 21.9847 24.2748 21.9884 24.2748C21.9922 24.2748 21.9959 24.2748 21.9997 24.2748C22.0034 24.2748 22.0072 24.2748 22.0109 24.2748C22.0147 24.2748 22.0184 24.2748 22.0222 24.2748C22.0259 24.2748 22.0297 24.2748 22.0334 24.2748C22.0372 24.2748 22.0409 24.2748 22.0447 24.2748C22.0484 24.2748 22.0521 24.2748 22.0559 24.2748C22.0596 24.2748 22.0634 24.2748 22.0671 24.2748C22.0709 24.2748 22.0746 24.2748 22.0784 24.2748C22.0821 24.2748 22.0859 24.2748 22.0896 24.2748C22.0933 24.2748 22.0971 24.2748 22.1008 24.2748C22.1046 24.2748 22.1083 24.2748 22.1121 24.2748C22.1158 24.2748 22.1196 24.2748 22.1233 24.2748C22.127 24.2748 22.1308 24.2748 22.1345 24.2748C22.1383 24.2748 22.142 24.2748 22.1457 24.2748C22.1495 24.2748 22.1532 24.2748 22.157 24.2748C22.1607 24.2748 22.1644 24.2748 22.1682 24.2748C22.1719 24.2748 22.1757 24.2748 22.1794 24.2748C22.1831 24.2748 22.1869 24.2748 22.1906 24.2748C22.1943 24.2748 22.1981 24.2748 22.2018 24.2748C22.2056 24.2748 22.2093 24.2748 22.213 24.2748C22.2168 24.2748 22.2205 24.2748 22.2242 24.2748C22.228 24.2748 22.2317 24.2748 22.2354 24.2748C22.2392 24.2748 22.2429 24.2748 22.2466 24.2748C22.2504 24.2748 22.2541 24.2748 22.2578 24.2748C22.2615 24.2748 22.2653 24.2748 22.269 24.2748C22.2727 24.2748 22.2765 24.2748 22.2802 24.2748C22.2839 24.2748 22.2876 24.2748 22.2914 24.2748C22.2951 24.2748 22.2988 24.2748 22.3025 24.2748C22.3063 24.2748 22.31 24.2748 22.3137 24.2748C22.3174 24.2748 22.3212 24.2748 22.3249 24.2748C22.3286 24.2748 22.3323 24.2748 22.3361 24.2748C22.3398 24.2748 22.3435 24.2748 22.3472 24.2748C22.3509 24.2748 22.3547 24.2748 22.3584 24.2748C22.3621 24.2748 22.3658 24.2748 22.3695 24.2748C22.3732 24.2748 22.3769 24.2748 22.3807 24.2748C22.3844 24.2748 22.3881 24.2748 22.3918 24.2748C22.3955 24.2748 22.3992 24.2748 22.4029 24.2748C22.4066 24.2748 22.4104 24.2748 22.4141 24.2748C22.4178 24.2748 22.4215 24.2748 22.4252 24.2748C22.4289 24.2748 22.4326 24.2748 22.4363 24.2748C22.44 24.2748 22.4437 24.2748 22.4474 24.2748C22.4511 24.2748 22.4548 24.2748 22.4585 24.2748C22.4622 24.2748 22.4659 24.2748 22.4696 24.2748C22.4733 24.2748 22.477 24.2748 22.4807 24.2748C22.4844 24.2748 22.4881 24.2748 22.4918 24.2748C22.4955 24.2748 22.4992 24.2748 22.5029 24.2748C22.5066 24.2748 22.5103 24.2748 22.514 24.2748C22.5177 24.2748 22.5213 24.2748 22.525 24.2748C22.5287 24.2748 22.5324 24.2748 22.5361 24.2748C22.5398 24.2748 22.5435 24.2748 22.5471 24.2748C22.5508 24.2748 22.5545 24.2748 22.5582 24.2748C22.5619 24.2748 22.5656 24.2748 22.5692 24.2748C22.5729 24.2748 22.5766 24.2748 22.5803 24.2748C22.5839 24.2748 22.5876 24.2748 22.5913 24.2748C22.595 24.2748 22.5986 24.2748 22.6023 24.2748C22.606 24.2748 22.6097 24.2748 22.6133 24.2748C22.617 24.2748 22.6207 24.2748 22.6243 24.2748C22.628 24.2748 22.6317 24.2748 22.6353 24.2748C22.639 24.2748 22.6427 24.2748 22.6463 24.2748C22.65 24.2748 22.6536 24.2748 22.6573 24.2748C22.661 24.2748 22.6646 24.2748 22.6683 24.2748C22.6719 24.2748 22.6756 24.2748 22.6792 24.2748C22.6829 24.2748 22.6865 24.2748 22.6902 24.2748C22.6938 24.2748 22.6975 24.2748 22.7011 24.2748C22.7048 24.2748 22.7084 24.2748 22.7121 24.2748C22.7157 24.2748 22.7194 24.2748 22.723 24.2748C22.7266 24.2748 22.7303 24.2748 22.7339 24.2748C22.7376 24.2748 22.7412 24.2748 22.7448 24.2748C22.7485 24.2748 22.7521 24.2748 22.7557 24.2748C22.7594 24.2748 22.763 24.2748 22.7666 24.2748C22.7703 24.2748 22.7739 24.2748 22.7775 24.2748C22.7811 24.2748 22.7848 24.2748 22.7884 24.2748C22.792 24.2748 22.7956 24.2748 22.7992 24.2748C22.8029 24.2748 22.8065 24.2748 22.8101 24.2748C22.8137 24.2748 22.8173 24.2748 22.8209 24.2748C22.8245 24.2748 22.8282 24.2748 22.8318 24.2748C22.8354 24.2748 22.839 24.2748 22.8426 24.2748C22.8462 24.2748 22.8498 24.2748 22.8534 24.2748C22.857 24.2748 22.8606 24.2748 22.8642 24.2748C22.8678 24.2748 22.8714 24.2748 22.875 24.2748V23.2748ZM18.3492 23.4461L15.6232 26.5716L16.3768 27.2289L19.1028 24.1034L18.3492 23.4461ZM16.3768 26.5716L13.6508 23.4461L12.8972 24.1034L15.6232 27.2289L16.3768 26.5716ZM13.274 23.2748H9.125V24.2748H13.274V23.2748ZM9.125 23.2748C8.31179 23.2748 7.66059 23.0155 7.2165 22.5936C6.77512 22.1742 6.5 21.5583 6.5 20.7661H5.5C5.5 21.8023 5.86685 22.6907 6.52771 23.3186C7.18586 23.9439 8.09717 24.2748 9.125 24.2748V23.2748ZM6.5 20.7661V10.2102H5.5V20.7661H6.5ZM6.5 10.2102C6.5 8.66129 7.76522 7.39978 9.33338 7.39978V6.39978C7.21945 6.39978 5.5 8.10251 5.5 10.2102H6.5ZM9.33338 7.39978H22.6666V6.39978H9.33338V7.39978ZM22.6666 7.39978C24.2347 7.39978 25.5 8.6613 25.5 10.2102H26.5C26.5 8.1025 24.7804 6.39978 22.6666 6.39978V7.39978ZM25.5 10.2102V20.7661H26.5V10.2102H25.5ZM25.5 20.7661C25.5 21.5582 25.2249 22.1742 24.7835 22.5936C24.3393 23.0155 23.6881 23.2748 22.875 23.2748V24.2748C23.9028 24.2748 24.8141 23.9439 25.4722 23.3186C26.1331 22.6907 26.5 21.8023 26.5 20.7661H25.5ZM22.875 23.0248C23.503 23.0248 24.0921 22.7037 24.5116 22.2832C24.931 21.8628 25.25 21.2739 25.25 20.6497H24.25C24.25 20.9396 24.0917 21.2883 23.8037 21.5769C23.5159 21.8654 23.1675 22.0248 22.875 22.0248V23.0248ZM25.25 20.6497V10.0247H24.25V20.6497H25.25ZM25.25 10.0247C25.25 9.40049 24.931 8.81164 24.5116 8.3913C24.0921 7.9708 23.503 7.64977 22.875 7.64977V8.64977C23.1675 8.64977 23.5159 8.80917 23.8037 9.09762C24.0917 9.38622 24.25 9.73484 24.25 10.0247H25.25ZM22.875 7.64977H9.12504V8.64977H22.875V7.64977ZM9.12504 7.64977C8.49714 7.64977 7.90804 7.9708 7.48848 8.3913C7.06907 8.81164 6.7501 9.40049 6.7501 10.0247H7.7501C7.7501 9.73484 7.9084 9.38622 8.19637 9.09762C8.48418 8.80917 8.83256 8.64977 9.12504 8.64977V7.64977ZM6.7501 10.0247V20.6497H7.7501V10.0247H6.7501ZM6.7501 20.6497C6.7501 21.2739 7.06906 21.8628 7.48846 22.2832C7.90801 22.7037 8.49712 23.0248 9.12504 23.0248V22.0248C8.83258 22.0248 8.48421 21.8654 8.19639 21.5769C7.90841 21.2883 7.7501 20.9396 7.7501 20.6497H6.7501ZM9.12506 23.0248L14.125 23.0247L14.125 22.0247L9.12503 22.0248L9.12506 23.0248ZM13.725 22.8247L15.6001 25.3247L16.4 24.7246L14.525 22.2247L13.725 22.8247ZM16.4 25.3246L18.275 22.8247L17.475 22.2247L15.6 24.7246L16.4 25.3246ZM17.875 23.0247L22.875 23.0248L22.8751 22.0248L17.875 22.0247L17.875 23.0247Z" />
</svg>
