<svg viewBox="0 0 32 32" xmlns="http://www.w3.org/2000/svg">
<path d="M6 5.88462C6 5.39606 6.43566 5 6.97308 5H24.4885C25.0259 5 25.4615 5.39606 25.4615 5.88462C25.4615 6.37318 25.0259 6.76923 24.4885 6.76923H6.97308C6.43566 6.76923 6 6.37318 6 5.88462Z" />
<path d="M6 27.1155C6 26.6269 6.43566 26.2308 6.97308 26.2308H24.4885C25.0259 26.2308 25.4615 26.6269 25.4615 27.1155C25.4615 27.604 25.0259 28.0001 24.4885 28.0001H6.97308C6.43566 28.0001 6 27.604 6 27.1155Z" />
<path d="M9.53857 16.5C9.53857 16.0114 10.0006 15.6154 10.5706 15.6154H20.8911C21.4611 15.6154 21.9232 16.0114 21.9232 16.5C21.9232 16.9885 21.4611 17.3846 20.8911 17.3846H10.5706C10.0006 17.3846 9.53857 16.9885 9.53857 16.5Z" />
<path d="M9.53857 21.8077C9.53857 21.3192 10.0006 20.9231 10.5706 20.9231H20.8911C21.4611 20.9231 21.9232 21.3192 21.9232 21.8077C21.9232 22.2963 21.4611 22.6923 20.8911 22.6923H10.5706C10.0006 22.6923 9.53857 22.2963 9.53857 21.8077Z" />
<path d="M6.88462 26.2308C6.39606 26.2308 6 25.7556 6 25.1693L6 6.0616C6 5.47533 6.39606 5.00006 6.88462 5.00006C7.37318 5.00006 7.76923 5.47533 7.76923 6.0616L7.76923 25.1693C7.76923 25.7556 7.37318 26.2308 6.88462 26.2308Z" />
<path d="M24.5765 26.2308C24.088 26.2308 23.6919 25.7556 23.6919 25.1693V6.0616C23.6919 5.47533 24.088 5.00006 24.5765 5.00006C25.0651 5.00006 25.4611 5.47533 25.4611 6.0616V25.1693C25.4611 25.7556 25.0651 26.2308 24.5765 26.2308Z" />
<rect x="9.53857" y="10.3077" width="12.3846" height="1.76923" rx="0.884615" />
</svg>
