<svg viewBox="0 0 32 32" xmlns="http://www.w3.org/2000/svg">
  <path d="M15.7979 21.3679C15.8219 21.3991 15.8525 21.4244 15.8876 21.4418C15.9226 21.4591 15.961 21.4682 16 21.4682C16.039 21.4682 16.0774 21.4591 16.1124 21.4418C16.1474 21.4244 16.1781 21.3991 16.2021 21.3679L19.7957 16.7385C19.9273 16.5686 19.8086 16.317 19.5936 16.317H17.216V5.26136C17.216 5.11761 17.1005 5 16.9594 5H15.0342C14.893 5 14.7775 5.11761 14.7775 5.26136V16.3138H12.4064C12.1914 16.3138 12.0727 16.5653 12.2043 16.7352L15.7979 21.3679ZM27.7433 20.2244H25.8182C25.677 20.2244 25.5615 20.342 25.5615 20.4858V25.517H6.4385V20.4858C6.4385 20.342 6.32299 20.2244 6.18182 20.2244H4.25668C4.11551 20.2244 4 20.342 4 20.4858V26.9545C4 27.5328 4.45882 28 5.02674 28H26.9733C27.5412 28 28 27.5328 28 26.9545V20.4858C28 20.342 27.8845 20.2244 27.7433 20.2244Z" />
</svg>
