<svg  viewBox="0 0 32 32" fill="none" xmlns="http://www.w3.org/2000/svg">
<path d="M15.7979 21.3679C15.8219 21.3991 15.8525 21.4244 15.8876 21.4418C15.9226 21.4591 15.961 21.4682 16 21.4682C16.039 21.4682 16.0774 21.4591 16.1124 21.4418C16.1474 21.4244 16.1781 21.3991 16.2021 21.3679L19.7957 16.7385C19.9273 16.5686 19.8086 16.317 19.5936 16.317H17.216V5.26136C17.216 5.11761 17.1005 5 16.9594 5H15.0342C14.893 5 14.7775 5.11761 14.7775 5.26136V16.3138H12.4064C12.1914 16.3138 12.0727 16.5653 12.2043 16.7352L15.7979 21.3679ZM27.7433 20.2244H25.8182C25.677 20.2244 25.5615 20.342 25.5615 20.4858V25.517H6.4385V20.4858C6.4385 20.342 6.32299 20.2244 6.18182 20.2244H4.25668C4.11551 20.2244 4 20.342 4 20.4858V26.9545C4 27.5328 4.45882 28 5.02674 28H26.9733C27.5412 28 28 27.5328 28 26.9545V20.4858C28 20.342 27.8845 20.2244 27.7433 20.2244Z" />
<path fill-rule="evenodd" clip-rule="evenodd" d="M14.7775 16.3138V5.26136C14.7775 5.11761 14.893 5 15.0342 5H16.9594C17.1005 5 17.216 5.11761 17.216 5.26136V16.317H19.5936C19.8086 16.317 19.9273 16.5686 19.7957 16.7385L16.2021 21.3679C16.1781 21.3991 16.1474 21.4244 16.1124 21.4418C16.0774 21.4591 16.039 21.4682 16 21.4682C15.961 21.4682 15.9226 21.4591 15.8876 21.4418C15.8525 21.4244 15.8219 21.3991 15.7979 21.3679L12.2043 16.7352C12.0727 16.5653 12.1914 16.3138 12.4064 16.3138H14.7775ZM16.995 21.9773C16.9943 21.9782 16.9937 21.979 16.993 21.9799C16.8772 22.1298 16.7284 22.2525 16.5568 22.3376C16.3842 22.4232 16.1937 22.4682 16 22.4682C15.8063 22.4682 15.6158 22.4233 15.4432 22.3376C15.2715 22.2524 15.1226 22.1296 15.0068 21.9796C15.0062 21.9789 15.0056 21.9781 15.005 21.9773L11.4141 17.3481C10.7943 16.5477 11.3268 15.3138 12.4064 15.3138H13.7775V5.26136C13.7775 4.58244 14.3238 4 15.0342 4H16.9594C17.6698 4 18.216 4.58243 18.216 5.26136V15.317H19.5936C20.6732 15.317 21.2062 16.5503 20.5864 17.3507L20.5857 17.3517L16.995 21.9773ZM25.8182 19.2244H27.7433C28.4537 19.2244 29 19.8069 29 20.4858V26.9545C29 28.068 28.1104 29 26.9733 29H5.02674C3.88958 29 3 28.068 3 26.9545V20.4858C3 19.8069 3.54627 19.2244 4.25668 19.2244H6.18182C6.89223 19.2244 7.4385 19.8069 7.4385 20.4858V24.517H24.5615V20.4858C24.5615 19.8069 25.1078 19.2244 25.8182 19.2244ZM25.8182 20.2244H27.7433C27.8845 20.2244 28 20.342 28 20.4858V26.9545C28 27.5328 27.5412 28 26.9733 28H5.02674C4.45882 28 4 27.5328 4 26.9545V20.4858C4 20.342 4.11551 20.2244 4.25668 20.2244H6.18182C6.32299 20.2244 6.4385 20.342 6.4385 20.4858V25.517H25.5615V20.4858C25.5615 20.342 25.677 20.2244 25.8182 20.2244Z"/>
</svg>
