<svg viewBox="0 0 32 32" xmlns="http://www.w3.org/2000/svg">
  <path fill-rule="evenodd" clip-rule="evenodd" d="M4 16C4 22.6274 9.37258 28 16 28C22.6274 28 28 22.6274 28 16C28 9.37258 22.6274 4 16 4C9.37258 4 4 9.37258 4 16ZM13.8017 10.9928C14.3704 10.419 15.2924 10.419 15.861 10.9928L19.9797 15.1485C20.5483 15.7223 20.5483 16.6526 19.9797 17.2264L19.9673 17.2387L15.8608 21.3821C15.2922 21.9559 14.3702 21.9559 13.8015 21.3821C13.2329 20.8083 13.2329 19.8781 13.8015 19.3043L16.8906 16.1874L13.8017 13.0707C13.2331 12.4969 13.2331 11.5666 13.8017 10.9928Z" />
</svg>
