<svg viewBox="0 0 32 32" fill="none" xmlns="http://www.w3.org/2000/svg">
<path fill-rule="evenodd" clip-rule="evenodd" d="M28.3166 4.89137C28.2506 4.38561 27.8526 3.98756 27.3468 3.92159L21.2496 3.1263C20.6337 3.04596 20.0692 3.48015 19.9889 4.09609C19.9086 4.71203 20.3427 5.27647 20.9587 5.35681L24.8026 5.8582L19.2485 11.4124C18.8092 11.8516 18.8092 12.5637 19.2485 13.0029C19.6877 13.4422 20.3998 13.4422 20.839 13.0029L26.383 7.45893L26.8814 11.2795C26.9617 11.8954 27.5261 12.3296 28.1421 12.2493C28.758 12.1689 29.1922 11.6045 29.1119 10.9886L28.3166 4.89137ZM4.89154 3.92163C4.38578 3.9876 3.98773 4.38565 3.92176 4.89142L3.12647 10.9886C3.04613 11.6045 3.48032 12.169 4.09626 12.2493C4.7122 12.3297 5.27664 11.8955 5.35698 11.2795L5.85837 7.43559L11.4125 12.9898C11.8518 13.429 12.5639 13.429 13.0031 12.9898C13.4423 12.5505 13.4423 11.8384 13.0031 11.3992L7.4591 5.85519L11.2797 5.35686C11.8956 5.27652 12.3298 4.71207 12.2494 4.09613C12.1691 3.4802 11.6047 3.04601 10.9887 3.12635L4.89154 3.92163ZM4.89085 28.3163C4.38509 28.2504 3.98704 27.8523 3.92107 27.3465L3.12578 21.2494C3.04544 20.6334 3.47963 20.069 4.09557 19.9886C4.71151 19.9083 5.27595 20.3425 5.35629 20.9584L5.85463 24.779L11.3986 19.235C11.8378 18.7958 12.55 18.7958 12.9892 19.235C13.4284 19.6742 13.4284 20.3863 12.9892 20.8256L7.43503 26.3797L11.279 26.8811C11.8949 26.9614 12.3291 27.5259 12.2488 28.1418C12.1684 28.7578 11.604 29.192 10.988 29.1116L4.89085 28.3163ZM28.3167 27.3465C28.2507 27.8523 27.8527 28.2503 27.3469 28.3163L21.2497 29.1116C20.6338 29.1919 20.0693 28.7577 19.989 28.1418C19.9087 27.5258 20.3429 26.9614 20.9588 26.8811L24.7794 26.3827L19.2354 20.8387C18.7961 20.3995 18.7961 19.6874 19.2354 19.2482C19.6746 18.8089 20.3867 18.8089 20.8259 19.2482L26.3801 24.8023L26.8815 20.9584C26.9618 20.3424 27.5263 19.9083 28.1422 19.9886C28.7581 20.0689 29.1923 20.6334 29.112 21.2493L28.3167 27.3465Z"/>
</svg>
