<svg viewBox="0 0 32 32" fill="none" xmlns="http://www.w3.org/2000/svg">
  <path fill-rule="evenodd" clip-rule="evenodd" d="M5.38069 11.275C8.00202 9.33498 11.757 7.2876 16 7.2876C20.243 7.2876 23.998 9.33498 26.6193 11.275C27.9433 12.2549 29.0127 13.233 29.7522 13.9669C30.1226 14.3345 30.4119 14.6426 30.6108 14.8613C30.7103 14.9707 30.7872 15.0578 30.8405 15.1191C30.8672 15.1498 30.888 15.1739 30.9026 15.1912L30.9201 15.2118L30.9254 15.2181L30.9279 15.221C30.9282 15.2214 30.9284 15.2217 30 15.9976C30.9284 16.7735 30.9282 16.7738 30.9279 16.7742L30.9272 16.775L30.9254 16.7771L30.9201 16.7834L30.9026 16.804C30.888 16.8213 30.8672 16.8454 30.8405 16.8761C30.7872 16.9373 30.7103 17.0245 30.6108 17.1339C30.4119 17.3526 30.1226 17.6607 29.7522 18.0283C29.0127 18.7622 27.9433 19.7403 26.6193 20.7202C23.998 22.6602 20.243 24.7076 16 24.7076C11.757 24.7076 8.00202 22.6602 5.38069 20.7202C4.05664 19.7403 2.98728 18.7622 2.24781 18.0283C1.87744 17.6607 1.58811 17.3526 1.38922 17.1339C1.28974 17.0245 1.21275 16.9373 1.15944 16.8761C1.13279 16.8454 1.11204 16.8213 1.09734 16.804L1.07985 16.7834L1.07454 16.7771L1.07275 16.775L1.07208 16.7742C1.0718 16.7738 1.07154 16.7735 1.99999 15.9976C1.07154 15.2217 1.0718 15.2214 1.07208 15.221L1.07454 15.2181L1.07985 15.2118L1.09734 15.1912C1.11204 15.1739 1.13279 15.1498 1.15944 15.1191C1.21275 15.0578 1.28974 14.9707 1.38922 14.8613C1.58811 14.6426 1.87744 14.3345 2.24781 13.9669C2.98728 13.233 4.05664 12.2549 5.38069 11.275ZM1.99999 15.9976L1.07208 15.221C0.696677 15.6702 0.696677 16.325 1.07208 16.7742L1.99999 15.9976ZM3.64273 15.9976C3.73732 16.0949 3.84071 16.1996 3.95256 16.3107C4.62996 16.983 5.61085 17.8799 6.82031 18.775C9.26598 20.585 12.511 22.2876 16 22.2876C19.489 22.2876 22.734 20.585 25.1797 18.775C26.3891 17.8799 27.37 16.983 28.0474 16.3107C28.1593 16.1996 28.2627 16.0949 28.3573 15.9976C28.2627 15.9002 28.1593 15.7955 28.0474 15.6845C27.37 15.0122 26.3891 14.1153 25.1797 13.2202C22.734 11.4102 19.489 9.7076 16 9.7076C12.511 9.7076 9.26598 11.4102 6.82031 13.2202C5.61085 14.1153 4.62996 15.0122 3.95256 15.6845C3.84071 15.7955 3.73732 15.9002 3.64273 15.9976ZM30 15.9976L30.9279 16.7742C31.3033 16.325 31.3033 15.6702 30.9279 15.221L30 15.9976Z" />
  <path fill-rule="evenodd" clip-rule="evenodd" d="M10.79 15.9976C10.79 13.2496 13.2795 11.2876 16 11.2876C18.7206 11.2876 21.21 13.2496 21.21 15.9976C21.21 18.7456 18.7206 20.7076 16 20.7076C13.2795 20.7076 10.79 18.7456 10.79 15.9976ZM16 13.7076C14.3023 13.7076 13.21 14.8796 13.21 15.9976C13.21 17.1156 14.3023 18.2876 16 18.2876C17.6977 18.2876 18.79 17.1156 18.79 15.9976C18.79 14.8796 17.6977 13.7076 16 13.7076Z" />
  <path fill-rule="evenodd" clip-rule="evenodd" d="M25.8885 7.99991L7.30465 24.3537L5.9834 22.8523L24.5673 6.49848L25.8885 7.99991Z" />
</svg>
