<svg viewBox="0 0 32 32" fill="none" xmlns="http://www.w3.org/2000/svg">
  <path fill-rule="evenodd" clip-rule="evenodd" d="M5.37512 11.5624C7.9956 9.59962 11.7525 7.52563 16 7.52563C20.2475 7.52563 24.0044 9.59962 26.6249 11.5624C27.9488 12.554 29.018 13.5438 29.7573 14.2863C30.1276 14.6582 30.4168 14.9699 30.6156 15.1911C30.715 15.3018 30.792 15.39 30.8452 15.4519C30.8719 15.4829 30.8926 15.5073 30.9073 15.5248L30.9247 15.5456L30.93 15.5519L30.9325 15.5549C30.9327 15.5552 30.933 15.5555 30 16.326C30.933 17.0965 30.9327 17.0968 30.9325 17.0971L30.93 17.1001L30.9247 17.1064L30.9073 17.1272C30.8926 17.1447 30.8719 17.1691 30.8452 17.2001C30.792 17.262 30.715 17.3502 30.6156 17.4609C30.4168 17.6821 30.1276 17.9938 29.7573 18.3657C29.018 19.1083 27.9488 20.098 26.6249 21.0897C24.0044 23.0524 20.2475 25.1264 16 25.1264C11.7525 25.1264 7.9956 23.0524 5.37512 21.0897C4.05116 20.098 2.98195 19.1083 2.24269 18.3657C1.87241 17.9938 1.58318 17.6821 1.38439 17.4609C1.28496 17.3502 1.20802 17.262 1.15476 17.2001C1.12812 17.1691 1.1074 17.1447 1.09272 17.1272L1.07527 17.1064L1.06998 17.1001L1.06753 17.0971C1.06725 17.0968 1.067 17.0965 2 16.326C1.067 15.5555 1.06725 15.5552 1.06753 15.5549L1.06998 15.5519L1.07527 15.5456L1.09272 15.5248C1.1074 15.5073 1.12812 15.4829 1.15476 15.4519C1.20802 15.39 1.28496 15.3018 1.38439 15.1911C1.58318 14.9699 1.87241 14.6582 2.24269 14.2863C2.98195 13.5438 4.05116 12.554 5.37512 11.5624ZM2 16.326L1.06753 15.5549C0.698195 16.0022 0.698195 16.6499 1.06753 17.0971L2 16.326ZM3.63303 16.326C3.73162 16.4289 3.83997 16.5401 3.95769 16.6583C4.6353 17.3389 5.61635 18.2468 6.82588 19.1527C9.27241 20.9852 12.5155 22.7064 16 22.7064C19.4845 22.7064 22.7276 20.9852 25.1741 19.1527C26.3836 18.2468 27.3647 17.3389 28.0423 16.6583C28.16 16.5401 28.2684 16.4289 28.367 16.326C28.2684 16.2231 28.16 16.1119 28.0423 15.9937C27.3647 15.3131 26.3836 14.4052 25.1741 13.4993C22.7276 11.6668 19.4845 9.94563 16 9.94563C12.5155 9.94563 9.27241 11.6668 6.82588 13.4993C5.61635 14.4052 4.6353 15.3131 3.95769 15.9937C3.83997 16.1119 3.73162 16.2231 3.63303 16.326ZM30 16.326L30.9325 17.0971C31.3018 16.6499 31.3018 16.0022 30.9325 15.5549L30 16.326Z" />
  <path fill-rule="evenodd" clip-rule="evenodd" d="M10.79 16.5C10.79 13.7521 13.2795 11.79 16 11.79C18.7206 11.79 21.21 13.7521 21.21 16.5C21.21 19.248 18.7206 21.21 16 21.21C13.2795 21.21 10.79 19.248 10.79 16.5ZM16 14.21C14.3023 14.21 13.21 15.382 13.21 16.5C13.21 17.6181 14.3023 18.79 16 18.79C17.6977 18.79 18.79 17.6181 18.79 16.5C18.79 15.382 17.6977 14.21 16 14.21Z" />
</svg>
