<svg width="32" height="32" viewBox="0 0 32 32" fill="none" xmlns="http://www.w3.org/2000/svg">
<path d="M26.875 12.8924C26.7745 12.777 26.6256 12.7086 26.4731 12.7086H24.9026V9.50817C24.9026 9.22705 24.6681 9 24.3778 9H7.61608C7.32953 9 7.09507 9.22705 7.09507 9.50817V10.9498H5.52459C5.372 10.9498 5.22686 11.0147 5.12638 11.1264C5.0259 11.2381 4.98124 11.3895 5.00729 11.5336L7.10251 23.5711C7.14345 23.8162 7.36302 24 7.61981 24H24.3816C24.6346 24 24.8505 23.8234 24.8989 23.5855L26.9941 13.3104C27.0164 13.1627 26.9755 13.0077 26.875 12.8924ZM8.14082 10.0163H23.8531V12.7122H13.5482L11.0585 11.0399C10.9692 10.9822 10.8687 10.9498 10.7608 10.9498H8.14082V10.0163ZM23.9424 22.9873H8.06639L6.13864 11.9625H10.6007L13.0904 13.6348C13.1798 13.6925 13.284 13.7249 13.3882 13.7249H25.8478L23.9424 22.9873Z" fill="#5D6BC5"/>
</svg>
