<svg viewBox="0 0 32 32" xmlns="http://www.w3.org/2000/svg">
  <path fill-rule="evenodd" clip-rule="evenodd" d="M22.834 8.75669C22.834 7.88316 23.5463 7.16846 24.4169 7.16846C25.2874 7.16846 25.9945 7.88316 25.9945 8.75669C25.9945 9.63022 25.2822 10.3449 24.4116 10.3449C24.1056 10.3449 23.8207 10.2549 23.5779 10.1014L20.7077 11.8167C20.7077 11.8346 20.7101 11.8525 20.7127 11.871C20.7154 11.8908 20.7182 11.9113 20.7182 11.9332C20.7182 12.8067 20.0059 13.5214 19.1353 13.5214C18.3808 13.5214 17.753 12.992 17.5947 12.2826L14.946 10.9643C14.6611 11.2343 14.2812 11.4038 13.8591 11.4038C13.5847 11.4038 13.3315 11.3296 13.1099 11.2079L10.0602 13.4949C10.1235 13.6643 10.1657 13.8549 10.1657 14.0508C10.1657 14.9243 9.45345 15.639 8.58287 15.639C7.71229 15.639 7 14.9243 7 14.0508C7 13.1773 7.71229 12.4626 8.58287 12.4626C8.87306 12.4626 9.14215 12.5473 9.37431 12.6849L12.3976 10.4243C12.3185 10.239 12.2762 10.0379 12.2762 9.82081C12.2762 8.94728 12.9885 8.23257 13.8591 8.23257C14.7297 8.23257 15.442 8.94728 15.442 9.82081C15.442 9.88963 15.4314 9.95845 15.4209 10.0273L17.753 11.1867C18.0221 10.689 18.5339 10.3502 19.1353 10.3502C19.5891 10.3502 19.9901 10.5408 20.2803 10.8426L22.9237 9.26493C22.8709 9.10611 22.834 8.93669 22.834 8.75669ZM25.4726 13.5214H23.3621C23.0719 13.5214 22.8345 13.7596 22.8345 14.0508V24.639C22.8345 24.9302 23.0719 25.1684 23.3621 25.1684H25.4726C25.7628 25.1684 26.0002 24.9302 26.0002 24.639V14.0508C26.0002 13.7596 25.7628 13.5214 25.4726 13.5214ZM14.9199 14.58H12.8094C12.5192 14.58 12.2817 14.8182 12.2817 15.1094V24.6388C12.2817 24.93 12.5192 25.1682 12.8094 25.1682H14.9199C15.21 25.1682 15.4475 24.93 15.4475 24.6388V15.1094C15.4475 14.8182 15.21 14.58 14.9199 14.58ZM9.64374 18.8153H7.53324C7.24305 18.8153 7.00562 19.0536 7.00562 19.3447V24.6388C7.00562 24.93 7.24305 25.1682 7.53324 25.1682H9.64374C9.93394 25.1682 10.1714 24.93 10.1714 24.6388V19.3447C10.1714 19.0536 9.93394 18.8153 9.64374 18.8153ZM18.0855 16.6978H20.196C20.4862 16.6978 20.7236 16.9361 20.7236 17.2273V24.639C20.7236 24.9302 20.4862 25.1684 20.196 25.1684H18.0855C17.7953 25.1684 17.5579 24.9302 17.5579 24.639V17.2273C17.5579 16.9361 17.7953 16.6978 18.0855 16.6978Z" />
</svg>
