<svg viewBox="0 0 32 32" xmlns="http://www.w3.org/2000/svg">
  <path fill-rule="evenodd" clip-rule="evenodd" d="M23.6009 7.5734C23.6009 6.50997 24.4556 5.63989 25.5003 5.63989C26.545 5.63989 27.3934 6.50997 27.3934 7.5734C27.3934 8.63682 26.5387 9.5069 25.494 9.5069C25.1268 9.5069 24.7849 9.39733 24.4936 9.21043L21.0493 11.2986C21.0493 11.3204 21.0523 11.3422 21.0553 11.3648C21.0586 11.3888 21.062 11.4138 21.062 11.4404C21.062 12.5038 20.2072 13.3739 19.1625 13.3739C18.2571 13.3739 17.5037 12.7294 17.3137 11.8658L14.1353 10.261C13.7934 10.5897 13.3375 10.7959 12.831 10.7959C12.5018 10.7959 12.1979 10.7057 11.932 10.5574L8.27237 13.3417C8.34835 13.5479 8.39899 13.7799 8.39899 14.0184C8.39899 15.0818 7.54424 15.9519 6.49954 15.9519C5.45485 15.9519 4.6001 15.0818 4.6001 14.0184C4.6001 12.955 5.45485 12.0849 6.49954 12.0849C6.84777 12.0849 7.17068 12.188 7.44927 12.3556L11.0772 9.60357C10.9822 9.378 10.9316 9.13309 10.9316 8.86884C10.9316 7.80541 11.7863 6.93534 12.831 6.93534C13.8757 6.93534 14.7305 7.80541 14.7305 8.86884C14.7305 8.95263 14.7178 9.03641 14.7052 9.1202L17.5037 10.5317C17.8266 9.92583 18.4407 9.51334 19.1625 9.51334C19.707 9.51334 20.1882 9.74537 20.5365 10.1127L23.7085 8.19212C23.6452 7.99877 23.6009 7.79253 23.6009 7.5734ZM26.7673 13.3739H24.2347C23.8864 13.3739 23.6015 13.6639 23.6015 14.0184V26.9084C23.6015 27.2629 23.8864 27.5529 24.2347 27.5529H26.7673C27.1155 27.5529 27.4004 27.2629 27.4004 26.9084V14.0184C27.4004 13.6639 27.1155 13.3739 26.7673 13.3739ZM14.104 14.6626H11.5714C11.2232 14.6626 10.9382 14.9526 10.9382 15.3071V26.9081C10.9382 27.2626 11.2232 27.5526 11.5714 27.5526H14.104C14.4522 27.5526 14.7371 27.2626 14.7371 26.9081V15.3071C14.7371 14.9526 14.4522 14.6626 14.104 14.6626ZM7.77261 19.8187H5.24001C4.89178 19.8187 4.60686 20.1087 4.60686 20.4632V26.9082C4.60686 27.2626 4.89178 27.5527 5.24001 27.5527H7.77261C8.12085 27.5527 8.40576 27.2626 8.40576 26.9082V20.4632C8.40576 20.1087 8.12085 19.8187 7.77261 19.8187ZM17.9026 17.2409H20.4352C20.7834 17.2409 21.0684 17.5309 21.0684 17.8854V26.9084C21.0684 27.2629 20.7834 27.5529 20.4352 27.5529H17.9026C17.5544 27.5529 17.2695 27.2629 17.2695 26.9084V17.8854C17.2695 17.5309 17.5544 17.2409 17.9026 17.2409Z"/>
</svg>
