<svg viewBox="0 0 32 32" xmlns="http://www.w3.org/2000/svg">
  <path fill-rule="evenodd" clip-rule="evenodd" d="M27 9C27 9.55228 26.5523 10 26 10H6C5.44772 10 5 9.55228 5 9C5 8.44772 5.44772 8 6 8H26C26.5523 8 27 8.44772 27 9Z" />
  <path fill-rule="evenodd" clip-rule="evenodd" d="M27 16C27 16.5523 26.5523 17 26 17H6C5.44772 17 5 16.5523 5 16C5 15.4477 5.44772 15 6 15H26C26.5523 15 27 15.4477 27 16Z" />
  <path fill-rule="evenodd" clip-rule="evenodd" d="M27 23C27 23.5523 26.5523 24 26 24H6C5.44772 24 5 23.5523 5 23C5 22.4477 5.44772 22 6 22H26C26.5523 22 27 22.4477 27 23Z" />
</svg>
