<svg viewBox="0 0 32 32" xmlns="http://www.w3.org/2000/svg">
  <path fill-rule="evenodd" clip-rule="evenodd" d="M10.4393 8.56066C10.158 8.27936 10 7.89782 10 7.5C10 7.10218 10.158 6.72064 10.4393 6.43934C10.7206 6.15803 11.1022 6 11.5 6C11.8978 6 12.2794 6.15803 12.5607 6.43934C12.842 6.72064 13 7.10218 13 7.5C13 7.89782 12.842 8.27936 12.5607 8.56066C12.2794 8.84196 11.8978 9 11.5 9C11.1022 9 10.7206 8.84196 10.4393 8.56066ZM10.4393 14.3464C10.158 14.0651 10 13.6835 10 13.2857C10 12.8879 10.158 12.5064 10.4393 12.2251C10.7206 11.9437 11.1022 11.7857 11.5 11.7857C11.8978 11.7857 12.2794 11.9437 12.5607 12.2251C12.842 12.5064 13 12.8879 13 13.2857C13 13.6835 12.842 14.0651 12.5607 14.3464C12.2794 14.6277 11.8978 14.7857 11.5 14.7857C11.1022 14.7857 10.7206 14.6277 10.4393 14.3464ZM10.4393 20.1321C10.158 19.8508 10 19.4693 10 19.0714C10 18.6736 10.158 18.2921 10.4393 18.0108C10.7206 17.7295 11.1022 17.5714 11.5 17.5714C11.8978 17.5714 12.2794 17.7295 12.5607 18.0108C12.842 18.2921 13 18.6736 13 19.0714C13 19.4693 12.842 19.8508 12.5607 20.1321C12.2794 20.4134 11.8978 20.5714 11.5 20.5714C11.1022 20.5714 10.7206 20.4134 10.4393 20.1321ZM10.4393 25.9178C10.158 25.6365 10 25.255 10 24.8571C10 24.4593 10.158 24.0778 10.4393 23.7965C10.7206 23.5152 11.1022 23.3571 11.5 23.3571C11.8978 23.3571 12.2794 23.5152 12.5607 23.7965C12.842 24.0778 13 24.4593 13 24.8571C13 25.255 12.842 25.6365 12.5607 25.9178C12.2794 26.1991 11.8978 26.3571 11.5 26.3571C11.1022 26.3571 10.7206 26.1991 10.4393 25.9178ZM18.4393 8.56066C18.158 8.27936 18 7.89782 18 7.5C18 7.10218 18.158 6.72064 18.4393 6.43934C18.7206 6.15803 19.1022 6 19.5 6C19.8978 6 20.2794 6.15803 20.5607 6.43934C20.842 6.72064 21 7.10218 21 7.5C21 7.89782 20.842 8.27936 20.5607 8.56066C20.2794 8.84196 19.8978 9 19.5 9C19.1022 9 18.7206 8.84196 18.4393 8.56066ZM18.4393 14.3464C18.158 14.0651 18 13.6835 18 13.2857C18 12.8879 18.158 12.5064 18.4393 12.2251C18.7206 11.9437 19.1022 11.7857 19.5 11.7857C19.8978 11.7857 20.2794 11.9437 20.5607 12.2251C20.842 12.5064 21 12.8879 21 13.2857C21 13.6835 20.842 14.0651 20.5607 14.3464C20.2794 14.6277 19.8978 14.7857 19.5 14.7857C19.1022 14.7857 18.7206 14.6277 18.4393 14.3464ZM18.4393 20.1321C18.158 19.8508 18 19.4693 18 19.0714C18 18.6736 18.158 18.2921 18.4393 18.0108C18.7206 17.7295 19.1022 17.5714 19.5 17.5714C19.8978 17.5714 20.2794 17.7295 20.5607 18.0108C20.842 18.2921 21 18.6736 21 19.0714C21 19.4693 20.842 19.8508 20.5607 20.1321C20.2794 20.4134 19.8978 20.5714 19.5 20.5714C19.1022 20.5714 18.7206 20.4134 18.4393 20.1321ZM18.4393 25.9178C18.158 25.6365 18 25.255 18 24.8571C18 24.4593 18.158 24.0778 18.4393 23.7965C18.7206 23.5152 19.1022 23.3571 19.5 23.3571C19.8978 23.3571 20.2794 23.5152 20.5607 23.7965C20.842 24.0778 21 24.4593 21 24.8571C21 25.255 20.842 25.6365 20.5607 25.9178C20.2794 26.1991 19.8978 26.3571 19.5 26.3571C19.1022 26.3571 18.7206 26.1991 18.4393 25.9178Z" />
</svg>
