<svg viewBox="0 0 32 32" fill="none" xmlns="http://www.w3.org/2000/svg">
<path fill-rule="evenodd" clip-rule="evenodd" d="M25.2697 15.9844C24.4269 17.0025 16.8433 25.4845 16.8433 25.4845C15.8994 26.4261 15.7215 26.4261 14.7776 25.4845L6.37001 15.9841C5.6539 14.966 5 13.8821 5 12.3774C5 9.57255 7.23534 7 10.4099 7C12.6636 7 14.438 8.16663 15.8199 9.54918C17.2704 8.24651 18.9763 7 21.23 7C24.4046 7 26.6399 9.57255 26.6399 12.3774C26.6399 13.8822 26.1126 14.9662 25.2697 15.9844Z" />
<path fill-rule="evenodd" clip-rule="evenodd" d="M10.4099 7.5C7.52972 7.5 5.5 9.83009 5.5 12.3774C5.5 13.7098 6.06647 14.681 6.76302 15.6738L15.1417 25.1415C15.3727 25.3716 15.5319 25.518 15.6572 25.6078C15.718 25.6514 15.7587 25.6726 15.7838 25.6827C15.7957 25.6875 15.8031 25.6894 15.8066 25.6901L15.8099 25.6907H15.8111L15.8144 25.6901C15.8178 25.6894 15.8252 25.6875 15.8371 25.6827C15.8622 25.6726 15.9029 25.6514 15.9637 25.6078C16.0892 25.5179 16.2486 25.3712 16.4801 25.1406L16.798 24.7849C17.0069 24.5511 17.3064 24.2158 17.6684 23.8103C18.3925 22.9993 19.3666 21.9074 20.367 20.7838C22.3733 18.5304 24.4707 16.1655 24.8846 15.6655C25.6716 14.7148 26.1399 13.7399 26.1399 12.3774C26.1399 9.83009 24.1102 7.5 21.23 7.5C19.1737 7.5 17.5891 8.63228 16.154 9.92118L15.8013 10.2379L15.4663 9.90265C14.1307 8.56645 12.4762 7.5 10.4099 7.5ZM16.8433 25.4845L17.216 25.8178L17.2065 25.8285L17.1964 25.8385C16.9614 26.0729 16.7475 26.2764 16.5464 26.4205C16.3426 26.5666 16.0997 26.6907 15.8105 26.6907C15.5212 26.6907 15.2783 26.5666 15.0745 26.4205C14.8735 26.2764 14.6595 26.0729 14.4245 25.8385L14.4135 25.8276L5.97708 16.2946L5.96103 16.2718C5.23266 15.2362 4.5 14.0442 4.5 12.3774C4.5 9.315 6.94096 6.5 10.4099 6.5C12.663 6.5 14.4504 7.57929 15.8354 8.86912C17.2403 7.65682 18.97 6.5 21.23 6.5C24.699 6.5 27.1399 9.31501 27.1399 12.3774C27.1399 14.0245 26.5536 15.2176 25.6549 16.3032C25.226 16.8213 23.1102 19.2066 21.1139 21.4487C20.1131 22.5729 19.1386 23.6651 18.4144 24.4763C18.0523 24.8819 17.7527 25.2173 17.5437 25.4512L17.216 25.8178C17.216 25.8179 17.216 25.8178 16.8433 25.4845Z" />
</svg>
