<svg viewBox="0 0 32 32" fill="none" xmlns="http://www.w3.org/2000/svg">
  <path fill-rule="evenodd" clip-rule="evenodd" d="M10.4099 8.5C8.11849 8.5 6.5 10.3452 6.5 12.3774C6.5 13.3719 6.89833 14.1197 7.54974 15.0538L15.8109 24.3887L16.0523 24.1187C16.2612 23.8849 16.5605 23.5497 16.9225 23.1443C17.6463 22.3335 18.6201 21.242 19.6202 20.1188C21.6363 17.8543 23.7154 15.5098 24.1143 15.0279C24.7896 14.2121 25.1399 13.4553 25.1399 12.3774C25.1399 10.3452 23.5214 8.5 21.23 8.5C19.5685 8.5 18.2266 9.40383 16.8222 10.6652L15.7642 11.6153L14.759 10.6096C13.5161 9.36609 12.1015 8.5 10.4099 8.5ZM16.8433 25.4845L17.9615 26.4843L17.933 26.5163L17.9026 26.5465C17.6697 26.7789 17.4039 27.0362 17.1291 27.2332C16.8459 27.4362 16.3978 27.6907 15.8105 27.6907C15.2231 27.6907 14.775 27.4362 14.4919 27.2332C14.217 27.0362 13.9512 26.7789 13.7183 26.5465L13.6853 26.5136L5.19124 16.9155L5.14309 16.8471C4.39018 15.7766 3.5 14.3685 3.5 12.3774C3.5 8.79992 6.3522 5.5 10.4099 5.5C12.6404 5.5 14.4434 6.42072 15.8525 7.55983C17.2299 6.48497 18.9895 5.5 21.23 5.5C25.2877 5.5 28.1399 8.79992 28.1399 12.3774C28.1399 14.3092 27.4355 15.7204 26.4252 16.9409C25.9813 17.4771 23.8471 19.8827 21.8608 22.1137C20.8595 23.2383 19.8848 24.3309 19.1604 25.1423C18.7981 25.548 18.4985 25.8835 18.2893 26.1175L17.9615 26.4843C17.9615 26.4844 17.9615 26.4843 16.8433 25.4845Z"/>
</svg>
