<svg viewBox="0 0 32 32" xmlns="http://www.w3.org/2000/svg">
  <path fill-rule="evenodd" clip-rule="evenodd" d="M5 8C5.55228 8 6 7.55228 6 7C6 6.44772 5.55228 6 5 6C4.44772 6 4 6.44772 4 7C4 7.55228 4.44772 8 5 8ZM5 14C5.55228 14 6 13.5523 6 13C6 12.4477 5.55228 12 5 12C4.44772 12 4 12.4477 4 13C4 13.5523 4.44772 14 5 14ZM6 19C6 19.5523 5.55228 20 5 20C4.44772 20 4 19.5523 4 19C4 18.4477 4.44772 18 5 18C5.55228 18 6 18.4477 6 19ZM5 26C5.55228 26 6 25.5523 6 25C6 24.4477 5.55228 24 5 24C4.44772 24 4 24.4477 4 25C4 25.5523 4.44772 26 5 26ZM10 7C10 6.44772 10.4477 6 11 6H27C27.5523 6 28 6.44772 28 7C28 7.55228 27.5523 8 27 8H11C10.4477 8 10 7.55228 10 7ZM11 12C10.4477 12 10 12.4477 10 13C10 13.5523 10.4477 14 11 14H27C27.5523 14 28 13.5523 28 13C28 12.4477 27.5523 12 27 12H11ZM10 19C10 18.4477 10.4477 18 11 18H27C27.5523 18 28 18.4477 28 19C28 19.5523 27.5523 20 27 20H11C10.4477 20 10 19.5523 10 19ZM11 24C10.4477 24 10 24.4477 10 25C10 25.5523 10.4477 26 11 26H27C27.5523 26 28 25.5523 28 25C28 24.4477 27.5523 24 27 24H11Z" />
</svg>
