<svg viewBox="0 0 32 32" xmlns="http://www.w3.org/2000/svg">
  <path fill-rule="evenodd" clip-rule="evenodd" d="M7.00672 10.0279V22.752H25.6428V10.0279H7.00672ZM25.6428 9.31759V9.31892C25.6424 9.31031 25.6428 9.30927 25.6428 9.31759ZM6.46189 8.02787H26.2456C26.3141 8.02787 26.4265 8.02787 26.5368 8.03944C26.6438 8.05065 26.856 8.08145 27.0726 8.21222C27.6314 8.54957 27.6428 9.14475 27.6428 9.31759V23.0293C27.6428 23.2587 27.6059 23.5824 27.4754 23.8879C27.3565 24.1663 26.9996 24.752 26.2432 24.752H6.40631C5.64992 24.752 5.29317 24.1658 5.17447 23.8882C5.04393 23.5829 5.00672 23.2593 5.00672 23.0293V9.32373C5.00655 9.32087 5.00611 9.31324 5.0051 9.29772C5.00502 9.29645 5.00492 9.29503 5.00482 9.29346C5.00311 9.26764 4.99879 9.20237 5.00032 9.13097C5.004 8.96041 5.04138 8.65651 5.27564 8.37321C5.30458 8.33817 5.34814 8.28998 5.40742 8.24011C5.46739 8.18966 5.56228 8.12155 5.69287 8.07081C5.80951 8.02548 5.95026 7.99608 6.1055 8.00352C6.23343 7.99364 6.33672 8.00676 6.39478 8.01586C6.42134 8.02003 6.44536 8.02459 6.46189 8.02787Z" />
  <path fill-rule="evenodd" clip-rule="evenodd" d="M5.31665 9.73005L6.68338 8.2699L14.7702 15.8393C15.6568 16.6324 17.0945 16.6253 17.9709 15.8252L25.9583 8.32373L27.3275 9.78159L19.3268 17.2955C17.6877 18.7991 15.077 18.8086 13.4248 17.3192L13.4178 17.3129L5.31665 9.73005Z" />
  <path fill-rule="evenodd" clip-rule="evenodd" d="M21.412 14.7808L26.8405 23.2105L25.159 24.2934L19.7305 15.8636L21.412 14.7808Z" />
  <path fill-rule="evenodd" clip-rule="evenodd" d="M14.0423 15.9761L6.75657 24.4059L5.24341 23.0981L12.5291 14.6683L14.0423 15.9761Z" />
</svg>
