<svg viewBox="0 0 32 32" xmlns="http://www.w3.org/2000/svg">
  <path d="M14.25 8.21875C14.25 8.68288 14.4344 9.128 14.7626 9.45619C15.0908 9.78438 15.5359 9.96875 16 9.96875C16.4641 9.96875 16.9092 9.78438 17.2374 9.45619C17.5656 9.128 17.75 8.68288 17.75 8.21875C17.75 7.75462 17.5656 7.3095 17.2374 6.98131C16.9092 6.65312 16.4641 6.46875 16 6.46875C15.5359 6.46875 15.0908 6.65312 14.7626 6.98131C14.4344 7.3095 14.25 7.75462 14.25 8.21875ZM14.25 16.9688C14.25 17.4329 14.4344 17.878 14.7626 18.2062C15.0908 18.5344 15.5359 18.7188 16 18.7188C16.4641 18.7188 16.9092 18.5344 17.2374 18.2062C17.5656 17.878 17.75 17.4329 17.75 16.9688C17.75 16.5046 17.5656 16.0595 17.2374 15.7313C16.9092 15.4031 16.4641 15.2188 16 15.2188C15.5359 15.2188 15.0908 15.4031 14.7626 15.7313C14.4344 16.0595 14.25 16.5046 14.25 16.9688ZM14.25 25.7188C14.25 26.1829 14.4344 26.628 14.7626 26.9562C15.0908 27.2844 15.5359 27.4688 16 27.4688C16.4641 27.4688 16.9092 27.2844 17.2374 26.9562C17.5656 26.628 17.75 26.1829 17.75 25.7188C17.75 25.2546 17.5656 24.8095 17.2374 24.4813C16.9092 24.1531 16.4641 23.9688 16 23.9688C15.5359 23.9688 15.0908 24.1531 14.7626 24.4813C14.4344 24.8095 14.25 25.2546 14.25 25.7188Z" />
</svg>
