<svg viewBox="0 0 32 32" xmlns="http://www.w3.org/2000/svg">
  <path d="M21.1991 20.9794V21H10.7351C10.7321 20.9912 10.7351 20.9853 10.7351 20.9794C10.7382 20.9765 10.7382 20.9735 10.7382 20.9706C10.7351 20.9176 10.7443 20.8088 10.7535 20.7559C10.7627 20.6912 10.7965 20.5 10.7995 20.4941C10.864 20.1265 11.1676 19.3706 11.1798 19.3471C11.1829 19.3441 11.37 19.0059 11.4834 18.8559C11.6491 18.6382 14.2405 17.4059 14.6852 17.1471C14.6944 17.1441 14.7128 17.1324 14.7128 17.1324C14.7128 17.1324 14.2589 16.2088 14.1577 15.8C13.8602 15.5206 13.529 15.2735 13.529 14.7559C13.529 14.4118 13.5719 14.2382 13.7559 14.2412L13.7713 13.2471C13.7713 13.2471 13.7437 11.3794 15.9733 11.3794C18.2028 11.3794 18.1783 13.2471 18.1783 13.2471L18.1844 14.2353C18.3684 14.2324 18.4114 14.4059 18.4114 14.75C18.4114 15.2676 18.0801 15.5147 17.7827 15.7941C17.6815 16.2029 17.2276 17.1265 17.2276 17.1265C17.2276 17.1265 17.246 17.1382 17.2552 17.1412C17.3962 17.2235 17.5404 17.3029 17.6876 17.3735C18.4696 17.7706 19.313 18.0676 19.8957 18.3647C20.0858 18.4618 20.2913 18.6324 20.4569 18.85C20.5612 18.9912 20.6532 19.1412 20.736 19.2941C20.7391 19.2971 20.7391 19.3029 20.7421 19.3059C20.7973 19.4147 20.8495 19.5235 20.8955 19.6353C21.0089 19.9088 21.0856 20.1941 21.1377 20.4765C21.1562 20.5676 21.1715 20.6588 21.1838 20.75C21.193 20.8029 21.2022 20.9118 21.1991 20.9647C21.1991 20.9735 21.1991 20.9765 21.1991 20.9794ZM25.9956 19.4206C25.9986 19.3735 25.9925 19.2765 25.9864 19.2324C25.9741 19.1529 25.9588 19.0735 25.9434 18.9941C25.879 18.6412 25.7656 18.2882 25.5938 17.9676C25.5907 17.9647 25.5907 17.9588 25.5877 17.9559C25.5202 17.8206 25.4374 17.6882 25.3454 17.5647C25.2013 17.3765 25.0203 17.2235 24.8547 17.1382C24.2475 16.8294 23.3182 16.5206 22.5393 16.0647C22.5301 16.0618 22.5117 16.05 22.5117 16.05C22.5117 16.05 22.9134 15.2 23.0024 14.8471C23.263 14.6 23.5513 14.4176 23.5513 13.9647C23.5513 13.6647 23.5145 13.5088 23.355 13.5118L23.3428 12.6412C23.3428 12.6412 23.3673 11.0029 21.4076 11.0029C19.451 11.0029 19.4755 12.6412 19.4755 12.6412L19.4633 13.5088C19.3007 13.5059 19.2639 13.6588 19.2639 13.9618C19.2639 14.4147 19.5553 14.5971 19.816 14.8441C19.908 15.2 20.3036 16.0471 20.3036 16.0471C20.3036 16.0471 20.2882 16.0559 20.279 16.0618C20.0092 16.2206 18.8315 16.7882 18.0893 17.1853C18.8714 17.5824 19.7148 17.8794 20.2974 18.1765C20.4876 18.2735 20.6931 18.4441 20.8587 18.6618C20.9629 18.8029 21.0549 18.9529 21.1377 19.1059C21.1408 19.1088 21.1408 19.1147 21.1439 19.1176C21.1991 19.2265 21.2512 19.3353 21.2972 19.4471H25.9986C26.0017 19.4382 25.9986 19.4324 25.9986 19.4265C25.9986 19.4265 25.9986 19.4235 25.9956 19.4206ZM6 19.4294C6 19.4353 6 19.4412 6 19.4471H10.7014C10.7443 19.3353 10.7995 19.2235 10.8548 19.1176C10.8578 19.1147 10.8578 19.1088 10.8609 19.1059C10.9406 18.95 11.0326 18.8029 11.14 18.6618C11.3056 18.4441 11.511 18.2735 11.7012 18.1765C12.2839 17.8794 13.1273 17.5824 13.9093 17.1853C13.1671 16.7882 11.9895 16.2206 11.7196 16.0618C11.7104 16.0588 11.6951 16.0471 11.6951 16.0471C11.6951 16.0471 12.0907 15.1971 12.1827 14.8441C12.4434 14.5971 12.7347 14.4147 12.7347 13.9618C12.7347 13.6618 12.6979 13.5059 12.5354 13.5088L12.5231 12.6382C12.5231 12.6382 12.5476 11 10.591 11C8.63439 11 8.65892 12.6382 8.65892 12.6382L8.64665 13.5088C8.48718 13.5059 8.45038 13.6588 8.45038 13.9618C8.45038 14.4147 8.73866 14.5971 8.99934 14.8441C9.08827 15.2 9.49002 16.0471 9.49002 16.0471C9.49002 16.0471 9.47162 16.0559 9.46242 16.0618C8.68345 16.5176 7.75115 16.8265 7.14699 17.1353C6.97831 17.2206 6.80044 17.3706 6.6563 17.5618C6.56429 17.6853 6.48149 17.8176 6.41402 17.9529C6.41095 17.9559 6.41095 17.9618 6.40789 17.9647C6.23614 18.2882 6.12267 18.6412 6.05827 18.9912C6.04294 19.0735 6.0276 19.1529 6.01533 19.2294C6.00613 19.2765 6 19.3735 6.00307 19.4206C6 19.4235 6 19.4265 6 19.4294Z" />
</svg>
