<svg viewBox="0 0 32 32" xmlns="http://www.w3.org/2000/svg">
  <path d="M23.0893 22.7902V22.8182H8.8203C8.81612 22.8062 8.8203 22.7982 8.8203 22.7902C8.82448 22.7862 8.82448 22.7822 8.82448 22.7781C8.8203 22.7059 8.83285 22.5576 8.84539 22.4854C8.85794 22.3971 8.90394 22.1364 8.90812 22.1284C8.99594 21.6271 9.40996 20.5963 9.42669 20.5642C9.43087 20.5602 9.68598 20.099 9.84071 19.8945C10.0665 19.5977 13.6003 17.9172 14.2067 17.5642C14.2193 17.5602 14.2444 17.5442 14.2444 17.5442C14.2444 17.5442 13.6254 16.2848 13.4874 15.7273C13.0818 15.3463 12.6301 15.0094 12.6301 14.3035C12.6301 13.8343 12.6887 13.5977 12.9396 13.6017L12.9605 12.2461C12.9605 12.2461 12.9228 9.69926 15.9632 9.69926C19.0035 9.69926 18.97 12.2461 18.97 12.2461L18.9784 13.5936C19.2293 13.5896 19.2879 13.8263 19.2879 14.2955C19.2879 15.0014 18.8362 15.3383 18.4306 15.7193C18.2925 16.2768 17.6736 17.5362 17.6736 17.5362C17.6736 17.5362 17.6987 17.5522 17.7112 17.5562C17.9036 17.6685 18.1002 17.7768 18.3009 17.8731C19.3673 18.4145 20.5174 18.8196 21.312 19.2247C21.5712 19.357 21.8514 19.5896 22.0773 19.8864C22.2195 20.0789 22.3449 20.2835 22.4578 20.492C22.462 20.4961 22.462 20.5041 22.4662 20.5081C22.5415 20.6565 22.6126 20.8049 22.6753 20.9573C22.83 21.3303 22.9346 21.7193 23.0057 22.1043C23.0308 22.2287 23.0517 22.353 23.0684 22.4773C23.0809 22.5495 23.0935 22.6979 23.0893 22.7701C23.0893 22.7822 23.0893 22.7862 23.0893 22.7902ZM29.63 20.6645C29.6341 20.6003 29.6258 20.468 29.6174 20.4078C29.6007 20.2995 29.5798 20.1912 29.5589 20.083C29.4711 19.6017 29.3163 19.1204 29.0821 18.6832C29.0779 18.6792 29.0779 18.6712 29.0738 18.6672C28.9818 18.4827 28.8688 18.3022 28.7434 18.1338C28.5468 17.8771 28.3001 17.6685 28.0743 17.5522C27.2462 17.1311 25.9791 16.71 24.9168 16.0883C24.9043 16.0843 24.8792 16.0682 24.8792 16.0682C24.8792 16.0682 25.4271 14.9092 25.5483 14.4279C25.9038 14.091 26.2969 13.8423 26.2969 13.2247C26.2969 12.8156 26.2467 12.603 26.0293 12.607L26.0125 11.4199C26.0125 11.4199 26.046 9.1859 23.3737 9.1859C20.7056 9.1859 20.739 11.4199 20.739 11.4199L20.7223 12.603C20.5006 12.599 20.4505 12.8076 20.4505 13.2207C20.4505 13.8383 20.8478 14.087 21.2032 14.4239C21.3287 14.9092 21.8682 16.0642 21.8682 16.0642C21.8682 16.0642 21.8473 16.0763 21.8347 16.0843C21.4667 16.3009 19.8608 17.0749 18.8488 17.6164C19.9152 18.1578 21.0652 18.5629 21.8598 18.968C22.1191 19.1003 22.3993 19.333 22.6251 19.6297C22.7673 19.8223 22.8928 20.0268 23.0057 20.2354C23.0099 20.2394 23.0099 20.2474 23.014 20.2514C23.0893 20.3998 23.1604 20.5482 23.2231 20.7006H29.6342C29.6383 20.6886 29.6342 20.6805 29.6342 20.6725C29.6342 20.6725 29.6341 20.6685 29.63 20.6645ZM2.36328 20.6765C2.36328 20.6846 2.36328 20.6926 2.36328 20.7006H8.7743C8.83285 20.5482 8.90812 20.3958 8.9834 20.2514C8.98758 20.2474 8.98758 20.2394 8.99176 20.2354C9.1005 20.0228 9.22596 19.8223 9.37233 19.6297C9.59815 19.333 9.87835 19.1003 10.1376 18.968C10.9322 18.5629 12.0823 18.1578 13.1487 17.6164C12.1366 17.0749 10.5307 16.3009 10.1627 16.0843C10.1502 16.0803 10.1293 16.0642 10.1293 16.0642C10.1293 16.0642 10.6687 14.9051 10.7942 14.4239C11.1497 14.087 11.547 13.8383 11.547 13.2207C11.547 12.8116 11.4968 12.599 11.2751 12.603L11.2584 11.4158C11.2584 11.4158 11.2919 9.18188 8.62375 9.18188C5.95563 9.18188 5.98908 11.4158 5.98908 11.4158L5.97235 12.603C5.75489 12.599 5.7047 12.8076 5.7047 13.2207C5.7047 13.8383 6.09781 14.087 6.45328 14.4239C6.57456 14.9092 7.12241 16.0642 7.12241 16.0642C7.12241 16.0642 7.09731 16.0763 7.08477 16.0843C6.02254 16.7059 4.75121 17.1271 3.92735 17.5482C3.69734 17.6645 3.45479 17.8691 3.25823 18.1297C3.13277 18.2982 3.01986 18.4787 2.92785 18.6632C2.92367 18.6672 2.92367 18.6752 2.91949 18.6792C2.6853 19.1204 2.53056 19.6017 2.44274 20.0789C2.42183 20.1912 2.40092 20.2995 2.38419 20.4038C2.37165 20.468 2.36328 20.6003 2.36746 20.6645C2.36328 20.6685 2.36328 20.6725 2.36328 20.6765Z"/>
</svg>
