<svg viewBox="0 0 32 32" xmlns="http://www.w3.org/2000/svg">
  <path d="M27.4094 7.45937L24.0812 4.13438C23.675 3.72813 23.1313 3.5 22.5562 3.5C21.9812 3.5 21.4375 3.725 21.0312 4.13438L17.4469 7.7125C17.0406 8.11875 16.8125 8.66563 16.8125 9.24062C16.8125 9.81875 17.0375 10.3594 17.4469 10.7687L20.2469 13.5719C19.609 15.0581 18.6925 16.4084 17.5469 17.55C16.4 18.7031 15.0594 19.6125 13.5719 20.2562L10.7719 17.4531C10.3656 17.0469 9.82187 16.8187 9.24687 16.8187C8.96326 16.8177 8.68229 16.8733 8.42042 16.9822C8.15856 17.0911 7.92107 17.2512 7.72188 17.4531L4.13438 21.0312C3.72813 21.4375 3.5 21.9844 3.5 22.5594C3.5 23.1375 3.725 23.6781 4.13438 24.0875L7.45937 27.4125C8.15312 28.1062 9.10938 28.5031 10.0906 28.5031C10.2937 28.5031 10.4906 28.4875 10.6906 28.4531C14.8281 27.7719 18.9344 25.5687 22.25 22.2562C25.5625 18.9375 27.7625 14.8312 28.45 10.6906C28.6469 9.51562 28.2531 8.30625 27.4094 7.45937ZM26.2344 10.3187C25.625 14.0031 23.6437 17.6781 20.6594 20.6625C17.675 23.6469 14.0031 25.6281 10.3188 26.2375C9.85625 26.3156 9.38125 26.1594 9.04375 25.825L5.77812 22.5594L9.24063 19.0937L12.9844 22.8437L13.0125 22.8719L13.6875 22.6219C15.7341 21.8694 17.5927 20.6809 19.1343 19.1387C20.676 17.5965 21.8639 15.7375 22.6156 13.6906L22.8656 13.0156L19.0906 9.24375L22.5531 5.77812L25.8188 9.04375C26.1562 9.38125 26.3125 9.85625 26.2344 10.3187Z" />
</svg>
