<svg viewBox="0 0 32 32" xmlns="http://www.w3.org/2000/svg">
  <path fill-rule="evenodd" clip-rule="evenodd" d="M16 28C9.37258 28 4 22.6274 4 16C4 9.37258 9.37258 4 16 4C22.6274 4 28 9.37258 28 16C28 22.6274 22.6274 28 16 28Z" />
  <path d="M15.4444 15.4444H11.5556C11.2487 15.4444 11 15.6932 11 16C11 16.3068 11.2487 16.5556 11.5556 16.5556H15.4444V20.4444C15.4444 20.7513 15.6932 21 16 21C16.3068 21 16.5556 20.7513 16.5556 20.4444V16.5556H20.4444C20.7513 16.5556 21 16.3068 21 16C21 15.6932 20.7513 15.4444 20.4444 15.4444H16.5556V11.5556C16.5556 11.2487 16.3068 11 16 11C15.6932 11 15.4444 11.2487 15.4444 11.5556V15.4444Z" fill="white"/>
  <path fill-rule="evenodd" clip-rule="evenodd" d="M14.9444 11.5556C14.9444 10.9726 15.417 10.5 16 10.5C16.583 10.5 17.0556 10.9726 17.0556 11.5556V14.9444H20.4444C21.0274 14.9444 21.5 15.417 21.5 16C21.5 16.583 21.0274 17.0556 20.4444 17.0556H17.0556V20.4444C17.0556 21.0274 16.583 21.5 16 21.5C15.417 21.5 14.9444 21.0274 14.9444 20.4444V17.0556H11.5556C10.9726 17.0556 10.5 16.583 10.5 16C10.5 15.417 10.9726 14.9444 11.5556 14.9444H14.9444V11.5556ZM16 11.5C15.9693 11.5 15.9444 11.5249 15.9444 11.5556V15.9444H11.5556C11.5249 15.9444 11.5 15.9693 11.5 16C11.5 16.0307 11.5249 16.0556 11.5556 16.0556H15.9444V20.4444C15.9444 20.4751 15.9693 20.5 16 20.5C16.0307 20.5 16.0556 20.4751 16.0556 20.4444V16.0556H20.4444C20.4751 16.0556 20.5 16.0307 20.5 16C20.5 15.9693 20.4751 15.9444 20.4444 15.9444H16.0556V11.5556C16.0556 11.5249 16.0307 11.5 16 11.5Z" fill="white"/>
</svg>
