<svg viewBox="0 0 32 32" xmlns="http://www.w3.org/2000/svg">
<path d="M10.1563 10.367L12.0039 11.3176C12.5364 11.5916 12.7366 12.2278 12.4511 12.7388C12.3604 12.9012 12.2267 13.0378 12.0635 13.1349L5.89832 16.8028C5.38483 17.1083 4.71046 16.9566 4.39208 16.4638C4.29089 16.3072 4.23444 16.1278 4.2284 15.9436L4.00055 8.98646C3.98157 8.40699 4.45574 7.92248 5.05962 7.90427C5.25156 7.89849 5.44171 7.94128 5.61095 8.02835L7.28007 8.88713C10.3929 5.63692 15.2651 4.16443 19.9823 5.47947C26.6131 7.32798 30.4268 13.9844 28.5003 20.347C26.5739 26.7096 19.6369 30.369 13.0061 28.5205C10.5247 27.8288 8.37236 26.4421 6.78048 24.5545C6.23752 23.9107 6.34129 22.9664 7.01224 22.4454C7.6832 21.9244 8.66727 22.024 9.21022 22.6678C10.4039 24.0832 12.0145 25.1209 13.8781 25.6404C18.8512 27.0268 24.054 24.2822 25.4988 19.5103C26.9436 14.7383 24.0834 9.74598 19.1103 8.3596C15.8497 7.45064 12.4905 8.31738 10.1563 10.367Z"/>
</svg>
