<svg viewBox="0 0 32 32" xmlns="http://www.w3.org/2000/svg">
  <path fill-rule="evenodd" clip-rule="evenodd" d="M7 14C7 10.1792 10.2663 7 14.3997 7C18.5333 7 21.8 10.1793 21.8 14C21.8 17.8207 18.5333 21 14.3997 21C10.2663 21 7 17.8208 7 14ZM14.3997 5C9.25471 5 5 8.98389 5 14C5 19.0161 9.25471 23 14.3997 23C16.2313 23 17.9501 22.4951 19.4044 21.6185L24.493 26.7071C24.8835 27.0977 25.5167 27.0977 25.9072 26.7071C26.2977 26.3166 26.2977 25.6834 25.9072 25.2929L21.0118 20.3976C22.7289 18.7733 23.8 16.5166 23.8 14C23.8 8.98381 19.5447 5 14.3997 5Z" />
</svg>
