<svg viewBox="0 0 32 32" xmlns="http://www.w3.org/2000/svg">
  <path fill-rule="evenodd" clip-rule="evenodd" d="M15.893 19.6929C16.2835 19.3024 16.9167 19.3024 17.3072 19.6929L22.9072 25.2929C23.2977 25.6834 23.2977 26.3166 22.9072 26.7071C22.5167 27.0977 21.8835 27.0977 21.493 26.7071L15.893 21.1071C15.5025 20.7166 15.5025 20.0834 15.893 19.6929Z" />
  <path fill-rule="evenodd" clip-rule="evenodd" d="M11.3997 7C7.26627 7 4 10.1792 4 14C4 17.8208 7.26627 21 11.3997 21C15.5333 21 18.8 17.8207 18.8 14C18.8 10.1793 15.5333 7 11.3997 7ZM2 14C2 8.98389 6.25471 5 11.3997 5C16.5447 5 20.8 8.98381 20.8 14C20.8 19.0162 16.5447 23 11.3997 23C6.25471 23 2 19.0161 2 14Z" />
  <path fill-rule="evenodd" clip-rule="evenodd" d="M21.2 9C21.2 8.44772 21.6477 8 22.2 8H29.4C29.9522 8 30.4 8.44772 30.4 9C30.4 9.55228 29.9522 10 29.4 10H22.2C21.6477 10 21.2 9.55228 21.2 9Z" />
  <path fill-rule="evenodd" clip-rule="evenodd" d="M21.2 13C21.2 12.4477 21.6477 12 22.2 12H29.4C29.9522 12 30.4 12.4477 30.4 13C30.4 13.5523 29.9522 14 29.4 14H22.2C21.6477 14 21.2 13.5523 21.2 13Z" />
  <path fill-rule="evenodd" clip-rule="evenodd" d="M21.2 17C21.2 16.4477 21.6477 16 22.2 16H29.4C29.9522 16 30.4 16.4477 30.4 17C30.4 17.5523 29.9522 18 29.4 18H22.2C21.6477 18 21.2 17.5523 21.2 17Z" />
</svg>
