<svg viewBox="0 0 32 32" fill="none" xmlns="http://www.w3.org/2000/svg">
<path d="M11.8215 16.5L20.7609 10.67C21.3466 10.288 21.3466 9.66856 20.7609 9.28653C20.1751 8.90449 19.2253 8.90449 18.6395 9.28653L8.63954 15.8083C8.34664 15.9993 8.2002 16.2496 8.2002 16.5C8.2002 16.7504 8.34664 17.0007 8.63954 17.1917L18.6395 23.7135C19.2253 24.0955 20.1751 24.0955 20.7609 23.7135C21.3466 23.3314 21.3466 22.712 20.7609 22.33L11.8215 16.5Z" />
<path d="M24.2002 9C24.2002 10.6569 22.857 12 21.2002 12C19.5433 12 18.2002 10.6569 18.2002 9C18.2002 7.34315 19.5433 6 21.2002 6C22.857 6 24.2002 7.34315 24.2002 9Z" />
<path d="M24.2002 24C24.2002 25.6569 22.857 27 21.2002 27C19.5433 27 18.2002 25.6569 18.2002 24C18.2002 22.3431 19.5433 21 21.2002 21C22.857 21 24.2002 22.3431 24.2002 24Z" />
<path d="M12.2002 16C12.2002 17.6569 10.857 19 9.2002 19C7.54334 19 6.2002 17.6569 6.2002 16C6.2002 14.3431 7.54334 13 9.2002 13C10.857 13 12.2002 14.3431 12.2002 16Z" />
</svg>
