<svg viewBox="0 0 32 32" xmlns="http://www.w3.org/2000/svg">
  <path fill-rule="evenodd" clip-rule="evenodd" d="M14.7415 5.78749C14.8605 5.58658 15.2454 5 15.9885 5C16.7316 5 17.1165 5.58658 17.2354 5.78749C17.3922 6.05244 17.4898 6.34336 17.5346 6.47695L17.54 6.49288L19.3313 12.2721L25.0542 12.25C25.2268 12.25 25.5816 12.2629 25.9267 12.3697C26.1945 12.4527 27 12.7799 27 13.7C27 14.2137 26.7206 14.5949 26.5604 14.7819C26.3819 14.9903 26.1809 15.1521 26.0437 15.2521L21.3699 18.8223L23.1402 24.6005C23.2597 24.9239 23.286 25.2463 23.286 25.5C23.286 25.6865 23.2652 26.0024 23.1059 26.3071C23.0193 26.4728 22.8802 26.6563 22.6646 26.7961C22.4436 26.9394 22.1985 27 21.9631 27C21.5859 27 21.2802 26.8651 21.0831 26.7558C20.9167 26.6635 20.7599 26.5488 20.6726 26.4849C20.66 26.4756 20.6488 26.4675 20.6393 26.4606L20.6297 26.4537L15.9885 22.9305L11.3763 26.4316C11.1534 26.6181 10.6632 27 10.0138 27C9.51804 27 9.13632 26.7357 8.91937 26.4066C8.72514 26.1119 8.66782 25.7855 8.66782 25.525C8.66782 25.1813 8.74499 24.8708 8.83247 24.6145L10.6282 18.8208L5.9563 15.2521C5.81916 15.1521 5.61811 14.9903 5.43958 14.7819C5.27939 14.5949 5 14.2137 5 13.7C5 12.7988 5.77039 12.4626 6.05386 12.3722C6.39739 12.2627 6.75035 12.25 6.92272 12.25H6.92658L12.6662 12.2721L14.4364 6.49442L14.4423 6.47696C14.4871 6.34338 14.5847 6.05244 14.7415 5.78749ZM15.9905 8.24934L14.1435 14.2779L7.94433 14.2539L12.952 18.0792L11.0691 24.1538L15.9885 20.4195L20.9128 24.1576L19.05 18.0777L24.0558 14.2539L17.8591 14.2779L15.9905 8.24934ZM9.92894 25.0126C9.92894 25.0126 9.92947 25.0124 9.93053 25.012L9.92894 25.0126ZM6.66125 14.2778C6.66114 14.2778 6.66136 14.2777 6.66125 14.2778V14.2778Z" />
</svg>
