<svg viewBox="0 0 32 32" xmlns="http://www.w3.org/2000/svg">
  <path fill-rule="evenodd" clip-rule="evenodd" d="M14.7768 6.80925C15.1728 6.42433 15.8059 6.43336 16.1909 6.82942L25.8088 16.7257C26.1898 17.1178 26.1853 17.7432 25.7987 18.1298L16.8666 27.0619C16.6775 27.251 16.4206 27.3565 16.1532 27.3548C15.8858 27.3531 15.6302 27.2443 15.4435 27.0529L5.81034 17.1718C5.4248 16.7764 5.43285 16.1432 5.8283 15.7577C6.22375 15.3722 6.85687 15.3802 7.2424 15.7757L16.1686 24.9315L23.6874 17.4127L14.7566 8.22332C14.3717 7.82726 14.3807 7.19416 14.7768 6.80925Z" />
  <path fill-rule="evenodd" clip-rule="evenodd" d="M5.2929 6.2929C5.49407 6.09172 5.77141 5.98576 6.05547 6.00154L15.5292 6.52786C16.0806 6.55849 16.5028 7.03035 16.4721 7.58179C16.4415 8.13322 15.9697 8.55541 15.4182 8.52478L7.06046 8.06046L7.52478 16.4182C7.55541 16.9697 7.13322 17.4415 6.58179 17.4721C6.03035 17.5028 5.55849 17.0806 5.52786 16.5292L5.00154 7.05547C4.98576 6.77141 5.09172 6.49407 5.2929 6.2929Z" />
  <path fill-rule="evenodd" clip-rule="evenodd" d="M12.5883 14.6686C12.7863 14.6544 12.9865 14.5733 13.1481 14.4117C13.4139 14.1458 13.5992 13.5274 13.1204 13.038C13.1172 13.0347 13.114 13.0315 13.1107 13.0282C12.6198 12.5373 11.9949 12.7233 11.7273 12.9909C11.6008 13.1173 11.5086 13.2912 11.4852 13.504C11.4612 13.7223 11.5099 14.0659 11.7881 14.3508C11.7913 14.3541 11.7946 14.3573 11.7978 14.3606C12.0714 14.6342 12.3928 14.6827 12.5883 14.6686ZM12.373 11.6764C12.8521 11.6419 13.4519 11.772 13.9191 12.2393C14.9054 13.2255 14.4178 14.5429 13.8486 15.1122C13.1526 15.8082 11.8677 16.0278 10.9894 15.1495C10.1111 14.2713 10.3307 12.9864 11.0268 12.2903C11.4026 11.9145 11.8914 11.711 12.373 11.6764Z" />
</svg>
