<svg viewBox="0 0 32 32" xmlns="http://www.w3.org/2000/svg">
  <path fill-rule="evenodd" clip-rule="evenodd" d="M19.3333 7.35714V8.14286H26V9.71429H24.3333V24.6429C24.3333 25.9447 23.214 27 21.8333 27H10.1667C8.78595 27 7.66667 25.9447 7.66667 24.6429V9.71429H6V8.14286H12.6667V7.35714C12.6667 6.05533 13.786 5 15.1667 5H16.8333C18.214 5 19.3333 6.05533 19.3333 7.35714ZM15.1659 6.57202C14.7057 6.57202 14.3326 6.9238 14.3326 7.35774V8.14345H17.6659V7.35774C17.6659 6.9238 17.2928 6.57202 16.8326 6.57202H15.1659ZM22.6675 24.6429C22.6675 25.0769 22.2944 25.4286 21.8342 25.4286H10.1675C9.70725 25.4286 9.33415 25.0769 9.33415 24.6429V9.71436H22.6675V24.6429ZM11.8335 12.8577H13.5001V22.2862H11.8335V12.8577ZM16.8341 12.8577H15.1674V22.2862H16.8341V12.8577ZM20.1659 12.8577H18.4992V22.2862H20.1659V12.8577Z" />
</svg>
