<svg viewBox="0 0 32 32" xmlns="http://www.w3.org/2000/svg">
  <path d="M21.1362 20.1487C21.8129 19.7849 22.5875 19.5779 23.4124 19.5779H23.4152C23.4991 19.5779 23.5382 19.4771 23.4767 19.4212C22.6189 18.6508 21.6389 18.0286 20.577 17.58C20.5658 17.5745 20.5546 17.5717 20.5434 17.5661C22.2799 16.3041 23.4096 14.2532 23.4096 11.9392C23.4096 8.10584 20.3113 5 16.4888 5C12.6664 5 9.5709 8.10584 9.5709 11.9392C9.5709 14.2532 10.7006 16.3041 12.4399 17.5661C12.4287 17.5717 12.4175 17.5745 12.4063 17.58C11.1564 18.1089 10.0351 18.8672 9.07037 19.8353C8.11123 20.7933 7.34763 21.929 6.82217 23.179C6.30518 24.403 6.02616 25.7144 6.00007 27.0431C5.99932 27.0729 6.00456 27.1026 6.01547 27.1304C6.02637 27.1583 6.04273 27.1836 6.06358 27.205C6.08443 27.2264 6.10934 27.2433 6.13685 27.2549C6.16436 27.2665 6.19392 27.2725 6.22377 27.2725H7.89873C8.01897 27.2725 8.11964 27.1746 8.12243 27.0543C8.17836 24.8942 9.0424 22.8712 10.572 21.3378C12.1518 19.7513 14.2546 18.8783 16.4916 18.8783C18.0771 18.8783 19.5983 19.3176 20.9097 20.1403C20.9434 20.1614 20.9821 20.1734 21.0219 20.1749C21.0616 20.1763 21.1011 20.1673 21.1362 20.1487ZM16.4916 16.7518C15.211 16.7518 14.0058 16.251 13.097 15.3416C12.6498 14.8953 12.2954 14.365 12.054 13.781C11.8126 13.1971 11.689 12.5711 11.6905 11.9392C11.6905 10.6549 12.191 9.44611 13.097 8.53674C14.003 7.62737 15.2082 7.12652 16.4916 7.12652C17.7751 7.12652 18.9775 7.62737 19.8863 8.53674C20.3334 8.983 20.6879 9.51338 20.9293 10.0973C21.1707 10.6813 21.2943 11.3072 21.2928 11.9392C21.2928 13.2235 20.7923 14.4322 19.8863 15.3416C18.9775 16.251 17.7723 16.7518 16.4916 16.7518ZM26.7763 23.4112H24.4274V21.0608C24.4274 20.9377 24.3268 20.837 24.2037 20.837H22.6378C22.5148 20.837 22.4141 20.9377 22.4141 21.0608V23.4112H20.0653C19.9422 23.4112 19.8416 23.5119 19.8416 23.635V25.2019C19.8416 25.3251 19.9422 25.4258 20.0653 25.4258H22.4141V27.7762C22.4141 27.8993 22.5148 28 22.6378 28H24.2037C24.3268 28 24.4274 27.8993 24.4274 27.7762V25.4258H26.7763C26.8993 25.4258 27 25.3251 27 25.2019V23.635C27 23.5119 26.8993 23.4112 26.7763 23.4112Z" />
</svg>
