<svg viewBox="0 0 16 12" xmlns="http://www.w3.org/2000/svg">
<path d="M15.9091 3.3544C15.836 3.26982 15.7277 3.21961 15.6168 3.21961H14.4746V0.872657C14.4746 0.666506 14.3041 0.5 14.093 0.5H1.90261C1.6942 0.5 1.52369 0.666506 1.52369 0.872657V1.92984H0.381517C0.270548 1.92984 0.164992 1.97741 0.0919149 2.05935C0.0188376 2.14128 -0.0136412 2.25228 0.00530479 2.358L1.5291 11.1855C1.55887 11.3652 1.71856 11.5 1.90531 11.5H14.0957C14.2797 11.5 14.4367 11.3705 14.4719 11.1961L15.9957 3.66098C16.0119 3.55262 15.9822 3.43897 15.9091 3.3544ZM2.28423 1.24531H13.7113V3.22225H6.21687L4.40618 1.99592C4.34122 1.95363 4.26814 1.92984 4.18965 1.92984H2.28423V1.24531ZM13.7763 10.7573H2.2301L0.8281 2.67251H4.07327L5.88396 3.89885C5.94892 3.94113 6.0247 3.96492 6.10049 3.96492H15.1621L13.7763 10.7573Z"/>
</svg>
