<svg viewBox="0 0 32 32" xmlns="http://www.w3.org/2000/svg">
  <path fill-rule="evenodd" clip-rule="evenodd" d="M19.2563 7.73391C20.0199 6.76561 20.5988 5.397 20.3894 4C19.1414 4.0852 17.6825 4.86958 16.8313 5.89197C16.0554 6.81835 15.4176 8.19642 15.6667 9.53392C17.0311 9.57584 18.4393 8.77253 19.2563 7.73391V7.73391ZM26 20.8749C25.454 22.0704 25.1912 22.6046 24.4878 23.6635C23.5066 25.1417 22.123 26.9822 20.4069 26.9958C18.8837 27.012 18.491 26.0153 16.4231 26.0275C14.3553 26.0383 13.9242 27.0147 12.3984 26.9998C10.6836 26.9849 9.37257 25.3242 8.39134 23.8461C5.64611 19.7159 5.35735 14.8677 7.0502 12.2887C8.25449 10.4576 10.154 9.3865 11.9385 9.3865C13.7545 9.3865 14.8973 10.371 16.4013 10.371C17.8601 10.371 18.7483 9.38379 20.8489 9.38379C22.4391 9.38379 24.1238 10.2398 25.3226 11.7166C21.3922 13.8453 22.0286 19.3914 26 20.8749V20.8749Z" />
</svg>
