<svg viewBox="0 0 32 32" xmlns="http://www.w3.org/2000/svg">
  <path fill-rule="evenodd" clip-rule="evenodd" d="M26.5 14.5719H9.12129L14.0607 8.92671C14.6472 8.25643 14.6472 7.173 14.0607 6.50271C13.4742 5.83243 12.5262 5.83243 11.9398 6.50271L4.43987 15.0741C3.85338 15.7444 3.85338 16.8279 4.43987 17.4981L11.9398 26.0696C12.2322 26.4039 12.6162 26.5719 13.0002 26.5719C13.3842 26.5719 13.7682 26.4039 14.0607 26.0696C14.6472 25.3993 14.6472 24.3159 14.0607 23.6456L9.12129 18.0004H26.5C27.3295 18.0004 28 17.2324 28 16.2861C28 15.3399 27.3295 14.5719 26.5 14.5719Z" />
</svg>
