<svg viewBox="0 0 32 32" xmlns="http://www.w3.org/2000/svg">
  <path d="M22.3729 5.48596C22.7201 5.13883 23.2829 5.13883 23.63 5.48596L27.4012 9.2572C27.7484 9.60433 27.7484 10.1671 27.4012 10.5143C27.0541 10.8614 26.4913 10.8614 26.1442 10.5143L22.3729 6.74304C22.0258 6.39591 22.0258 5.83309 22.3729 5.48596Z" />
  <path fill-rule="evenodd" clip-rule="evenodd" d="M11.3736 16.1556C10.9573 16.5714 10.692 17.014 10.522 17.5773L10.5216 17.5786L8.92673 22.854C8.72605 23.5174 9.36339 24.1596 10.0285 23.9638L15.3298 22.4044C15.904 22.2357 16.3539 21.9688 16.7768 21.5453L29.9987 8.32353C31.1141 7.20833 29.3685 4.99982 28.628 4.26003C27.8853 3.51804 25.7159 1.81292 24.6023 2.92703L11.3736 16.1556ZM28.4956 7.31251L15.547 20.261C15.3026 20.5055 15.1232 20.612 14.7917 20.7094L11.1044 21.7942L12.2126 18.1288C12.3108 17.8039 12.4172 17.6262 12.6572 17.3862L25.6228 4.4206C26.8044 4.58487 28.3205 6.1433 28.4956 7.31251Z" />
  <path d="M11.3736 16.1556L11.727 16.5093L11.7272 16.5091L11.3736 16.1556ZM10.522 17.5773L10.9978 17.7314L11.0007 17.7218L10.522 17.5773ZM10.5216 17.5786L10.0458 17.4245L10.043 17.4339L10.5216 17.5786ZM8.92673 22.854L9.40532 22.9987L9.40534 22.9987L8.92673 22.854ZM10.0285 23.9638L9.88735 23.4842L9.88729 23.4842L10.0285 23.9638ZM15.3298 22.4044L15.1889 21.9246L15.1887 21.9247L15.3298 22.4044ZM16.7768 21.5453L16.4233 21.1918L16.4231 21.192L16.7768 21.5453ZM29.9987 8.32353L29.6452 7.96995L29.6452 7.96998L29.9987 8.32353ZM28.628 4.26003L28.9814 3.90632L28.9814 3.9063L28.628 4.26003ZM24.6023 2.92703L24.9558 3.28059L24.9559 3.2805L24.6023 2.92703ZM28.4956 7.31251L28.8492 7.66606L29.0275 7.48779L28.9901 7.23845L28.4956 7.31251ZM15.547 20.261L15.1935 19.9075L15.1934 19.9075L15.547 20.261ZM14.7917 20.7094L14.6507 20.2297L14.6506 20.2297L14.7917 20.7094ZM11.1044 21.7942L10.6258 21.6495L10.3581 22.535L11.2455 22.2739L11.1044 21.7942ZM12.2126 18.1288L12.6912 18.2735L12.6912 18.2734L12.2126 18.1288ZM12.6572 17.3862L13.0107 17.7398L13.0107 17.7398L12.6572 17.3862ZM25.6228 4.4206L25.6916 3.92536L25.4451 3.8911L25.2692 4.06705L25.6228 4.4206ZM11.0203 15.8018C10.5456 16.2759 10.2372 16.7904 10.0433 17.4329L11.0007 17.7218C11.1468 17.2377 11.369 16.8669 11.727 16.5093L11.0203 15.8018ZM10.0463 17.4234L10.0459 17.4246L10.9973 17.7325L10.9977 17.7313L10.0463 17.4234ZM10.043 17.4339L8.44812 22.7093L9.40534 22.9987L11.0002 17.7233L10.043 17.4339ZM8.44814 22.7092C8.13236 23.7532 9.12325 24.7514 10.1696 24.4435L9.88729 23.4842C9.60352 23.5677 9.31974 23.2816 9.40532 22.9987L8.44814 22.7092ZM10.1696 24.4435L15.4709 22.884L15.1887 21.9247L9.88735 23.4842L10.1696 24.4435ZM15.4708 22.8841C16.1252 22.6918 16.6483 22.3816 17.1306 21.8987L16.4231 21.192C16.0595 21.5561 15.6828 21.7795 15.1889 21.9246L15.4708 22.8841ZM17.1304 21.8989L30.3523 8.67709L29.6452 7.96998L16.4233 21.1918L17.1304 21.8989ZM30.3522 8.67712C30.7502 8.27923 30.8824 7.78431 30.8586 7.29773C30.8356 6.82628 30.6675 6.3521 30.4571 5.92853C30.0358 5.08061 29.3757 4.30021 28.9814 3.90632L28.2746 4.61375C28.6209 4.95965 29.2038 5.65339 29.5615 6.37348C29.7406 6.73391 29.8461 7.06719 29.8598 7.3466C29.8727 7.61089 29.8049 7.81024 29.6452 7.96995L30.3522 8.67712ZM28.9814 3.9063C28.5861 3.51136 27.814 2.86033 26.9744 2.44857C26.1789 2.05849 25.0574 1.7644 24.2486 2.57356L24.9559 3.2805C25.2607 2.97555 25.7807 2.97697 26.5341 3.34642C27.2432 3.69419 27.9273 4.26671 28.2747 4.61377L28.9814 3.9063ZM24.2487 2.57348L11.0201 15.802L11.7272 16.5091L24.9558 3.28059L24.2487 2.57348ZM28.1421 6.95896L15.1935 19.9075L15.9006 20.6146L28.8492 7.66606L28.1421 6.95896ZM15.1934 19.9075C15.089 20.012 15.0159 20.0694 14.9468 20.1104C14.8777 20.1514 14.7924 20.1881 14.6507 20.2297L14.9326 21.1891C15.1226 21.1333 15.2927 21.068 15.4573 20.9703C15.6218 20.8726 15.7607 20.7546 15.9006 20.6146L15.1934 19.9075ZM14.6506 20.2297L10.9633 21.3145L11.2455 22.2739L14.9328 21.1891L14.6506 20.2297ZM11.583 21.9389L12.6912 18.2735L11.734 17.9841L10.6258 21.6495L11.583 21.9389ZM12.6912 18.2734C12.7655 18.0274 12.8289 17.9215 13.0107 17.7398L12.3036 17.0326C12.0054 17.3309 11.856 17.5803 11.7339 17.9841L12.6912 18.2734ZM13.0107 17.7398L25.9763 4.77415L25.2692 4.06705L12.3036 17.0326L13.0107 17.7398ZM25.5539 4.91584C25.9881 4.9762 26.5668 5.31978 27.0807 5.84079C27.5935 6.36079 27.9358 6.95028 28.0012 7.38657L28.9901 7.23845C28.8804 6.50553 28.3771 5.7312 27.7927 5.13861C27.2092 4.54703 26.4391 4.02927 25.6916 3.92536L25.5539 4.91584Z" />
  <path fill-rule="evenodd" clip-rule="evenodd" d="M7.97146 4.44434H15.5213C16.0122 4.44434 16.4101 4.84231 16.4101 5.33322C16.4101 5.82416 16.0122 6.22211 15.5213 6.22211H7.99989C6.52048 6.22211 6.22211 6.52048 6.22211 7.99989V24.8889C6.22211 26.3682 6.52048 26.6666 7.99989 26.6666H23.9999C25.4794 26.6666 25.7777 26.3682 25.7777 24.8889V17.829C25.7777 17.338 26.1757 16.9401 26.6666 16.9401C27.1574 16.9401 27.5554 17.338 27.5554 17.829V24.9171C27.5554 27.2791 26.3901 28.4444 24.0283 28.4444H7.97146C5.60967 28.4444 4.44427 27.2789 4.44434 24.9171V7.97146C4.44427 5.60967 5.60967 4.44428 7.97146 4.44434Z" />
</svg>
