<svg viewBox="0 0 32 32" fill="none" xmlns="http://www.w3.org/2000/svg">
  <path fill-rule="evenodd" clip-rule="evenodd" d="M28.3391 18.4663L26.3124 17.3223C26.3709 16.8777 26.3995 16.4357 26.3995 16.0002C26.3995 15.5647 26.3709 15.1227 26.3124 14.6768L28.3391 13.5341C28.6433 13.3612 28.8656 13.0752 28.9553 12.7385C29.0463 12.4005 28.9969 12.0404 28.8201 11.7401L26.159 7.23694C25.7989 6.62854 25.0215 6.41924 24.4001 6.76634L22.4618 7.85964C21.6818 7.24084 20.816 6.73514 19.8995 6.36204V4.30024C19.8995 3.58264 19.3184 3.00024 18.5995 3.00024H13.3995C12.6819 3.00024 12.0995 3.58264 12.0995 4.30024V6.36204C11.183 6.73514 10.3172 7.24084 9.53847 7.85964L7.59887 6.76634C6.98137 6.41924 6.20137 6.62854 5.84127 7.23694L3.18017 11.7401C3.00207 12.0404 2.95397 12.4005 3.04497 12.7385C3.13467 13.0752 3.35697 13.3612 3.66117 13.5341L5.68787 14.6768C5.62937 15.1227 5.59947 15.5647 5.59947 16.0002C5.59947 16.4357 5.62937 16.8777 5.68787 17.3223L3.66117 18.4663C3.35697 18.6379 3.13467 18.9252 3.04497 19.2619C2.95397 19.5999 3.00207 19.9587 3.18017 20.2603L5.84127 24.7635C6.20137 25.3719 6.98137 25.5838 7.59887 25.2341L9.53847 24.1395C10.3172 24.7596 11.183 25.2653 12.0995 25.6371V27.7002C12.0995 28.4178 12.6819 29.0002 13.3995 29.0002H18.5995C19.3184 29.0002 19.8995 28.4178 19.8995 27.7002V25.6371C20.816 25.2653 21.6818 24.7596 22.4618 24.1395L24.4001 25.2341C25.0215 25.5838 25.7989 25.3719 26.159 24.7635L28.8201 20.2603C28.9969 19.9587 29.0463 19.5999 28.9553 19.2619C28.8656 18.9252 28.6433 18.6379 28.3391 18.4663ZM23.6031 14.2817C23.7344 14.8641 23.7994 15.4426 23.7994 16.0003C23.7994 16.5567 23.7344 17.1352 23.6031 17.7189C23.477 18.2779 23.7331 18.8538 24.2323 19.1346L25.9054 20.0784L24.5677 22.343L22.9388 21.4239C22.4409 21.1431 21.813 21.2211 21.4009 21.6189C20.5026 22.4808 19.4054 23.1217 18.2289 23.4714C17.6777 23.6352 17.2994 24.1422 17.2994 24.7181V26.4003H14.6994V24.7181C14.6994 24.1422 14.3211 23.6352 13.7712 23.4714C12.5934 23.1217 11.4962 22.4808 10.5992 21.6189C10.1871 21.2211 9.55791 21.1431 9.06001 21.4239L7.43241 22.343L6.09341 20.0784L7.76651 19.1346C8.26701 18.8538 8.52181 18.2779 8.39701 17.7189C8.26571 17.1352 8.19941 16.5567 8.19941 16.0003C8.19941 15.4426 8.26571 14.8641 8.39701 14.2817C8.52181 13.7227 8.26701 13.1468 7.76651 12.8647L6.09341 11.9209L7.43241 9.6563L9.06001 10.5754C9.55921 10.8575 10.1871 10.7795 10.5992 10.3817C11.4962 9.5185 12.5934 8.8789 13.7712 8.5279C14.3211 8.3641 14.6994 7.8571 14.6994 7.2825V5.6003H17.2994V7.2825C17.2994 7.8571 17.6777 8.3641 18.2289 8.5279C19.4054 8.8789 20.5026 9.5185 21.4009 10.3817C21.813 10.7795 22.4396 10.8562 22.9388 10.5754L24.5677 9.6563L25.9054 11.9209L24.2323 12.8647C23.7331 13.1468 23.477 13.7227 23.6031 14.2817ZM15.9999 10.8C13.1321 10.8 10.7999 13.1322 10.7999 16C10.7999 18.8678 13.1321 21.2 15.9999 21.2C18.8677 21.2 21.1999 18.8678 21.1999 16C21.1999 13.1322 18.8677 10.8 15.9999 10.8ZM15.9999 18.6C14.566 18.6 13.3999 17.4339 13.3999 16C13.3999 14.5661 14.566 13.4 15.9999 13.4C17.4338 13.4 18.5999 14.5661 18.5999 16C18.5999 17.4339 17.4338 18.6 15.9999 18.6Z" />
</svg>
