<svg viewBox="0 0 32 32" fill="none" xmlns="http://www.w3.org/2000/svg">
  <path d="M22.5974 9.39893L20.6759 10.3552C20.1221 10.6308 19.9139 11.2709 20.2108 11.7848C20.3052 11.9482 20.4443 12.0856 20.614 12.1833L27.0257 15.8731C27.5598 16.1804 28.2611 16.0277 28.5922 15.5321C28.6975 15.3745 28.7562 15.1941 28.7625 15.0088L28.9994 8.01018C29.0192 7.42727 28.526 6.93988 27.898 6.92156C27.6984 6.91574 27.5006 6.95879 27.3246 7.04638L25.5887 7.91027C22.3513 4.64071 17.2843 3.15946 12.3784 4.48232C5.48238 6.34183 1.51618 13.0379 3.51966 19.4384C5.52315 25.8389 12.7377 29.52 19.6337 27.6605C22.2143 26.9647 24.4527 25.5697 26.1083 23.6709C26.673 23.0232 26.5651 22.0734 25.8673 21.5493C25.1695 21.0252 24.146 21.1253 23.5814 21.773C22.34 23.1968 20.6649 24.2406 18.7268 24.7633C13.5548 26.1579 8.14388 23.397 6.64126 18.5966C5.13865 13.7963 8.1133 8.77423 13.2853 7.3796C16.6763 6.46523 20.1699 7.33713 22.5974 9.39893Z" />
</svg>
