<svg viewBox="0 0 292 91" fill="none" xmlns="http://www.w3.org/2000/svg">
<mask id="mask0" mask-type="alpha" maskUnits="userSpaceOnUse" x="17" y="12">
<path d="M43 13.8868C46.094 12.1004 49.906 12.1004 53 13.8868L73.3109 25.6132C76.4049 27.3996 78.3109 30.7008 78.3109 34.2735V57.7265C78.3109 61.2992 76.4049 64.6004 73.3109 66.3868L53 78.1133C49.906 79.8996 46.094 79.8996 43 78.1133L22.6891 66.3868C19.5951 64.6004 17.6891 61.2992 17.6891 57.7265V34.2735C17.6891 30.7008 19.5951 27.3996 22.6891 25.6132L43 13.8868Z" fill="#091D9D"/>
</mask>
<g mask="url(#mask0)">
<path d="M43 13.8868C46.094 12.1004 49.906 12.1004 53 13.8868L73.3109 25.6132C76.4049 27.3996 78.3109 30.7008 78.3109 34.2735V57.7265C78.3109 61.2992 76.4049 64.6004 73.3109 66.3868L53 78.1133C49.906 79.8996 46.094 79.8996 43 78.1133L22.6891 66.3868C19.5951 64.6004 17.6891 61.2992 17.6891 57.7265V34.2735C17.6891 30.7008 19.5951 27.3996 22.6891 25.6132L43 13.8868Z" fill="#0A0996"/>
<path d="M37.9353 50.1829C24.5276 42.2557 13.3092 50.2371 9.37592 55.2187L19.6016 69.5503L48.6031 92.1272L76.3823 69.568L89.1983 15.6336C77.6972 30.453 51.343 58.1101 37.9353 50.1829Z" fill="#76FBEB" fill-opacity="0.45"/>
<path d="M37.9353 50.1829C24.5276 42.2557 13.3092 50.2371 9.37592 55.2187L19.6016 69.5503L48.6031 92.1272L76.3823 69.568L89.1983 15.6336C77.6972 30.453 51.343 58.1101 37.9353 50.1829Z" fill="url(#paint0_linear)"/>
<path d="M45.4061 48.9716C26.0748 41.4539 8.05781 49.9562 1.46573 55.147L15.1648 69.2675L56.295 91.025L101.261 67.1418L127.493 12.0655C108.185 27.4999 64.7374 56.4894 45.4061 48.9716Z" fill="#76FBEB" fill-opacity="0.45"/>
<path d="M45.4061 48.9716C26.0748 41.4539 8.05781 49.9562 1.46573 55.147L15.1648 69.2675L56.295 91.025L101.261 67.1418L127.493 12.0655C108.185 27.4999 64.7374 56.4894 45.4061 48.9716Z" fill="url(#paint1_linear)"/>
<path d="M44.3254 45.0166C28.2824 48.1685 19.4078 59.7333 16.9758 65.1217L26.2126 79.5242L66.5461 80.5845C72.7379 73.6708 84.4248 58.446 81.6374 52.8566C78.1532 45.8698 64.3791 41.0768 44.3254 45.0166Z" fill="#76ABFB" fill-opacity="0.3"/>
<path d="M44.3254 45.0166C28.2824 48.1685 19.4078 59.7333 16.9758 65.1217L26.2126 79.5242L66.5461 80.5845C72.7379 73.6708 84.4248 58.446 81.6374 52.8566C78.1532 45.8698 64.3791 41.0768 44.3254 45.0166Z" fill="url(#paint2_linear)"/>
</g>
<path d="M116.531 27.8125C114.406 27.8125 112.833 28.5104 111.812 29.9062C110.812 31.3021 110.312 33.4583 110.312 36.375V55.5938C110.312 58.5104 110.812 60.6667 111.812 62.0625C112.833 63.4583 114.406 64.1562 116.531 64.1562C118.635 64.1562 120.188 63.4583 121.188 62.0625C122.208 60.6667 122.719 58.5104 122.719 55.5938V53.6562H128.75V55.5938C128.75 60.2188 127.75 63.6562 125.75 65.9062C123.75 68.1562 120.677 69.2812 116.531 69.2812C112.365 69.2812 109.281 68.1667 107.281 65.9375C105.281 63.6875 104.281 60.2396 104.281 55.5938V36.375C104.281 31.7292 105.281 28.2917 107.281 26.0625C109.281 23.8125 112.365 22.6875 116.531 22.6875C120.677 22.6875 123.75 23.8125 125.75 26.0625C127.75 28.3125 128.75 31.75 128.75 36.375V37H122.719V36.375C122.719 33.4583 122.219 31.3021 121.219 29.9062C120.219 28.5104 118.656 27.8125 116.531 27.8125ZM149.781 51.75H159.25L154.5 30.6875L149.781 51.75ZM139.844 68L150.688 23.9688H158.344L169.156 68H162.969L160.406 56.8125H148.625L146.062 68H139.844ZM181.531 68V23.9688H192.031C200.177 23.9688 204.25 27.9583 204.25 35.9375V37.2188C204.25 45.1979 200.177 49.1875 192.031 49.1875H187.562V68H181.531ZM192.031 44.0625C194.156 44.0625 195.719 43.5104 196.719 42.4062C197.719 41.2812 198.219 39.5521 198.219 37.2188V35.9375C198.219 33.6042 197.719 31.8854 196.719 30.7812C195.719 29.6562 194.156 29.0938 192.031 29.0938H187.562V44.0625H192.031ZM217.156 68V23.9688H223.188V62.875H236.375V68H217.156ZM248.094 68V23.9688H268.469V29.0938H254.125V42.4062H267.812V47.5312H254.125V62.875H268.469V68H248.094Z" fill="#0E0D4A"/>
<path d="M111.812 29.9062L111.409 29.6111L111.406 29.6151L111.812 29.9062ZM111.812 62.0625L111.406 62.3537L111.409 62.3577L111.812 62.0625ZM121.188 62.0625L120.784 61.7673L120.781 61.7713L121.188 62.0625ZM122.719 53.6562V53.1562H122.219V53.6562H122.719ZM128.75 53.6562H129.25V53.1562H128.75V53.6562ZM107.281 65.9375L106.908 66.2697L106.909 66.2714L107.281 65.9375ZM107.281 26.0625L107.653 26.3964L107.655 26.3947L107.281 26.0625ZM128.75 37V37.5H129.25V37H128.75ZM122.719 37H122.219V37.5H122.719V37ZM116.531 27.3125C114.288 27.3125 112.546 28.0567 111.409 29.6111L112.216 30.2014C113.121 28.9641 114.525 28.3125 116.531 28.3125V27.3125ZM111.406 29.6151C110.316 31.1369 109.812 33.4194 109.812 36.375H110.812C110.812 33.4973 111.309 31.4673 112.219 30.1974L111.406 29.6151ZM109.812 36.375V55.5938H110.812V36.375H109.812ZM109.812 55.5938C109.812 58.5493 110.316 60.8319 111.406 62.3537L112.219 61.7713C111.309 60.5015 110.812 58.4715 110.812 55.5938H109.812ZM111.409 62.3577C112.546 63.912 114.288 64.6562 116.531 64.6562V63.6562C114.525 63.6562 113.121 63.0046 112.216 61.7673L111.409 62.3577ZM116.531 64.6562C118.756 64.6562 120.479 63.9107 121.594 62.3537L120.781 61.7713C119.896 63.006 118.515 63.6562 116.531 63.6562V64.6562ZM121.591 62.3577C122.705 60.8351 123.219 58.5508 123.219 55.5938H122.219C122.219 58.4701 121.712 60.4983 120.784 61.7673L121.591 62.3577ZM123.219 55.5938V53.6562H122.219V55.5938H123.219ZM122.719 54.1562H128.75V53.1562H122.719V54.1562ZM128.25 53.6562V55.5938H129.25V53.6562H128.25ZM128.25 55.5938C128.25 60.1595 127.261 63.4538 125.376 65.5741L126.124 66.2384C128.239 63.8587 129.25 60.278 129.25 55.5938H128.25ZM125.376 65.5741C123.503 67.6816 120.59 68.7812 116.531 68.7812V69.7812C120.764 69.7812 123.997 68.6309 126.124 66.2384L125.376 65.5741ZM116.531 68.7812C112.449 68.7812 109.526 67.6907 107.653 65.6036L106.909 66.2714C109.037 68.6426 112.28 69.7812 116.531 69.7812V68.7812ZM107.655 65.6053C105.771 63.4854 104.781 60.181 104.781 55.5938H103.781C103.781 60.2981 104.792 63.8896 106.908 66.2697L107.655 65.6053ZM104.781 55.5938V36.375H103.781V55.5938H104.781ZM104.781 36.375C104.781 31.7872 105.771 28.4948 107.653 26.3964L106.909 25.7286C104.792 28.0886 103.781 31.6711 103.781 36.375H104.781ZM107.655 26.3947C109.528 24.2877 112.45 23.1875 116.531 23.1875V22.1875C112.279 22.1875 109.035 23.3373 106.908 25.7303L107.655 26.3947ZM116.531 23.1875C120.59 23.1875 123.503 24.2872 125.376 26.3947L126.124 25.7303C123.997 23.3378 120.764 22.1875 116.531 22.1875V23.1875ZM125.376 26.3947C127.261 28.5149 128.25 31.8093 128.25 36.375H129.25C129.25 31.6907 128.239 28.1101 126.124 25.7303L125.376 26.3947ZM128.25 36.375V37H129.25V36.375H128.25ZM128.75 36.5H122.719V37.5H128.75V36.5ZM123.219 37V36.375H122.219V37H123.219ZM123.219 36.375C123.219 33.4194 122.715 31.1369 121.625 29.6151L120.812 30.1974C121.722 31.4673 122.219 33.4973 122.219 36.375H123.219ZM121.625 29.6151C120.509 28.0567 118.774 27.3125 116.531 27.3125V28.3125C118.538 28.3125 119.929 28.9641 120.812 30.1974L121.625 29.6151ZM149.781 51.75L149.293 51.6407L149.157 52.25H149.781V51.75ZM159.25 51.75V52.25H159.875L159.738 51.64L159.25 51.75ZM154.5 30.6875L154.988 30.5775L154.012 30.5782L154.5 30.6875ZM139.844 68L139.358 67.8804L139.206 68.5H139.844V68ZM150.688 23.9688V23.4688H150.296L150.202 23.8492L150.688 23.9688ZM158.344 23.9688L158.829 23.8495L158.736 23.4688H158.344V23.9688ZM169.156 68V68.5H169.794L169.642 67.8808L169.156 68ZM162.969 68L162.481 68.1116L162.57 68.5H162.969V68ZM160.406 56.8125L160.894 56.7009L160.805 56.3125H160.406V56.8125ZM148.625 56.8125V56.3125H148.227L148.138 56.7009L148.625 56.8125ZM146.062 68V68.5H146.461L146.55 68.1116L146.062 68ZM149.781 52.25H159.25V51.25H149.781V52.25ZM159.738 51.64L154.988 30.5775L154.012 30.7975L158.762 51.86L159.738 51.64ZM154.012 30.5782L149.293 51.6407L150.269 51.8593L154.988 30.7968L154.012 30.5782ZM140.329 68.1196L151.173 24.0883L150.202 23.8492L139.358 67.8804L140.329 68.1196ZM150.688 24.4688H158.344V23.4688H150.688V24.4688ZM157.858 24.088L168.671 68.1192L169.642 67.8808L158.829 23.8495L157.858 24.088ZM169.156 67.5H162.969V68.5H169.156V67.5ZM163.456 67.8884L160.894 56.7009L159.919 56.9241L162.481 68.1116L163.456 67.8884ZM160.406 56.3125H148.625V57.3125H160.406V56.3125ZM148.138 56.7009L145.575 67.8884L146.55 68.1116L149.112 56.9241L148.138 56.7009ZM146.062 67.5H139.844V68.5H146.062V67.5ZM181.531 68H181.031V68.5H181.531V68ZM181.531 23.9688V23.4688H181.031V23.9688H181.531ZM187.562 49.1875V48.6875H187.062V49.1875H187.562ZM187.562 68V68.5H188.062V68H187.562ZM196.719 42.4062L197.089 42.7419L197.092 42.7384L196.719 42.4062ZM196.719 30.7812L196.345 31.1134L196.348 31.1169L196.719 30.7812ZM187.562 29.0938V28.5938H187.062V29.0938H187.562ZM187.562 44.0625H187.062V44.5625H187.562V44.0625ZM182.031 68V23.9688H181.031V68H182.031ZM181.531 24.4688H192.031V23.4688H181.531V24.4688ZM192.031 24.4688C196.03 24.4688 198.936 25.4479 200.845 27.3181C202.753 29.1865 203.75 32.0276 203.75 35.9375H204.75C204.75 31.8682 203.711 28.725 201.545 26.6037C199.382 24.4844 196.179 23.4688 192.031 23.4688V24.4688ZM203.75 35.9375V37.2188H204.75V35.9375H203.75ZM203.75 37.2188C203.75 41.1286 202.753 43.9698 200.845 45.8381C198.936 47.7084 196.03 48.6875 192.031 48.6875V49.6875C196.179 49.6875 199.382 48.6719 201.545 46.5525C203.711 44.4313 204.75 41.2881 204.75 37.2188H203.75ZM192.031 48.6875H187.562V49.6875H192.031V48.6875ZM187.062 49.1875V68H188.062V49.1875H187.062ZM187.562 67.5H181.531V68.5H187.562V67.5ZM192.031 44.5625C194.236 44.5625 195.96 43.989 197.089 42.7419L196.348 42.0706C195.478 43.0318 194.077 43.5625 192.031 43.5625V44.5625ZM197.092 42.7384C198.208 41.483 198.719 39.61 198.719 37.2188H197.719C197.719 39.4942 197.229 41.0795 196.345 42.0741L197.092 42.7384ZM198.719 37.2188V35.9375H197.719V37.2188H198.719ZM198.719 35.9375C198.719 33.5473 198.209 31.6817 197.089 30.4456L196.348 31.1169C197.229 32.0892 197.719 33.661 197.719 35.9375H198.719ZM197.092 30.4491C195.964 29.1791 194.238 28.5938 192.031 28.5938V29.5938C194.074 29.5938 195.474 30.1334 196.345 31.1134L197.092 30.4491ZM192.031 28.5938H187.562V29.5938H192.031V28.5938ZM187.062 29.0938V44.0625H188.062V29.0938H187.062ZM187.562 44.5625H192.031V43.5625H187.562V44.5625ZM217.156 68H216.656V68.5H217.156V68ZM217.156 23.9688V23.4688H216.656V23.9688H217.156ZM223.188 23.9688H223.688V23.4688H223.188V23.9688ZM223.188 62.875H222.688V63.375H223.188V62.875ZM236.375 62.875H236.875V62.375H236.375V62.875ZM236.375 68V68.5H236.875V68H236.375ZM217.656 68V23.9688H216.656V68H217.656ZM217.156 24.4688H223.188V23.4688H217.156V24.4688ZM222.688 23.9688V62.875H223.688V23.9688H222.688ZM223.188 63.375H236.375V62.375H223.188V63.375ZM235.875 62.875V68H236.875V62.875H235.875ZM236.375 67.5H217.156V68.5H236.375V67.5ZM248.094 68H247.594V68.5H248.094V68ZM248.094 23.9688V23.4688H247.594V23.9688H248.094ZM268.469 23.9688H268.969V23.4688H268.469V23.9688ZM268.469 29.0938V29.5938H268.969V29.0938H268.469ZM254.125 29.0938V28.5938H253.625V29.0938H254.125ZM254.125 42.4062H253.625V42.9062H254.125V42.4062ZM267.812 42.4062H268.312V41.9062H267.812V42.4062ZM267.812 47.5312V48.0312H268.312V47.5312H267.812ZM254.125 47.5312V47.0312H253.625V47.5312H254.125ZM254.125 62.875H253.625V63.375H254.125V62.875ZM268.469 62.875H268.969V62.375H268.469V62.875ZM268.469 68V68.5H268.969V68H268.469ZM248.594 68V23.9688H247.594V68H248.594ZM248.094 24.4688H268.469V23.4688H248.094V24.4688ZM267.969 23.9688V29.0938H268.969V23.9688H267.969ZM268.469 28.5938H254.125V29.5938H268.469V28.5938ZM253.625 29.0938V42.4062H254.625V29.0938H253.625ZM254.125 42.9062H267.812V41.9062H254.125V42.9062ZM267.312 42.4062V47.5312H268.312V42.4062H267.312ZM267.812 47.0312H254.125V48.0312H267.812V47.0312ZM253.625 47.5312V62.875H254.625V47.5312H253.625ZM254.125 63.375H268.469V62.375H254.125V63.375ZM267.969 62.875V68H268.969V62.875H267.969ZM268.469 67.5H248.094V68.5H268.469V67.5Z" fill="#050481"/>
<defs>
<linearGradient id="paint0_linear" x1="47.1058" y1="23.0556" x2="53.6099" y2="83.0877" gradientUnits="userSpaceOnUse">
<stop offset="0.301713" stop-color="white" stop-opacity="0"/>
<stop offset="1" stop-color="white"/>
</linearGradient>
<linearGradient id="paint1_linear" x1="62.7311" y1="21.1672" x2="68.5297" y2="81.3486" gradientUnits="userSpaceOnUse">
<stop offset="0.301713" stop-color="white" stop-opacity="0"/>
<stop offset="1" stop-color="white"/>
</linearGradient>
<linearGradient id="paint2_linear" x1="49.9325" y1="27.7485" x2="52.3055" y2="77.7704" gradientUnits="userSpaceOnUse">
<stop stop-color="white" stop-opacity="0"/>
<stop offset="1" stop-color="#2B45A3"/>
</linearGradient>
</defs>
</svg>
