<svg viewBox="0 0 198 257" fill="none" xmlns="http://www.w3.org/2000/svg">
<mask id="mask0" mask-type="alpha" maskUnits="userSpaceOnUse" x="28" y="8" width="143" height="157">
<path d="M89.5 10.7735C95.688 7.20085 103.312 7.20085 109.5 10.7735L160.081 39.9765C166.269 43.5492 170.081 50.1517 170.081 57.297V115.703C170.081 122.848 166.269 129.451 160.081 133.023L109.5 162.227C103.312 165.799 95.688 165.799 89.5 162.227L38.9189 133.023C32.7309 129.451 28.9189 122.848 28.9189 115.703V57.297C28.9189 50.1517 32.7309 43.5492 38.9189 39.9765L89.5 10.7735Z" fill="#091D9D"/>
</mask>
<g mask="url(#mask0)">
<path d="M89.5 10.7735C95.688 7.20085 103.312 7.20085 109.5 10.7735L160.081 39.9765C166.269 43.5492 170.081 50.1517 170.081 57.297V115.703C170.081 122.848 166.269 129.451 160.081 133.023L109.5 162.227C103.312 165.799 95.688 165.799 89.5 162.227L38.9189 133.023C32.7309 129.451 28.9189 122.848 28.9189 115.703V57.297C28.9189 50.1517 32.7309 43.5492 38.9189 39.9765L89.5 10.7735Z" fill="#0A0996"/>
<path d="M76.0637 96.2402C44.8429 77.7812 18.72 96.3664 9.56107 107.966L33.3723 141.339L100.904 193.91L165.59 141.38L195.433 15.7897C168.652 50.2978 107.284 114.699 76.0637 96.2402Z" fill="#76FBEB" fill-opacity="0.45"/>
<path d="M76.0637 96.2402C44.8429 77.7812 18.72 96.3664 9.56107 107.966L33.3723 141.339L100.904 193.91L165.59 141.38L195.433 15.7897C168.652 50.2978 107.284 114.699 76.0637 96.2402Z" fill="url(#paint0_linear)"/>
<path d="M93.4599 93.4197C48.4456 75.9141 6.49177 95.7123 -8.85837 107.8L23.0409 140.68L118.816 191.344L223.522 135.73L284.605 7.48109C239.646 43.4213 138.474 110.925 93.4599 93.4197Z" fill="#76FBEB" fill-opacity="0.45"/>
<path d="M93.4599 93.4197C48.4456 75.9141 6.49177 95.7123 -8.85837 107.8L23.0409 140.68L118.816 191.344L223.522 135.73L284.605 7.48109C239.646 43.4213 138.474 110.925 93.4599 93.4197Z" fill="url(#paint1_linear)"/>
<path d="M90.9434 84.2101C53.5862 91.5494 32.921 118.479 27.258 131.026L48.7664 164.563L142.686 167.033C157.104 150.933 184.318 115.481 177.827 102.466C169.714 86.1968 137.64 75.0359 90.9434 84.2101Z" fill="#76ABFB" fill-opacity="0.3"/>
<path d="M90.9434 84.2101C53.5862 91.5494 32.921 118.479 27.258 131.026L48.7664 164.563L142.686 167.033C157.104 150.933 184.318 115.481 177.827 102.466C169.714 86.1968 137.64 75.0359 90.9434 84.2101Z" fill="url(#paint2_linear)"/>
</g>
<path d="M30.5312 200.812C28.4062 200.812 26.8333 201.51 25.8125 202.906C24.8125 204.302 24.3125 206.458 24.3125 209.375V228.594C24.3125 231.51 24.8125 233.667 25.8125 235.062C26.8333 236.458 28.4062 237.156 30.5312 237.156C32.6354 237.156 34.1875 236.458 35.1875 235.062C36.2083 233.667 36.7188 231.51 36.7188 228.594V226.656H42.75V228.594C42.75 233.219 41.75 236.656 39.75 238.906C37.75 241.156 34.6771 242.281 30.5312 242.281C26.3646 242.281 23.2812 241.167 21.2812 238.938C19.2812 236.688 18.2812 233.24 18.2812 228.594V209.375C18.2812 204.729 19.2812 201.292 21.2812 199.062C23.2812 196.812 26.3646 195.688 30.5312 195.688C34.6771 195.688 37.75 196.812 39.75 199.062C41.75 201.312 42.75 204.75 42.75 209.375V210H36.7188V209.375C36.7188 206.458 36.2188 204.302 35.2188 202.906C34.2188 201.51 32.6562 200.812 30.5312 200.812ZM63.7812 224.75H73.25L68.5 203.688L63.7812 224.75ZM53.8438 241L64.6875 196.969H72.3438L83.1562 241H76.9688L74.4062 229.812H62.625L60.0625 241H53.8438ZM95.5312 241V196.969H106.031C114.177 196.969 118.25 200.958 118.25 208.938V210.219C118.25 218.198 114.177 222.188 106.031 222.188H101.562V241H95.5312ZM106.031 217.062C108.156 217.062 109.719 216.51 110.719 215.406C111.719 214.281 112.219 212.552 112.219 210.219V208.938C112.219 206.604 111.719 204.885 110.719 203.781C109.719 202.656 108.156 202.094 106.031 202.094H101.562V217.062H106.031ZM131.156 241V196.969H137.188V235.875H150.375V241H131.156ZM162.094 241V196.969H182.469V202.094H168.125V215.406H181.812V220.531H168.125V235.875H182.469V241H162.094Z" fill="#0E0D4A"/>
<path d="M25.8125 202.906L25.4089 202.611L25.406 202.615L25.8125 202.906ZM25.8125 235.062L25.406 235.354L25.4089 235.358L25.8125 235.062ZM35.1875 235.062L34.7839 234.767L34.781 234.771L35.1875 235.062ZM36.7188 226.656V226.156H36.2188V226.656H36.7188ZM42.75 226.656H43.25V226.156H42.75V226.656ZM21.2812 238.938L20.9075 239.27L20.9091 239.271L21.2812 238.938ZM21.2812 199.062L21.6534 199.396L21.655 199.395L21.2812 199.062ZM42.75 210V210.5H43.25V210H42.75ZM36.7188 210H36.2188V210.5H36.7188V210ZM30.5312 200.312C28.2877 200.312 26.5457 201.057 25.4089 202.611L26.2161 203.201C27.121 201.964 28.5248 201.312 30.5312 201.312V200.312ZM25.406 202.615C24.3158 204.137 23.8125 206.419 23.8125 209.375H24.8125C24.8125 206.497 25.3092 204.467 26.219 203.197L25.406 202.615ZM23.8125 209.375V228.594H24.8125V209.375H23.8125ZM23.8125 228.594C23.8125 231.549 24.3158 233.832 25.406 235.354L26.219 234.771C25.3092 233.501 24.8125 231.471 24.8125 228.594H23.8125ZM25.4089 235.358C26.5457 236.912 28.2877 237.656 30.5312 237.656V236.656C28.5248 236.656 27.121 236.005 26.2161 234.767L25.4089 235.358ZM30.5312 237.656C32.7557 237.656 34.4785 236.911 35.594 235.354L34.781 234.771C33.8965 236.006 32.5151 236.656 30.5312 236.656V237.656ZM35.5911 235.358C36.7046 233.835 37.2188 231.551 37.2188 228.594H36.2188C36.2188 231.47 35.7121 233.498 34.7839 234.767L35.5911 235.358ZM37.2188 228.594V226.656H36.2188V228.594H37.2188ZM36.7188 227.156H42.75V226.156H36.7188V227.156ZM42.25 226.656V228.594H43.25V226.656H42.25ZM42.25 228.594C42.25 233.159 41.261 236.454 39.3763 238.574L40.1237 239.238C42.239 236.859 43.25 233.278 43.25 228.594H42.25ZM39.3763 238.574C37.503 240.682 34.5903 241.781 30.5312 241.781V242.781C34.7638 242.781 37.997 241.631 40.1237 239.238L39.3763 238.574ZM30.5312 241.781C26.4491 241.781 23.526 240.691 21.6534 238.604L20.9091 239.271C23.0365 241.643 26.2801 242.781 30.5312 242.781V241.781ZM21.655 238.605C19.7706 236.485 18.7812 233.181 18.7812 228.594H17.7812C17.7812 233.298 18.7919 236.89 20.9075 239.27L21.655 238.605ZM18.7812 228.594V209.375H17.7812V228.594H18.7812ZM18.7812 209.375C18.7812 204.787 19.7708 201.495 21.6534 199.396L20.9091 198.729C18.7917 201.089 17.7812 204.671 17.7812 209.375H18.7812ZM21.655 199.395C23.5279 197.288 26.4504 196.188 30.5312 196.188V195.188C26.2787 195.188 23.0346 196.337 20.9075 198.73L21.655 199.395ZM30.5312 196.188C34.5903 196.188 37.503 197.287 39.3763 199.395L40.1237 198.73C37.997 196.338 34.7638 195.188 30.5312 195.188V196.188ZM39.3763 199.395C41.261 201.515 42.25 204.809 42.25 209.375H43.25C43.25 204.691 42.239 201.11 40.1237 198.73L39.3763 199.395ZM42.25 209.375V210H43.25V209.375H42.25ZM42.75 209.5H36.7188V210.5H42.75V209.5ZM37.2188 210V209.375H36.2188V210H37.2188ZM37.2188 209.375C37.2188 206.419 36.7155 204.137 35.6252 202.615L34.8123 203.197C35.722 204.467 36.2188 206.497 36.2188 209.375H37.2188ZM35.6252 202.615C34.5088 201.057 32.7745 200.312 30.5312 200.312V201.312C32.538 201.312 33.9287 201.964 34.8123 203.197L35.6252 202.615ZM63.7812 224.75L63.2933 224.641L63.1568 225.25H63.7812V224.75ZM73.25 224.75V225.25H73.8753L73.7378 224.64L73.25 224.75ZM68.5 203.688L68.9878 203.578L68.0121 203.578L68.5 203.688ZM53.8438 241L53.3583 240.88L53.2057 241.5H53.8438V241ZM64.6875 196.969V196.469H64.2957L64.202 196.849L64.6875 196.969ZM72.3438 196.969L72.8293 196.85L72.7358 196.469H72.3438V196.969ZM83.1562 241V241.5H83.7939L83.6418 240.881L83.1562 241ZM76.9688 241L76.4814 241.112L76.5703 241.5H76.9688V241ZM74.4062 229.812L74.8936 229.701L74.8047 229.312H74.4062V229.812ZM62.625 229.812V229.312H62.2266L62.1376 229.701L62.625 229.812ZM60.0625 241V241.5H60.4609L60.5499 241.112L60.0625 241ZM63.7812 225.25H73.25V224.25H63.7812V225.25ZM73.7378 224.64L68.9878 203.578L68.0122 203.797L72.7622 224.86L73.7378 224.64ZM68.0121 203.578L63.2933 224.641L64.2692 224.859L68.9879 203.797L68.0121 203.578ZM54.3292 241.12L65.173 197.088L64.202 196.849L53.3583 240.88L54.3292 241.12ZM64.6875 197.469H72.3438V196.469H64.6875V197.469ZM71.8582 197.088L82.6707 241.119L83.6418 240.881L72.8293 196.85L71.8582 197.088ZM83.1562 240.5H76.9688V241.5H83.1562V240.5ZM77.4561 240.888L74.8936 229.701L73.9189 229.924L76.4814 241.112L77.4561 240.888ZM74.4062 229.312H62.625V230.312H74.4062V229.312ZM62.1376 229.701L59.5751 240.888L60.5499 241.112L63.1124 229.924L62.1376 229.701ZM60.0625 240.5H53.8438V241.5H60.0625V240.5ZM95.5312 241H95.0312V241.5H95.5312V241ZM95.5312 196.969V196.469H95.0312V196.969H95.5312ZM101.562 222.188V221.688H101.062V222.188H101.562ZM101.562 241V241.5H102.062V241H101.562ZM110.719 215.406L111.089 215.742L111.092 215.738L110.719 215.406ZM110.719 203.781L110.345 204.113L110.348 204.117L110.719 203.781ZM101.562 202.094V201.594H101.062V202.094H101.562ZM101.562 217.062H101.062V217.562H101.562V217.062ZM96.0312 241V196.969H95.0312V241H96.0312ZM95.5312 197.469H106.031V196.469H95.5312V197.469ZM106.031 197.469C110.03 197.469 112.936 198.448 114.845 200.318C116.753 202.186 117.75 205.028 117.75 208.938H118.75C118.75 204.868 117.711 201.725 115.545 199.604C113.382 197.484 110.179 196.469 106.031 196.469V197.469ZM117.75 208.938V210.219H118.75V208.938H117.75ZM117.75 210.219C117.75 214.129 116.753 216.97 114.845 218.838C112.936 220.708 110.03 221.688 106.031 221.688V222.688C110.179 222.688 113.382 221.672 115.545 219.553C117.711 217.431 118.75 214.288 118.75 210.219H117.75ZM106.031 221.688H101.562V222.688H106.031V221.688ZM101.062 222.188V241H102.062V222.188H101.062ZM101.562 240.5H95.5312V241.5H101.562V240.5ZM106.031 217.562C108.236 217.562 109.96 216.989 111.089 215.742L110.348 215.071C109.478 216.032 108.077 216.562 106.031 216.562V217.562ZM111.092 215.738C112.208 214.483 112.719 212.61 112.719 210.219H111.719C111.719 212.494 111.229 214.079 110.345 215.074L111.092 215.738ZM112.719 210.219V208.938H111.719V210.219H112.719ZM112.719 208.938C112.719 206.547 112.209 204.682 111.089 203.446L110.348 204.117C111.229 205.089 111.719 206.661 111.719 208.938H112.719ZM111.092 203.449C109.964 202.179 108.238 201.594 106.031 201.594V202.594C108.074 202.594 109.474 203.133 110.345 204.113L111.092 203.449ZM106.031 201.594H101.562V202.594H106.031V201.594ZM101.062 202.094V217.062H102.062V202.094H101.062ZM101.562 217.562H106.031V216.562H101.562V217.562ZM131.156 241H130.656V241.5H131.156V241ZM131.156 196.969V196.469H130.656V196.969H131.156ZM137.188 196.969H137.688V196.469H137.188V196.969ZM137.188 235.875H136.688V236.375H137.188V235.875ZM150.375 235.875H150.875V235.375H150.375V235.875ZM150.375 241V241.5H150.875V241H150.375ZM131.656 241V196.969H130.656V241H131.656ZM131.156 197.469H137.188V196.469H131.156V197.469ZM136.688 196.969V235.875H137.688V196.969H136.688ZM137.188 236.375H150.375V235.375H137.188V236.375ZM149.875 235.875V241H150.875V235.875H149.875ZM150.375 240.5H131.156V241.5H150.375V240.5ZM162.094 241H161.594V241.5H162.094V241ZM162.094 196.969V196.469H161.594V196.969H162.094ZM182.469 196.969H182.969V196.469H182.469V196.969ZM182.469 202.094V202.594H182.969V202.094H182.469ZM168.125 202.094V201.594H167.625V202.094H168.125ZM168.125 215.406H167.625V215.906H168.125V215.406ZM181.812 215.406H182.312V214.906H181.812V215.406ZM181.812 220.531V221.031H182.312V220.531H181.812ZM168.125 220.531V220.031H167.625V220.531H168.125ZM168.125 235.875H167.625V236.375H168.125V235.875ZM182.469 235.875H182.969V235.375H182.469V235.875ZM182.469 241V241.5H182.969V241H182.469ZM162.594 241V196.969H161.594V241H162.594ZM162.094 197.469H182.469V196.469H162.094V197.469ZM181.969 196.969V202.094H182.969V196.969H181.969ZM182.469 201.594H168.125V202.594H182.469V201.594ZM167.625 202.094V215.406H168.625V202.094H167.625ZM168.125 215.906H181.812V214.906H168.125V215.906ZM181.312 215.406V220.531H182.312V215.406H181.312ZM181.812 220.031H168.125V221.031H181.812V220.031ZM167.625 220.531V235.875H168.625V220.531H167.625ZM168.125 236.375H182.469V235.375H168.125V236.375ZM181.969 235.875V241H182.969V235.875H181.969ZM182.469 240.5H162.094V241.5H182.469V240.5Z" fill="#050481"/>
<defs>
<linearGradient id="paint0_linear" x1="97.4179" y1="33.0724" x2="112.563" y2="172.861" gradientUnits="userSpaceOnUse">
<stop offset="0.301713" stop-color="white" stop-opacity="0"/>
<stop offset="1" stop-color="white"/>
</linearGradient>
<linearGradient id="paint1_linear" x1="133.802" y1="28.675" x2="147.305" y2="168.812" gradientUnits="userSpaceOnUse">
<stop offset="0.301713" stop-color="white" stop-opacity="0"/>
<stop offset="1" stop-color="white"/>
</linearGradient>
<linearGradient id="paint2_linear" x1="104" y1="44" x2="109.526" y2="160.48" gradientUnits="userSpaceOnUse">
<stop stop-color="white" stop-opacity="0"/>
<stop offset="1" stop-color="#2B45A3"/>
</linearGradient>
</defs>
</svg>
